<?xml version="1.0" encoding="UTF-8"?>
<svg id="Layer_10" data-name="Layer 10" xmlns="http://www.w3.org/2000/svg" viewBox="0 0 475 1000">
  <defs>
    <style>
      .cls-1 {
        fill: #fff;
        stroke-width: 0px;
      }
    </style>
  </defs>
  <rect class="cls-1" x="109.1517972" y="772.927379" width="28.692354" height="29.4613748"/>
  <g>
    <path class="cls-1" d="M61.6322937,825.1892676l-21.6749718-4.0989077c-1.7021717-.3407604-3.486952-.5967384-5.3565148-.7690207-1.8695628-.1679346-3.6543431-.2559779-5.3554278-.2559779-7.1412951,0-12.7499834,2.0494539-16.828239,6.1483616-4.0836903,4.0989077-6.1206442,9.8233568-6.1206442,17.1646516v77.3678343c0,7.6858596,2.2934753,13.8342212,6.8847737,18.4456282,4.5869506,4.6108636,10.9641162,6.9168388,19.1260621,6.9168388h29.3249619v26.1309443h-25.3619236v-15.1151978H8.6019278v20.2385607c0,10.4157473,5.3804278,15.6276971,16.1401964,15.6276971h49.5195009c10.7075948,0,16.0641096-5.2119498,16.0641096-15.6276971v-156.7851224h-28.693441v4.6114071ZM61.6322937,923.0516405h-17.3445427c-6.1999919,0-9.298901-3.1581481-9.298901-9.478792v-60.4597041c0-6.1483616,3.0141265-9.2228141,9.0510752-9.2228141h2.8858658c1.089129,0,2.0532582.0885868,2.8945615.2565214l11.8119412,1.2809766v77.6238122Z"/>
    <rect class="cls-1" x="109.4083186" y="820.5778606" width="28.1803982" height="126.2992925"/>
    <path class="cls-1" d="M195.9223366,844.9153289h18.4445413v-24.3374684h-18.4445413v-34.3287598h-28.693441v34.3287598h-13.5771563v24.3374684h13.5771563v86.3346705c0,10.4195517,5.3402105,15.6271536,16.02824,15.6271536h31.8782195v-24.3374684h-19.2130185v-77.6243557Z"/>
    <path class="cls-1" d="M270.4961528,844.9153289h18.4445413v-24.3374684h-18.4445413v-34.3287598h-28.693441v34.3287598h-13.5771563v24.3374684h13.5771563v86.3346705c0,10.4195517,5.3402105,15.6271536,16.02824,15.6271536h31.8782195v-24.3374684h-19.2130185v-77.6243557Z"/>
    <path class="cls-1" d="M361.5427736,922.5396846l-26.6434437.5119559v-102.4737799h-28.692354v111.4406161c0,10.4195517,5.1836889,15.6271536,15.5543276,15.6271536,1.3619548,0,2.8902136-.0880434,4.5923853-.2559779,1.6967369-.1722824,3.3978217-.4282603,5.0989064-.7684773l30.0901783-4.0989077v4.3548856h28.692354v-126.2992925h-28.692354v101.9618241Z"/>
    <path class="cls-1" d="M468.703504,776.001288v-24.8499677h-33.6716954c-10.6880296,0-16.02824,5.2119498-16.02824,15.6276971v53.7988432h-13.0652004v24.3374684h13.0652004v101.9618241h28.693441v-101.9618241h18.1891068v-24.3374684h-18.1891068v-44.5765725h21.0064945Z"/>
  </g>
  <path class="cls-1" d="M346.3612055,26.6084409c-19.9831332-8.8962556-41.1119884-14.8455636-62.8006851-17.6827182-21.690602-2.837234-43.6409603-2.5228591-65.2391551.9350273-82.3006653,13.2078765-143.9837315,70.9206093-153.4924626,143.6106097l-.0308024.2488008-.0129402.1940233c-.8392859,13.7529518-.5807204,27.6568195.6861472,41.3897657.6105702,4.9226673,2.4721304,7.9362212,3.3841353,9.1202875l.0009527.0003176c1.5721923,1.8769614,3.2447306,3.6409542,5.0011023,5.2995997l91.5110577,121.8842833c-7.6472503.5424556-15.7400239.4059883-24.2462482-.7067086-12.0169034-1.5719542-24.1868662-4.9806203-36.1697918-10.1298598l-.0011114-.0003176c-5.338976-2.2947784-11.52343.223238-13.7410437,5.5949216l-.0009527.0011114c-30.1374444,72.998342-41.8460063,153.1163241-33.8516734,231.7565058,10.6911303,98.6884921,45.3066713,124.170726,129.5523331,177.2742138l.0011114.0003969c2.5794624,1.6255408,5.7417887,2.0392297,8.6526151,1.1319086l.0009527-.0002382c85.1108281-26.5149874,131.9927084-41.1204035,168.7688628-132.6941774,29.6233302-75.3723492,39.6731673-157.65285,29.0615834-237.9405629v-.0011114c-.7618036-5.7571899-6.0839493-9.7803161-11.8298662-8.9424592-12.8679387,1.8740241-25.4745333,2.028036-37.469367.4617978-.0080975-.001032-.004922-.0006351-.0139722-.0017465-8.7709026-1.1473892-16.8676456-3.1897944-24.3178558-5.81292h0l113.4572878-91.9755546c6.6269606-6.1074481,13.1256309-14.7701454,13.3274342-15.0397457,4.6868861-12.761083,8.4317587-25.9493507,11.1317315-39.2763086l.0468387-.2483245.0247689-.1906891c9.5077785-72.6900798-35.2557227-144.3269242-111.390987-178.2601286ZM219.3407022,16.2193011c20.9676984-3.4167636,42.3263014-3.7228823,63.3833902-.9095439,21.0732839,2.6976706,41.6342002,8.4870125,61.017798,17.1821793,14.3208908,14.8729523,75.8089811,86.0479195,40.3671738,176.0762547,0,0-5.3928008-60.7039788-66.9545627-48.7570158,1.9810386-10.365641,3.2877587-20.0578369,4.0295566-29.1115182,7.1709246-87.5197659-38.4599657-115.3899-38.4599657-115.3899,0,0-51.2631241,15.1955042-66.8450078,101.6151959-1.6120449,8.9399982-2.8420767,18.6421176-3.5940362,29.1684391-7.933522-3.85022-15.1639873-6.0263933-21.7302958-6.9231558-.7300485-.0997108-1.4508881-.1834648-2.1649003-.2520557-18.5473287-1.7834428-31.6011932,6.7443749-40.1525097,16.0674978-2.6312231,2.8686715-4.835976,5.8126025-6.6428382,8.5546507-.451398.6855121-.8789797,1.3584015-1.2817924,2.0143814-.6035047.9838507-1.1525494,1.9296748-1.6477694,2.8227061-.3300937.5954071-.6374826,1.1673155-.9208963,1.7114382-1.8416339,3.5367977-2.7009255,5.8998495-2.7009255,5.8998495C123.9491778,79.8730062,201.6755287,26.9083673,219.3407022,16.2193011ZM223.8086372,135.4478305c-1.4378685.9746418-2.8290571,2.021685-4.1675323,3.1383512-.572861.4776753-1.1336552.9706724-1.6846052,1.4761333-.5506325.505461-1.0914209,1.0233064-1.6239531,1.5509165,8.2458329-94.1924538,56.4939741-118.363125,65.8625067-122.1857181,8.1165899,6.0743434,48.4470866,41.5872821,32.1691322,134.9610908-6.0720412-10.3384111-15.5310757-18.3526703-26.8776301-22.5910957-12.464332-5.0081678-25.9935696-6.7778765-39.3260846-5.1441587-7.0456509.6880525-13.8028073,2.7846794-19.9045394,6.0909355-1.5255124.8266632-3.009267,1.7287447-4.4472943,2.7035453ZM72.2583133,198.3086121l-.0088914.0654948c-.0358832-.0046839-.0616048-.0378679-.0566828-.0740686-1.5472646-14.6120052-1.8745004-29.3274525-.9785318-43.9936795,8.9908063-68.7375292,65.7901052-121.150186,138.6187164-136.3082193-25.4526224,17.4834553-87.9292472,69.8241869-78.5864363,157.0311656-22.4406562-4.9904643-45.8615907,4.0903675-58.9881743,23.279307ZM88.4229021,219.9299087c6.1077656,3.0617422,12.7486985,5.1187547,19.7267112,6.0313947,8.6157792,1.127066,17.5606995.3863795,25.9091012-2.1420367,6.1684178,7.6595554,22.9684251,24.6183379,53.1099976,28.5902591l19.5693649,68.9047989h0c-9.847875,4.2957433-21.6010528,8.0170378-34.9254703,9.6829075-1.0531561.1315453-2.1186967.2457047-3.193605.3462094,1.0749083-.1005047,2.1404489-.2146641,3.193605-.3462094l-83.3897046-111.0673237ZM383.065911,367.2616541c10.4077165,78.743068.6255744,158.8396949-28.4290229,232.762982-34.2414666,85.2663484-74.1918554,99.1496547-162.1707993,126.5601345-80.9423432-51.0196423-114.4817056-74.7959158-124.750335-169.5831416-7.8401622-77.1284033,3.5390999-154.9980488,33.1227363-226.6573598,85.5007801,36.7374926,146.489681-22.5307612,146.489681-22.5307612,0,0,43.7074871,72.8511573,135.7377398,59.4481461ZM316.7448614,350.4947515c-.9945681-.3782026-1.9769104-.7667256-2.9455981-1.1664422-13.6753107-5.6429511-24.8877001-13.1914432-33.674639-20.5875905-1.4747044-1.2417017-2.89479-2.4792753-4.2332652-3.7020827-12.9744769-11.8589221-19.4998214-22.3704776-19.6281117-22.5818868l-.0009527-.0019053c-3.4547903-5.760286-11.3765629-6.7944685-16.1934859-2.1137747-.199898.1941027-10.5063159,10.0010137-28.2559579,18.6371161-.8145169.3961442-1.6453877.7891129-2.4915009,1.1785885.8461132-.3894756,1.676984-.7824443,2.4915009-1.1785885l-18.7430986-65.9969893c4.0433701.2812703,8.1820053.343669,12.386691.1432153,11.6607706,9.3614671,25.6603004,15.3332417,40.5073723,17.2754597,1.1226997.1467877,2.2493687.2706324,3.3074469.3609755,1.1198417.1944203,2.2404773.3647067,3.3633357.5115738,14.8488185,1.9423768,29.9135713-.2276043,43.5901522-6.2747972,4.2372346,1.3469697,8.482408,2.4033807,12.6820129,3.1839197l-33.0154042,56.8570931c1.3384752,1.2228075,2.7585609,2.460381,4.2332652,3.7020827l34.6433267-59.6612225c29.7686095,3.639684,50.121689-8.267347,57.9905895-14.0374771,7.4086111,4.5813799,15.84942,7.592711,24.4551964,8.7182686,8.1912142,1.0716534,16.3406706.5130822,24.0773113-1.5719542l-107.4917848,87.1399756c.9686877.3997166,1.9510301.7882396,2.9455981,1.1664422ZM451.3668877,204.0330943c-2.9176537,14.4050417-7.0405701,28.5392129-12.3269915,42.2531854-7.7496603-21.9196353-28.046057-36.7189159-51.0157523-37.6687093,31.4590894-81.8689554-15.4515293-148.5182728-35.5519973-171.9609595,66.4791897,33.3806666,107.8865,98.6391924,98.8947411,167.3764834Z"/>
  <path class="cls-1" d="M251.5933502,329.1896557c-2.2176137-2.4783226-5.3599343-3.7099421-8.4906643-3.5725221h0c-.9396318.0412816-1.8776759.2059315-2.7896808.4968871-.3042133.0970117-.6052512.2079956-.9024784.3332692-.5938194.2504679-1.1735077.5576186-1.7293798.9225635-2.2245998,1.4401707-4.4839713,2.8244526-6.7762094,4.1515754-3.4371662,1.9905651-6.9468927,3.852681-10.5213995,5.5823784-3.5746656,1.7297768-7.214429,3.327135-10.9116691,4.7885816-4.2056383,1.6585661-8.4728815,3.1114388-12.786487,4.358142s-8.6738909,2.2870778-13.0657726,3.1207272c-1.4640664.2778567-2.9314671.5327703-4.4020433.7645821-1.4704174.2318912-2.9436928.4406807-4.4196674.6265271-2.9514728.3716928-5.9129484.651296-8.8796636.838492-2.966874.187196-5.9389876.2820642-8.911895.2845252-.0398526.0000794-.0785937-.0023816-.1182875-.0023816-3.8026668-.0000794-7.6075565-.1561554-11.4041898-.459178-2.3886146-.1906891-4.7734186-.4497308-7.1540944-.7606127-.2737285-.0357244-.5461868-.0845478-.8197565-.1219394-1.3678486-.1869578-2.7352209-.382172-4.0989414-.6094587-1.6364963-.2727758-3.2699759-.5742106-4.8993273-.9033517-4.2810566-.8650075-8.5382969-1.909034-12.7506038-3.1709795-.6852739-.2014858-1.3764225-.3323166-2.0634429-.396303-.0111143-.001032-.0222285.0003176-.0333428-.0007145-.5042701-.0453303-1.0069525-.0572385-1.5045541-.0324695-1.0169554.0506493-2.0131112.2445932-2.9614756.5678596-.4741028.1617126-.9361388.3557359-1.3829323.5804822-1.7859038.8989854-3.3253885,2.2885862-4.4002968,4.0591682-.3578794.5901675-.6643156,1.2226487-.9108935,1.8935534-1.2528954,3.4612207-2.4641916,6.9355403-3.6326185,10.4220856-2.3370126,6.9729319-4.5047709,13.9946871-6.5037511,21.0590735-.9993313,3.5321932-1.9561109,7.0750243-2.8709737,10.6277789-2.7426834,10.6582638-5.1033535,21.4055211-7.0762945,32.2208136-.6582821,3.605071-1.272901,7.2177633-1.8456033,10.8372035-.5719084,3.6194402-1.1006299,7.2457871-1.5863233,10.8780881-1.4569215,10.8970617-2.5256376,21.8482658-3.2029728,32.8329715-.4515568,7.32319-.7289371,14.6611462-.8313471,22.0079143-.1014574,7.3466094-.0288971,14.7020308.2197449,22.0599926.6792404,23.502545,3.558153,46.8898191,8.598949,69.8557832,13.9399891,61.3641662,56.9374334,85.8734255,105.7573242,117.9249847,1.3734058.8846956,2.9097149,1.4319938,4.4888934,1.6347498.0200057.002858.0388999.0077006.0587468.0104792.0200057.002858.0408052.0023816.0616048.0050808,1.5782258.2102184,3.2031315.0764503,4.7575411-.4251207,55.3931854-18.4197528,103.2753498-31.0411136,132.5026945-86.7587562,10.7778215-20.8967259,19.5757159-42.756741,26.2771421-65.2939326,2.1350505-7.0459685,4.0991002-14.1348063,5.8910374-21.2604799,12.5457837-49.8790804,16.6806083-101.5566873,12.1828236-152.8960235-.132101-1.42342-.5339611-2.7604662-1.1523906-3.962871-.9269298-1.8036072-2.340982-3.3047477-4.0594064-4.3410736-1.7174717-1.0364847-3.7389979-1.6081549-5.8830987-1.5532187-12.0505638.3727249-24.0166592-.7779986-35.6307498-3.3686547-3.8722104-.8636579-7.7048857-1.8870436-11.4877056-3.0675375-1.892442-.5902469-3.7718644-1.2197113-5.6374734-1.8879963-13.061962-4.6779153-25.4645305-11.2591487-36.7812352-19.6110434-8.52623-6.3020271-16.4062447-13.4333373-23.5254086-21.2896946ZM88.4845069,465.1728621c.0403289.0380267.0841509.0758946.1247973.1139212-.0749419-.0664474-.1251149-.1117778-.1247973-.1139212ZM96.2213064,471.8484873c0,.001429-.0552538-.0447746-.135594-.1125716.0450922.0373916.0905019.0751801.135594.1125716ZM283.7326327,478.1821901c-1.8357592-3.2235342-2.4284672-7.1510777-1.3286311-10.9984397,2.1698223-7.5894561,10.0834974-11.9841957,17.6731123-9.8145322,7.5896149,2.1699017,11.9838782,10.0837356,9.8140559,17.6733505-1.6846052,5.8954831-6.8406721,9.8466048-12.613422,10.3068148-14.4221894,22.1496212-40.5481776,34.1649369-67.6207836,29.9074584l-1.8395698-.2903999c-15.5561621-2.4556177-30.7998546,1.0221949-43.3357943,8.7909877-14.0046106,8.6784954-24.629214,22.7131145-28.5184133,39.8410721-.1213043.5842135-.5628582,3.2137695-1.0979307,6.4681854,3.5343367,3.1269988,5.4564696,7.9270122,4.6670392,12.9335129-1.2292378,7.7970547-8.5492524,13.1226935-16.3455926,11.8933763-7.7974517-1.2295554-13.1237256-8.549173-11.8935351-16.3462277.7935586-5.0326985,4.1308552-9.0225613,8.4884415-10.897935l9.5408037-60.4966183v-.0000794l7.2076017-45.7094046c-1.2738537-1.1154754-2.3379653-2.4453767-3.1464488-3.9276229v-.0001588c-.7284608-1.3353791-1.2508313-2.7897602-1.5271002-4.3149551-.2073605-1.1438962-.2762689-2.3277243-.1903715-3.5307642.0287383-.4010662.0744656-.8041966.1382932-1.2088352.2307004-1.4620023.6754298-2.8370752,1.2971936-4.0983857.8291243-1.6817473,1.972941-3.1611355,3.3439652-4.3744164.6854327-.6066008,1.4278657-1.1467541,2.2158671-1.6122831.3940801-.2328439.7995921-.4469523,1.2151069-.6415313,1.2468619-.5835784,2.5845432-.9906781,3.9758906-1.1941485.4637825-.067797.9335984-.1129686,1.40786-.134562.9488408-.0431869,1.9160995.0080181,2.8906619.1617126.6116022.096456,1.2022461.2430055,1.7820932.4117836,6.8049477,1.9822294,11.2441444,8.7494679,10.1114419,15.9346823-.7935586,5.0326985-4.1308552,9.0226407-8.4893941,10.897935l-7.9784554,50.5910285-1.1943073,7.572229c1.8884726-1.8718012,3.8693524-3.6430977,5.9297786-5.3125399,16.8139795-13.6175959,39.0833173-20.3063995,61.8720088-16.7199846l1.8416339.2903999c20.5491669,3.2505259,40.3582824-5.6080206,51.7069009-22.0507042Z"/>
</svg>