<?xml version="1.0" encoding="UTF-8"?>
<svg id="Layer_10" data-name="Layer 10" xmlns="http://www.w3.org/2000/svg" viewBox="0 0 475 1000">
  <defs>
    <style>
      .cls-1, .cls-2 {
        fill: none;
      }

      .cls-1, .cls-2, .cls-3, .cls-4, .cls-5, .cls-6, .cls-7, .cls-8, .cls-9, .cls-10, .cls-11, .cls-12, .cls-13 {
        stroke-width: 0px;
      }

      .cls-2 {
        stroke: #fff;
        stroke-linecap: round;
        stroke-linejoin: round;
      }

      .cls-3 {
        opacity: .15;
      }

      .cls-3, .cls-10 {
        fill: #fff;
      }

      .cls-4 {
        fill: #f9c37a;
      }

      .cls-5 {
        fill: #a2c9d2;
      }

      .cls-6 {
        fill: #0c3455;
      }

      .cls-7 {
        fill: #e0f8ff;
      }

      .cls-8 {
        fill: #b7deeb;
      }

      .cls-9 {
        fill: #fde6ad;
      }

      .cls-11 {
        fill: #fff4d0;
      }

      .cls-12 {
        fill: #04335f;
      }

      .cls-13 {
        fill: #6897b8;
      }
    </style>
  </defs>
  <rect class="cls-12" x="109.1517972" y="772.927379" width="28.692354" height="29.4613748"/>
  <g>
    <path class="cls-1" d="M46.925791,843.8903303h-2.8858658c-6.0369487,0-9.0510752,3.0744525-9.0510752,9.2228141v60.4597041c0,6.320644,3.098909,9.478792,9.298901,9.478792h17.3445427v-77.6238122l-11.8119412-1.2809766c-.8413033-.1679346-1.8054324-.2565214-2.8945615-.2565214Z"/>
    <path class="cls-12" d="M61.6322937,825.1892676l-21.6749718-4.0989077c-1.7021717-.3407604-3.486952-.5967384-5.3565148-.7690207-1.8695628-.1679346-3.6543431-.2559779-5.3554278-.2559779-7.1412951,0-12.7499834,2.0494539-16.828239,6.1483616-4.0836903,4.0989077-6.1206442,9.8233568-6.1206442,17.1646516v77.3678343c0,7.6858596,2.2934753,13.8342212,6.8847737,18.4456282,4.5869506,4.6108636,10.9641162,6.9168388,19.1260621,6.9168388h29.3249619v26.1309443h-25.3619236v-15.1151978H8.6019278v20.2385607c0,10.4157473,5.3804278,15.6276971,16.1401964,15.6276971h49.5195009c10.7075948,0,16.0641096-5.2119498,16.0641096-15.6276971v-156.7851224h-28.693441v4.6114071ZM61.6322937,923.0516405h-17.3445427c-6.1999919,0-9.298901-3.1581481-9.298901-9.478792v-60.4597041c0-6.1483616,3.0141265-9.2228141,9.0510752-9.2228141h2.8858658c1.089129,0,2.0532582.0885868,2.8945615.2565214l11.8119412,1.2809766v77.6238122Z"/>
    <rect class="cls-12" x="109.4083186" y="820.5778606" width="28.1803982" height="126.2992925"/>
    <path class="cls-12" d="M195.9223366,844.9153289h18.4445413v-24.3374684h-18.4445413v-34.3287598h-28.693441v34.3287598h-13.5771563v24.3374684h13.5771563v86.3346705c0,10.4195517,5.3402105,15.6271536,16.02824,15.6271536h31.8782195v-24.3374684h-19.2130185v-77.6243557Z"/>
    <path class="cls-12" d="M270.4961528,844.9153289h18.4445413v-24.3374684h-18.4445413v-34.3287598h-28.693441v34.3287598h-13.5771563v24.3374684h13.5771563v86.3346705c0,10.4195517,5.3402105,15.6271536,16.02824,15.6271536h31.8782195v-24.3374684h-19.2130185v-77.6243557Z"/>
    <path class="cls-12" d="M361.5427736,922.5396846l-26.6434437.5119559v-102.4737799h-28.692354v111.4406161c0,10.4195517,5.1836889,15.6271536,15.5543276,15.6271536,1.3619548,0,2.8902136-.0880434,4.5923853-.2559779,1.6967369-.1722824,3.3978217-.4282603,5.0989064-.7684773l30.0901783-4.0989077v4.3548856h28.692354v-126.2992925h-28.692354v101.9618241Z"/>
    <path class="cls-12" d="M468.703504,776.001288v-24.8499677h-33.6716954c-10.6880296,0-16.02824,5.2119498-16.02824,15.6276971v53.7988432h-13.0652004v24.3374684h13.0652004v101.9618241h28.693441v-101.9618241h18.1891068v-24.3374684h-18.1891068v-44.5765725h21.0064945Z"/>
  </g>
  <g>
    <path class="cls-1" d="M213.3726478,352.0402691c.0377886-.0151652.0745828-.0328165.111377-.0479816-6.9153214,2.7310995-13.9907474,4.9130206-21.158656,6.6029436l.0278443.0366699c7.1201756-1.6934035,14.1498574-3.8699795,21.0194347-6.5916319Z"/>
    <path class="cls-1" d="M186.9613706,252.4095209c-30.1414139-3.9719094-46.9414485-20.9306811-53.109947-28.590215-8.3483065,2.5283585-17.2932758,3.2690904-25.9090861,2.1420193-6.977971-.9126454-13.6188276-2.9696403-19.7266654-6.0313904l83.3895878,111.0672817c13.3244739-1.6658079,25.0777359-5.3871189,34.9256548-9.6828422l-19.5695442-68.9048534Z"/>
    <path class="cls-1" d="M268.4684873,359.2472094c5.8920448,4.3617291,12.0724766,8.2456308,18.4637292,11.6933471l.183971-.1491657c-6.3614195-3.4369018-12.5150015-7.3065085-18.3821853-11.6495918-1.5095568-1.127444-2.9713806-2.3134356-4.4431487-3.4878668l-.1252992.2156687c1.426024,1.1357724,2.8411092,2.2858399,4.302933,3.3776085Z"/>
    <path class="cls-1" d="M259.8437271,352.3195818l.1292769-.2233756c-5.7458624-4.8903972-11.2043323-10.1128123-16.2819324-15.7036667-.0765717.0489761-.1561268.092607-.231704.1415831,5.1084277,5.6214334,10.599714,10.8728115,16.3843595,15.7854592Z"/>
    <path class="cls-1" d="M421.0838834,262.1883263c-7.7367272,2.0850877-15.8861461,2.643589-24.0773314,1.5719578-8.6058659-1.1255794-17.0466551-4.1368618-24.4552178-8.7182374-7.8689874,5.7701018-28.2221487,17.6771288-57.9906484,14.0374859l-34.6432345,59.6611798c8.7868536,7.3961322,19.9991414,14.944662,33.6746519,20.5876l107.4917801-87.1399862Z"/>
    <path class="cls-1" d="M292.4742192,373.5544367l-.1809877.146431c22.3917591,10.9671588,47.2407743,16.4051184,72.4408261,15.5945271,5.0099783,57.2673191-.9775325,114.9641111-17.6393402,169.9825088-.199882.6743532-.4047362,1.3760535-.6324625,2.0468019-.0308276-.0022375-.0626496-.0050965-.0934772-.007334-6.4051748,21.1424964-14.7117149,41.6613559-24.8201765,61.3047371-1.337519,2.5148092-2.71581,4.9122748-4.1139898,7.2510685-26.0244409,22.2335191-59.7617424,30.8211123-92.9819361,27.7366144-2.7913873-.365083-5.6016689-.7326522-8.4298504-1.1025831-15.9239347-2.4546457-31.3526393-7.4431194-45.6993955-14.7759804l-.3858419-.0504677c-2.9137032-1.5018499-5.7846455-3.1103533-8.6187936-4.7977901l-.3639643-.215793-.9576437-.601635c-7.8988205-4.8129553-15.2755612-10.3661454-22.0456947-16.5612451,6.8616218,6.3047365,14.3497395,11.9484204,22.3748536,16.8282517l.9576437.601635.3639643.215793c2.8331537,1.6875612,5.7050905,3.2959402,8.6187936,4.7979144l.3858419.0504677c14.3467561,7.3327368,29.7754608,12.3212104,45.7003899,14.7758561,2.8321592.482551,5.6414464.8501201,8.428856,1.1027074,33.1585386,3.0830062,66.6054643-5.4273937,92.5732222-27.4072068l.4206472-.6361917c1.3981797-2.3386694,2.7625486-4.626001,4.1149842-7.2510685,10.1174116-19.6615297,18.4309128-40.2000294,24.8380764-61.3631604.2277263-.6707484.5419687-1.3581536.6314681-2.0468019,16.6618077-55.0183977,22.6493185-112.7151897,17.6403346-169.9825088-25.2318738.8115857-50.112711-4.6404203-72.5263477-15.6355477Z"/>
    <path class="cls-1" d="M96.4734848,494.7212301l3.8126751,28.2655311.056683-.0706051-3.7937807-28.1290444c-.224743-1.8957716-.4037418-3.7956453-.5389854-5.6982537-.2694927-3.8050925-.3599865-7.6209994-.2704871-11.4347932.0437553-1.9068347.1332547-3.8131723.2684982-5.7173966,0-.0095715.0009944-.0195158.0019889-.0293359.0009944-.0197645.0029833-.0396532.0039778-.0587961-2.6541549-2.2013127-5.3610149-4.4358147-7.7367272-6.6756619-.0029833.0299574-.0049722.0601635-.0079555.0901209,2.4741616,2.2304,5.0378226,4.4295995,7.6631388,6.6077915-.5379909,7.6168974-.3570032,15.2674814.5409742,22.8504436Z"/>
    <path class="cls-1" d="M256.0549185,302.4548588l.0009944.0018646c.1282825.2114424,6.6537842,10.7230243,19.628216,22.5819453l33.0153396-56.8571135c-4.1995114-.7805095-8.444767-1.8369755-12.682067-3.1839417-13.676505,6.0471771-28.7412453,8.217165-43.5901926,6.2747791-1.1227204-.1468039-2.243452-.3171014-3.3631891-.511514-1.058082-.0903695-2.1847802-.2141771-3.3075006-.360981-14.8469584-1.9422616-28.8466557-7.9139857-40.507435-17.2755002-4.2044836.2005035-8.3433343.1381026-12.386719-.1431991l18.7431663,65.9969925c17.7497228-8.636072,28.0560776-18.4429703,28.2559596-18.6371343,4.8170574-4.6806951,12.73875-3.6464796,16.1934274,2.1138021Z"/>
    <path class="cls-1" d="M186.4184074,359.9215627l-.0357998-.0478573c-24.29213,4.7194782-49.5070983,3.5521323-73.4720582-3.6589101-.0198888.053451-.0387831.1097611-.0586718.1632121,24.0027485,7.1855599,49.2515278,8.3181004,73.5665298,3.5435553Z"/>
    <path class="cls-12" d="M346.1539791,26.6084648c-19.9832304-8.8962418-41.1120533-14.8455911-62.8007447-17.6827225-21.6906803-2.8372557-43.6409089-2.5228891-65.2391065.9350203-82.3006782,13.2078761-143.9836747,70.9205791-153.4924903,143.6106362l-.0308276.2487338-.0129277.1940397c-.8393056,13.7529524-.5807518,27.6568107.6861622,41.3897501.6105849,4.9227164,2.4721727,7.9362363,3.3840723,9.1203633l.0009944.0002486c1.5722064,1.8770016,3.244851,3.6410102,5.0010284,5.2996084l91.5111624,121.8842804c2.1817968-.1547594,4.3377383-.3480533,6.4439578-.6112064l-83.3895878-111.0672817c6.1078378,3.0617501,12.7486944,5.118745,19.7266654,6.0313904,8.6158103,1.1270711,17.5607796.3863391,25.9090861-2.1420193,6.1684985,7.6595339,22.9685331,24.6183056,53.109947,28.590215l19.5695442,68.9048534c1.7512052-.7642256,3.4457275-1.5438649,5.0746168-2.3361833l-18.7431663-65.9969925c4.0433847.2813016,8.1822354.3437026,12.386719.1431991,11.6607793,9.3615145,25.6604766,15.3332386,40.507435,17.2755002,1.1227204.1468039,2.2494186.2706114,3.3075006.360981,1.1197371.1944126,2.2404687.3647101,3.3631891.511514,14.8489473,1.9423859,29.9136876-.227602,43.5901926-6.2747791,4.2373001,1.3469662,8.4825556,2.4034322,12.682067,3.1839417l-33.0153396,56.8571135c1.3385135,1.2227858,2.7585708,2.4603638,4.2333223,3.7020438l34.6432345-59.6611798c29.7684997,3.6396429,50.121661-8.2673841,57.9906484-14.0374859,7.4085626,4.5813756,15.8493519,7.592658,24.4552178,8.7182374,8.1911853,1.0716312,16.3406042.51313,24.0773314-1.5719578l-107.4917801,87.1399862c1.9371651.7994038,3.9290243,1.5541822,5.9646388,2.2709233l113.4574133-91.975565c6.6269344-6.1074649,13.1255864-14.7701381,13.3274573-15.0397551,4.686786-12.7611248,8.4318393-25.9493608,11.1317383-39.2763208l.0467386-.2483609.0248609-.1906835c9.5078211-72.6900571-35.2558082-144.3268801-111.3909713-178.2600859ZM451.1596644,204.0330985c-2.9176809,14.4050551-7.0406206,28.5392501-12.3270527,42.2531708-7.7496549-21.9196497-28.0461332-36.7188751-51.0156607-37.6686876,31.4590442-81.8689679-15.4515767-148.5183117-35.5521507-171.9609431,66.4791706,33.3806712,107.886572,98.6391693,98.8948641,167.3764599ZM71.0069236,154.3063536c8.9907134-68.7375392,65.7900252-121.1501366,138.618682-136.3082298-25.452639,17.483462-87.929197,69.8242113-78.5864525,157.0311977-22.4404865-4.9904625-45.8614889,4.0903719-58.9880697,23.2792949l-.0089499.0655086c-.0357998-.0047236-.0616552-.0379129-.056683-.0740856-1.5473454-14.6120225-1.8745155-29.3274665-.9785269-43.9936858ZM383.9018488,208.5682327s-5.3928369-60.7039723-66.954512-48.7570435c1.9809204-10.3656482,3.2876118-20.0578132,4.0294625-29.1115491,7.170892-87.5197372-38.4598873-115.3898548-38.4598873-115.3898548,0,0-51.2632757,15.1955089-66.8451238,101.6151491-1.6119839,8.9399971-2.8421036,18.6421065-3.5938987,29.1684807-7.9336259-3.8502151-15.1641841-6.0264182-21.7304578-6.9231526-.7299174-.0996924-1.450885-.1834738-2.1648914-.25209-18.547262-1.7834001-31.6012488,6.7444024-40.1524207,16.0675067-2.6312828,2.8687048-4.8359517,5.8126141-6.6428454,8.5546524-.4514748.6855407-.8790831,1.3584022-1.2818305,2.0143583-.6036238.983872-1.1525536,1.9297068-1.6477837,2.8227121-.3301534.5954197-.6374347,1.1673458-.9208495,1.7114277-1.8416991,3.5368428-2.7008934,5.899876-2.7008934,5.899876C123.7419675,79.8730468,201.4682312,26.9084121,219.1334267,16.219323c20.9677239-3.4167645,42.326262-3.722927,63.3834853-.9095378,21.0731344,2.6976615,41.6341332,8.4870306,61.0177175,17.1821473,14.3209008,14.8729381,75.8089874,86.047969,40.3672192,176.0763002ZM281.9878711,19.4275041c8.1166025,6.0743998,48.4470275,41.5872703,32.1690729,134.9611393-6.0720381-10.3384254-15.5311317-18.3527251-26.8776686-22.5911439-12.4642851-5.0081138-25.9936133-6.7778404-39.3260427-5.1441032-7.0455928.6880267-13.8027986,2.7846748-19.9046698,6.0909324-1.5254678.8266265-3.0091692,1.7287061-4.4471265,2.7035038-1.4379573.9746735-2.8291759,2.0216923-4.1676894,3.1383218-1.1455925.9554062-2.243452,1.9720947-3.308495,3.0271934v-.0001243c8.2458794-94.1924157,56.4940193-118.3631,65.8626191-122.1857194Z"/>
    <path class="cls-12" d="M192.3532131,358.631901l-.0278443-.0366699c-1.9739593.4655213-3.9548797.8922594-5.9427611,1.2784743l.0357998.0478573c1.9848981-.3898197,3.9628352-.8206599,5.9348056-1.2896617Z"/>
    <path class="cls-12" d="M264.1655544,355.869601l.1252992-.2156687c-1.4588405-1.1636167-2.8977922-2.3488624-4.3178495-3.557726l-.1292769.2233756c1.4200574,1.2071234,2.8619924,2.3881427,4.3218273,3.5500191Z"/>
    <path class="cls-12" d="M292.2932315,373.7008677l.1809877-.146431c-1.802916-.8844282-3.5879321-1.8067694-5.3580316-2.7630458l-.183971.1491657c1.771094.9554062,3.5571045,1.876753,5.3610149,2.7603111Z"/>
    <path class="cls-8" d="M352.2648002,36.6566386c20.1005741,23.4426314,67.0111949,90.0919752,35.5521507,171.9609431,22.9695275.9498125,43.2660058,15.7490379,51.0156607,37.6686876,5.2864321-13.7139207,9.4093718-27.8481157,12.3270527-42.2531708,8.9917078-68.7372906-32.4156935-133.9957887-98.8948641-167.3764599Z"/>
    <path class="cls-8" d="M72.0421335,198.3741251l.0089499-.0655086c13.1265808-19.1889231,36.5475831-28.2697574,58.9880697-23.2792949-9.3427444-87.2069864,53.1338135-139.5477357,78.5864525-157.0311977-72.8286569,15.1580932-129.6279686,67.5706906-138.618682,136.3082298-.8959886,14.6662193-.5688185,29.3816633.9785269,43.9936858-.0049722.0361727.0208832.069362.056683.0740856ZM161.4460819,47.6732707c-48.0969853,47.0439999-46.0156267,106.3476793-46.0156267,106.3476793-12.0187769-3.1255184-25.2796068,7.2030869-25.2796068,7.2030869,2.4622283-82.1627,71.2952336-113.5507662,71.2952336-113.5507662Z"/>
    <path class="cls-8" d="M223.6014364,135.4478326c-1.4379573.9746735-2.8291759,2.0216923-4.1676894,3.1383218,1.3385135-1.1166295,2.7297321-2.1636483,4.1676894-3.1383218Z"/>
    <path class="cls-8" d="M216.125252,141.6133478c1.065043-1.0550987,2.1629025-2.0717871,3.308495-3.0271934-1.1455925.9554062-2.243452,1.9719704-3.308495,3.0270691v.0001243Z"/>
    <path class="cls-8" d="M228.0485629,132.7443287c-1.5244734.8266265-3.0091692,1.7287061-4.4471265,2.7035038,1.4379573-.9747978,2.9216587-1.8768773,4.4471265-2.7035038Z"/>
    <path class="cls-7" d="M216.125252,141.6132235c1.065043-1.0550987,2.1629025-2.0716628,3.308495-3.0270691,1.3385135-1.1166295,2.7297321-2.1636483,4.1676894-3.1383218,1.4379573-.9747978,2.9226531-1.8768773,4.4471265-2.7035038,6.1018712-3.3062575,12.859077-5.4029056,19.9046698-6.0909324,13.3324294-1.6337372,26.8617576.1359894,39.3260427,5.1441032,11.3465369,4.2384188,20.8056306,12.2527185,26.8776686,22.5911439,16.2779546-93.373869-24.0524704-128.8867395-32.1690729-134.9611393-9.3685998,3.8226194-57.6167397,27.9933037-65.8626191,122.1857194Z"/>
    <path class="cls-7" d="M115.4304552,154.02095s-2.0813586-59.3036794,46.0156267-106.3476793c0,0-68.8330052,31.3880662-71.2952336,113.5507662,0,0,13.2608299-10.3286053,25.2796068-7.2030869Z"/>
    <path class="cls-11" d="M219.1334267,16.219323c-17.6651955,10.6890891-95.3914593,63.6537239-84.2975096,159.7693826,0,0,.8591944-2.3630332,2.7008934-5.899876.2834148-.5440819.5906961-1.116008.9208495-1.7114277.4952301-.8930053,1.0441598-1.8388401,1.6477837-2.8227121.4027474-.6559561.8303557-1.3288177,1.2818305-2.0143583,1.8068937-2.7420383,4.0115626-5.6859475,6.6428454-8.5546524,8.5511718-9.3231043,21.6051587-17.8509068,40.1524207-16.0675067.7140064.0686162,1.4349739.1523976,2.1648914.25209,6.5662737.8967344,13.796832,3.0729375,21.7304578,6.9231526.7517951-10.5263742,1.9819148-20.2284836,3.5938987-29.1684807,15.5818481-86.4196402,66.8451238-101.6151491,66.8451238-101.6151491-21.0572234-2.8133892-42.4157614-2.5072267-63.3834853.9095378ZM195.8357347,117.3026964c-26.478899-11.3450452-38.9541229,4.8573321-38.9541229,4.8573321,20.7260755-83.7648638,85.5932623-100.1350525,85.5932623-100.1350525-46.5894174,39.4739654-46.6391393,95.2777204-46.6391393,95.2777204Z"/>
    <path class="cls-11" d="M343.5346296,32.4919325c-19.3835843-8.6951167-39.9445831-14.4844858-61.0177175-17.1821473,0,0,45.6307793,27.8701177,38.4598873,115.3898548-.7418507,9.0537359-2.0485422,18.745901-4.0294625,29.1115491,61.561675-11.9469288,66.954512,48.7570435,66.954512,48.7570435,35.4417681-90.0283312-26.0463185-161.2033621-40.3672192-176.0763002Z"/>
    <path class="cls-10" d="M156.8816118,122.1600285s12.4752239-16.2023773,38.9541229-4.8573321c0,0,.0497219-55.8037551,46.6391393-95.2777204,0,0-64.8671867,16.3701887-85.5932623,100.1350525Z"/>
    <path class="cls-6" d="M279.9174513,328.7407125c-1.4747515-1.2416801-2.8948088-2.4792581-4.2333223-3.7020438-12.9744318-11.858921-19.4999335-22.370503-19.628216-22.5819453l-.0009944-.0018646c-3.4546774-5.7602818-11.37637-6.7944972-16.1934274-2.1138021-.199882.194164-10.5062368,10.0010624-28.2559596,18.6371343-1.6288893.7923184-3.3234116,1.5719578-5.0746168,2.3361833-9.8479189,4.2957233-21.6011809,8.0170344-34.9256548,9.6828422-2.1062196.2631531-4.262161.456447-6.4439578.6112064-7.6472277.5424659-15.7399637.4059793-24.2463858-.7066725-12.0167881-1.5719578-24.1867195-4.9806424-36.1696967-10.1298421l-.0009944-.0003729c-5.3391373-2.2947898-11.5235468.2232513-13.7411434,5.5949565l-.0009944.0011187c-30.1374362,72.9983329-41.8459485,153.1163441-33.8516619,231.7564963,10.6912023,98.6885183,45.3065925,124.1707418,129.5523913,177.274225l.0009944.0003729c2.579572,1.6255331,5.7418847,2.0392193,8.6526045,1.131919l.0009944-.0002486c85.1109599-26.5149474,131.992742-41.1203817,168.7690459-132.6941937,29.6233118-75.3723048,39.6731016-157.6528457,29.0614543-237.940533v-.0011187c-.7617395-5.7571741-6.0839713-9.7802971-11.8298337-8.9424832h0c-12.8680269,1.8740183-25.4745167,2.0280319-37.4694271.4617921l-.0139221-.0017403c-8.7709426-1.1473328-16.8676563-3.189784-24.3179854-5.8128627-2.0356145-.7167411-4.0274737-1.4715195-5.9646388-2.2709233-13.6755105-5.6429381-24.8877983-13.1914679-33.6746519-20.5876ZM382.8586834,367.2616334c10.4077875,78.7430765.6255015,158.8397074-28.4289918,232.7629918-34.2414815,85.2663408-74.1920313,99.1496889-162.1709502,126.5601276-80.942276-51.0196384-114.4816844-74.7959037-124.7502505-169.5831177-7.8401487-77.1283579,3.5392046-154.9980693,33.1227389-226.6573915,85.5007795,36.7375208,146.4896583-22.5307318,146.4896583-22.5307318,0,0,43.7075363,72.851156,135.7377953,59.4481215Z"/>
    <path class="cls-6" d="M74.7470047,503.4149795c.1024271-7.3467832.3798753-14.6847407.8313501-22.007906-.4514748,7.3231653-.728923,14.6611228-.8313501,22.007906Z"/>
    <path class="cls-6" d="M239.2031732,326.44729c1.1893478-.5009481,2.4393563-.7750401,3.6923481-.8301071-1.2529918.055067-2.5030003.329159-3.6923481.8301071Z"/>
    <path class="cls-6" d="M75.5783548,481.4070735c.9029496-14.6462063,2.5020059-29.2331192,4.7892131-43.7110168-2.2872073,14.4778976-3.8862635,29.0648106-4.7892131,43.7110168Z"/>
    <path class="cls-6" d="M83.5766191,595.2480912c-5.038817-22.9384513-7.9216926-46.2979228-8.6098437-69.773122.6792011,23.5025462,3.5580989,46.889862,8.5989049,69.8557847,13.940031,61.3641548,56.9375386,85.8734452,105.7574803,117.9250501,1.3733188.8846769,2.9097254,1.4319906,4.4888929,1.6347317-1.5821508-.2287207-3.1155741-.8049975-4.477954-1.7173943-48.8239195-32.0240092-91.8174493-56.5608953-105.7574803-117.9250501Z"/>
    <path class="cls-6" d="M107.6082064,346.5763298c-1.7860105.8989719-3.3254005,2.2885746-4.4003879,4.0591714,1.0749874-1.7705967,2.6143773-3.1601995,4.4003879-4.0591714Z"/>
    <path class="cls-6" d="M145.276521,351.4238419c3.7967641.303055,7.6014836.4590574,11.4042143.4591817-3.8027307,0-7.6074502-.1561268-11.4042143-.4591817Z"/>
    <path class="cls-6" d="M174.5905626,350.7624163c-5.9029836.7433424-11.8457447,1.1181212-17.7914892,1.122969,5.9457444-.0047236,11.8885056-.3796267,17.7914892-1.122969Z"/>
    <path class="cls-6" d="M107.6082064,346.5763298c1.787005-.8988476,3.8196361-1.3071887,5.8821004-1.1151378-2.0624643-.1921751-4.0950954.2162903-5.8821004,1.1151378Z"/>
    <path class="cls-6" d="M82.2132447,426.8587963c1.9729649-10.8152584,4.3337605-21.5625221,7.0764204-32.2207837-2.7426598,10.6582615-5.1034555,21.4055252-7.0764204,32.2207837Z"/>
    <path class="cls-6" d="M128.3044487,349.0284895c3.2587731.6583179,6.5334573,1.205756,9.8180858,1.6347317-3.2856229-.4289757-6.5593126-.9764138-9.8180858-1.6347317Z"/>
    <path class="cls-6" d="M92.1606074,384.0102058c1.9988203-7.0643628,4.166695-14.0860891,6.5036241-21.0590879-2.3369292,6.9729988-4.5048039,13.9947251-6.5036241,21.0590879Z"/>
    <path class="cls-6" d="M193.9323805,714.9060737c-.0208832-.0027347-.0417664-.0022375-.0616552-.0050965.0198888.0024861.040772.0027347.0616552.0050965Z"/>
    <path class="cls-6" d="M209.2646246,341.8924028c-11.2152711,4.4227627-22.8671004,7.3833288-34.674062,8.8700135,11.8069616-1.4865604,23.458791-4.4472508,34.674062-8.8700135Z"/>
    <path class="cls-6" d="M230.6977455,331.5214096c-6.8745495,3.9812323-14.0384804,7.4482159-21.4331209,10.3709933,7.3946405-2.9227774,14.5585714-6.389761,21.4331209-10.3709933Z"/>
    <path class="cls-5" d="M247.1208881,307.8135119s-60.9888788,59.2682525-146.4896583,22.5307318c-29.5835342,71.6593222-40.9628876,149.5290336-33.1227389,226.6573915,10.2685662,94.7872139,43.8079745,118.5634792,124.7502505,169.5831177,87.9789189-27.4104387,127.9294686-41.2937868,162.1709502-126.5601276,29.0544933-73.9232844,38.8367793-154.0199153,28.4289918-232.7629918-92.030259,13.4030345-135.7377953-59.4481215-135.7377953-59.4481215ZM311.6927268,370.0904364c1.8655656.6682623,3.7450533,1.2977415,5.6374687,1.8879404,3.7828419,1.1805221,7.6154057,2.2039231,11.4877471,3.0675924,11.6140407,2.5906351,23.5801124,3.7413241,35.6307113,3.3686585,2.1440082-.0549427,4.1657005.5167348,5.8830948,1.5531878,1.7183888,1.0363286,3.1324795,2.5374327,4.0592957,4.3410945.6185404,1.2023998,1.0202933,2.5394216,1.1525536,3.9628352,4.4978428,51.3393502.3629698,103.0169337-12.1828592,152.8960761-1.7919772,7.1256451-3.7559921,14.2144959-5.8910503,21.2604616-6.7015173,22.5371956-15.4993097,44.397179-26.2770281,65.2939249-29.2275255,55.7176119-77.1097122,68.3390182-132.5028887,86.7587435-1.5543065.5015696-3.1792181.6353215-4.7573911.4251222-.0208832-.0023618-.0417664-.0026104-.0616552-.0050965-.0198888-.0027347-.0387831-.0075826-.0586718-.0104416-1.5791674-.202741-3.1155741-.7500548-4.4888929-1.6347317-48.8199417-32.0516049-91.8174493-56.5608953-105.7574803-117.9250501-5.0408059-22.9659227-7.9197037-46.3532384-8.5989049-69.8557847-.2486095-7.3579706-.3212035-14.7133308-.2197708-22.0599897.1024271-7.3467832.3798753-14.6847407.8313501-22.007906.9029496-14.6462063,2.5020059-29.2331192,4.7892131-43.7110168.5727963-3.6195055,1.1873589-7.2321742,1.8456768-10.8372604,1.9729649-10.8152584,4.3337605-21.5625221,7.0764204-32.2207837.9148829-3.5527538,1.8715322-7.0955633,2.8709423-10.6278069,1.9988203-7.0643628,4.166695-14.0860891,6.5036241-21.0590879,1.1684646-3.4864994,2.37969-6.960817,3.6326818-10.4220825.2466206-.6708727.5529075-1.3033352.9109052-1.8935341,1.0749874-1.7705967,2.6143773-3.1601995,4.4003879-4.0591714,1.787005-.8988476,3.8196361-1.307313,5.8821004-1.1151378.6871566.0640169,1.378291.1947855,2.0634587.3962835,4.2124391,1.2619417,8.4696279,2.3059773,12.7506833,3.171014,3.2587731.6583179,6.5324628,1.205756,9.8180858,1.6347317,2.3806844.3108862,4.7653466.5699372,7.1539865.7606207,3.7967641.303055,7.6014836.4591817,11.4042143.4591817.0397775,0,.0785606.0024861.1183381.0023618,5.9457444-.0048479,11.8885056-.3796267,17.7914892-1.122969,11.8069616-1.4866847,23.458791-4.4472508,34.674062-8.8700135,7.3946405-2.9227774,14.5585714-6.389761,21.4331209-10.3709933,2.2921794-1.3270774,4.5515424-2.711335,6.7761001-4.1515298.5558908-.3649587,1.1356481-.6721157,1.7293276-.9225898,1.1893478-.5009481,2.4393563-.7750401,3.6923481-.8301071,3.1304906-.137481,6.2729145,1.0941303,8.4905111,3.5725183,7.1191812,7.8563083,14.9991074,14.9876714,23.5254183,21.2896732,11.3167037,8.3519113,23.7193337,14.9331016,36.781276,19.611062Z"/>
    <path class="cls-13" d="M274.9114507,350.4793744c-8.5263109-6.3020018-16.4062371-13.4333649-23.5254183-21.2896732-2.2175966-2.478388-5.3600205-3.7099993-8.4905111-3.5725183-1.2529918.055067-2.5030003.329159-3.6923481.8301071-.5936794.2504741-1.1734368.5576311-1.7293276.9225898-2.2245577,1.4401947-4.4839207,2.8244524-6.7761001,4.1515298-6.8745495,3.9812323-14.0384804,7.4482159-21.4331209,10.3709933-11.2152711,4.4227627-22.8671004,7.3834531-34.674062,8.8700135-5.9029836.7433424-11.8457447,1.1182455-17.7914892,1.122969-.0397775.0001243-.0785606-.0023618-.1183381-.0023618-3.8027307-.0001243-7.6074502-.1561268-11.4042143-.4591817-2.3886399-.1906835-4.7733021-.4497346-7.1539865-.7606207-3.2846285-.4289757-6.5593126-.9764138-9.8180858-1.6347317-4.2810553-.8650367-8.5382441-1.9090722-12.7506833-3.171014-.6851677-.201498-1.3763021-.3322666-2.0634587-.3962835-2.0624643-.1920508-4.0950954.2162903-5.8821004,1.1151378-1.7860105.8989719-3.3254005,2.2885746-4.4003879,4.0591714-.3579977.5901989-.6642845,1.2226614-.9109052,1.8935341-1.2529918,3.4612656-2.4642172,6.9355831-3.6326818,10.4220825-2.3369292,6.9729988-4.5048039,13.9947251-6.5036241,21.0590879-.9994101,3.5322436-1.9560594,7.075053-2.8709423,10.6278069-2.7426598,10.6582615-5.1034555,21.4055252-7.0764204,32.2207837-.6583179,3.6050861-1.2728806,7.2177549-1.8456768,10.8372604-2.2872073,14.4778976-3.8862635,29.0648106-4.7892131,43.7110168-.4514748,7.3231653-.728923,14.6611228-.8313501,22.007906-.1014327,7.3466589-.0288387,14.7020191.2197708,22.0599897.6881511,23.4751992,3.5710266,46.8346707,8.6098437,69.773122,13.940031,61.3641548,56.9335609,85.9010408,105.7574803,117.9250501,1.36238.9123968,2.8958033,1.4886736,4.477954,1.7173943.0198888.002859.0387831.0077069.0586718.0104416.0198888.002859.040772.0023618.0616552.0050965,1.578173.2101993,3.2030846.0764474,4.7573911-.4251222,55.3931765-18.4197253,103.2753633-31.0411316,132.5028887-86.7587435,10.7777184-20.8967459,19.5755108-42.7567293,26.2770281-65.2939249,2.1350583-7.0459657,4.0990732-14.1348166,5.8910503-21.2604616,12.545829-49.8791424,16.680702-101.5567259,12.1828592-152.8960761-.1322602-1.4234136-.5340132-2.7604354-1.1525536-3.9628352-.9268162-1.8036618-2.3409069-3.3047659-4.0592957-4.3410945-1.7173943-1.0364529-3.7390866-1.6081305-5.8830948-1.5531878-12.0505989.3726656-24.0166707-.7780234-35.6307113-3.3686585-3.8723413-.8636693-7.7049051-1.8870703-11.4877471-3.0675924-1.8924154-.5901989-3.7719031-1.2196781-5.6374687-1.8879404-13.0619423-4.6779604-25.4645723-11.2591506-36.781276-19.611062ZM364.5858863,384.0083412c2.8619924-.0765717,5.2844432,2.0983884,5.5161472,4.9525495,5.0885389,57.9558431-.9616215,116.350109-17.8243056,172.0317968-6.61699,22.2023186-15.2874944,43.7401041-25.8991417,64.3345409-28.3046871,54.017123-75.5295503,66.1082453-129.397259,83.9990539-1.5533121.595544-3.2975562.4194042-4.7007081-.4748441-47.4804338-31.1479094-89.9200617-54.9958985-103.4195568-114.5931857-4.9841229-22.6263221-7.8232433-45.6721727-8.4795723-68.8316379-1.9689871-58.1440405,7.1947585-116.1283493,26.9970012-170.8318831.1272881-.3316451.2844093-.6445201.4663914-.9366362.544952-.876597,1.3136525-1.5666127,2.2036745-2.0179632,1.1873589-.6018836,2.588522-.779515,3.9618407-.408714,3.9936628,1.2002866,8.0231253,2.2279139,12.0774488,3.0835034,12.1649593,2.5666443,24.555656,3.5844516,36.8827087,3.0656036,4.1080231-.1729079,8.2100796-.5167348,12.2942362-1.0307349,4.0831622-.5140001,8.1484245-1.1981734,12.1858425-2.0523956,8.0738416-1.7081958,16.0323284-4.0959656,23.7889444-7.1592073,10.1919944-4.0334403,19.9553861-9.0731274,29.146976-15.0443544,2.2444464-1.3907215,5.1581496-1.0096031,6.9690211.9117753,7.3568519,8.1358697,15.5042819,15.5184526,24.323952,22.0386093,26.8319245,19.8238717,59.5618603,30.0276751,92.9063589,28.9641237Z"/>
    <path class="cls-4" d="M224.7818342,657.8769224c-2.7874095-.2525872-5.5966967-.6201564-8.428856-1.1027074-15.9249292-2.4546457-31.3536338-7.4431194-45.7003899-14.7758561l-.3858419-.0504677c-2.9137032-1.5019742-5.7856399-3.1103533-8.6187936-4.7979144l-.3639643-.215793-.9576437-.601635c-8.0251142-4.8798313-15.5132318-10.5235152-22.3748536-16.8282517-11.4320585-10.4611142-21.1298173-22.7570907-28.6567181-36.4427942-1.8794877-3.4119166-3.6306929-6.9472677-5.2287547-10.5747287-2.9683972-6.7690147-5.4087479-13.7580489-7.2971856-20.9040799-.440536-1.6267762-.8452722-3.2487044-1.2122198-4.8659091-.1670656-.862302-.3659532-1.7008618-.5369965-2.5358167-.5141244-2.2807434-.9138885-4.1542645-1.4250296-6.8830022-.5121355-2.728862-1.0411765-5.3198701-1.4807181-8.1791277-2.7307266-16.6151934-4.3924324-33.3886267-4.9741786-50.2166298l-.0039778-.1271638c-.1382269,1.9397755-.2704871,3.8719684-.3629698,5.7109328l-.2237485,4.2856546c-.1223159,2.6458264-.2167875,5.295382-.3112591,7.9448133-.0367942,1.5642509-.0715995,2.9046289-.0934772,4.3587458-.0527052,2.8322836-.0825383,5.630259-.0894994,8.3940506.0029833,1.2613202-.0208832,2.5189113-.0178999,3.7802315.0357998,4.011314.0984494,8.0263572.247615,12.0246193.0586718,1.2685299.0894994,2.533455.1471768,3.8018605.0576774.8481313.0865161,1.2721347.1481713,2.513069s.120327,2.5093398.2058487,3.7814746l.0924827,1.8614635c.0527052,1.0994754.1601045,2.2062849.2396595,3.3094895l.16806,2.5717408c.17701.359365.1302714.717487.0865161,1.0481376.1223159,1.6409469.2744649,3.2580273.4236306,4.9027033.079555.6826816.1262936,1.3893541.2058487,2.0721601l-.0467386.358122c.0417664.5378666.224743,1.0661618.1591101,1.5620134.2744649,2.6136315.5529075,5.1997917.8860442,7.7931615l.4156751,3.2485801.9178662,6.4803791.5558908,3.4630058c.3560088,2.2040474.7428451,4.3842283,1.1266982,6.5918805.2048542,1.0073656.3818642,2.0111264.5578797,3.0150115.6235126,3.1635557,1.273875,6.3307162,1.986887,9.4501437.5101467,2.3082148,1.089904,4.5136295,1.6975056,6.7225248l.5002023,1.7466059c.5409742,1.8639496,1.1406203,3.7076375,1.7472275,5.4961342l.2167875.7008301c-.0139221.0635197-.0228721.1279096-.0258554.1927967.5429631,2.0604754,1.3007248,3.9807351,2.03462,5.8699185l.6225181,1.4543655c.6364403,1.3441072,1.2440419,2.908731,1.9013653,4.31151l.7050565,1.46518c.8581999,1.7933445,1.7233609,3.531622,2.6511715,5.2220422l.2933592.5427145c.8731165,1.4592134,1.7333053,3.028685,2.6342661,4.4915033l.3888252.6672679.3758975.553529c1.3186247,2.1338152,2.6780214,4.1608526,4.1000676,6.1401571l.6394236.8962372c1.473757,2.0139854,3.0061859,4.0077092,4.5773978,5.9223751l.2187763.2527115.3391033.4085897.3659532.4121945c1.8804821,2.1232493,3.8385304,4.2846602,5.8363563,6.3671375l.3182201.3499178.3937974.4157994.544952.5475624,2.71581,3.0168761.9417327.9358904c1.2718861,1.2030213,2.5706221,2.4097717,3.90118,3.5924071l.8542222.7561457,3.1951291,2.7716228,1.3653633,1.1311732,2.908731,2.3978385.8373167.6700026.6105849.4721094,2.2364909,1.7495892,1.19432.9407383.6374347.4757142.8442778.6148113,1.0710097.8124558.5867184.4410332c1.9660038,1.4619481,3.9638296,2.9000296,5.9885053,4.341716l.192921.0252339.4634081.3127507,6.6756619,4.6559584.192921.0252339c2.2653296,1.5290726,4.5555202,3.0894701,6.9033882,4.6294815l.5429631.3511609.3599865.2432644,10.8493179,7.0230936,2.2454409,1.4705251,3.7699142,2.4545214.9397439.7393646.8005225.5249389,3.8126751,2.1237465,8.2001352-2.7099677.9357661-.2978342,4.9194845-1.6260303,1.4916569-.4773302,3.1901569-1.0396849,1.7879994-.6066071,2.9276253-.9619944,1.7889939-.6066071,2.931603-.9894657,1.6159617-.5731692,3.2279455-1.1186184,1.2917749-.4474971c1.4946402-.5049259,2.9654139-1.0409279,4.4371821-1.5770543l.5867184-.2034869,3.7400811-1.3881111,1.5025957-.5599929,2.9385641-1.0445327,1.6537503-.652227,2.5736054-1.0363286,1.7163999-.69996,2.459245-1.0232766,1.7243554-.7551513,2.4045509-1.0304863,1.6994944-.7863518,2.3598012-1.1202343,1.6696613-.762361,2.4254341-1.1958116,1.5035902-.78399c.9258217-.439293,1.8039104-.9408626,2.7058656-1.4112317l1.1724423-.6032509,3.7540032-2.1426408.7885893-.4573171,3.0280635-1.7333053,1.346469-.860686,2.2961572-1.4927757,1.473757-.9841206,2.0962752-1.4629425,1.4846958-1.066659,1.9898703-1.5049575,1.4956347-1.1493216c.6543402-.5028127,1.4707737-1.1805221,1.9421373-1.5672342s.969577-.769695,1.4439239-1.1840027l1.9292096-1.6810973,1.3643689-1.2224128c.665279-.5854753,1.3096748-1.2296225,1.9779371-1.8426935l1.2480196-1.1817652c.7100287-.7196002,1.4518794-1.4631911,2.1698636-2.2378583.3221979-.3220736.640418-.6165515.9387494-.9698256,1.0352099-1.0600708,2.0485422-2.1605407,3.0380079-3.3012853l.7319063-.8849255c.7418507-.7434667,1.473757-1.6283921,2.1788135-2.5169224.3957863-.4525936.7388674-.9399925,1.1068094-1.3961909l1.7879994-2.3159217,1.1605091-1.5853827,1.6149672-2.2824837,1.1823867-1.750708c.4932412-.7759102,1.1227204-1.730322,1.5085624-2.3242501.3858419-.5940524.7756616-1.2155761,1.1406203-1.868176l.2784426-.4212688c-25.9677579,21.9798132-59.4146835,30.490213-92.5732222,27.4072068Z"/>
    <path class="cls-9" d="M92.1138688,529.1188384c.4395416,2.8592577.9685826,5.4502657,1.4807181,8.1791277.5111411,2.7287377.9109052,4.6022588,1.4250296,6.8830022.1710433.834955.3699309,1.6735147.5369965,2.5358167.3669476,1.6172047.7716838,3.239133,1.2122198,4.8659091,1.8884376,7.146031,4.3287883,14.1350652,7.2971856,20.9040799,1.5980618,3.627461,3.349267,7.1628122,5.2287547,10.5747287,7.5269008,13.6857035,17.2246595,25.98168,28.6567181,36.4427942,6.7701335,6.1950997,14.1468741,11.7482898,22.0456947,16.5612451l.9576437.601635.3639643.215793c2.8341481,1.6874369,5.7050905,3.2959402,8.6187936,4.7977901l.3858419.0504677c14.3467561,7.3328611,29.7754608,12.3213347,45.6993955,14.7759804,2.8281815.3699309,5.6384631.7375,8.4298504,1.1025831,33.2201938,3.0844979,66.9574953-5.5030952,92.9819361-27.7366144,1.3981797-2.3387937,2.7764707-4.7362593,4.1139898-7.2510685,10.1084616-19.6433812,18.4150017-40.1622407,24.8201765-61.3047371-10.5480032-.7389917-21.1626338-1.820443-31.9015691-3.2252108-1.1227204-.1469282-2.2374854-.307157-3.356228-.4605491-7.5239174-1.0304863-14.9623132-2.2031773-22.305243-3.5162082-14.7524868-2.6379952-29.1211206-5.8316327-43.0323129-9.5288286-8.853481-2.3532131-17.5200076-4.9112804-25.9826745-7.6577937-4.5306592-1.4700279-9.0006578-2.994004-13.41099-4.5706854-7.5696616-2.7068601-14.9145802-5.5978155-22.1053609-8.6006451-14.0046695,8.6784599-24.6292444,22.7130868-28.5184912,39.8410373-.1213214.5842323-.5628519,3.2137748-1.0978595,6.4681973,3.5342324,3.1270101,5.456481,7.9270377,4.6668972,12.9335355-1.2291253,7.797015-8.549183,13.1227273-16.3455764,11.8933534-7.7973879-1.2294982-13.1235975-8.549183-11.8934777-16.3461979.7935615-5.0327261,4.1308952-9.0225354,8.4885222-10.8979211l9.5406376-60.496632c-5.1243387-2.7411682-10.118406-5.5545574-14.9533633-8.4471288.0019889-.0084527.0039778-.0172784.0069611-.0257311-3.2140234-1.9195138-6.3644028-3.870974-9.4471604-5.8530131l-.0059666.0059666-.0039778.0060909-10.6295471,13.1889818-10.6295471,13.1889818v-.0001243.0001243l-3.0917076,3.8356714-.0178999-.1364866-.056683.0706051-3.8126751-28.2655311c-.8979775-7.5829622-1.0789652-15.2335462-.5409742-22.8504436-2.6253162-2.178192-5.1889772-4.3773915-7.6631388-6.6077915-.2515928,2.6295425-.3997641,5.2722613-.7418507,7.8898706l.0178999-.137854c.031822,1.0409279-.0805495,1.8949015-.1959043,2.7764707-.0715995.9888442-.1431991,1.9872599-.2138042,2.9835624l.0039778.1271638c.5817462,16.8280031,2.243452,33.6014364,4.9741786,50.2166298Z"/>
    <path class="cls-9" d="M168.1048384,516.6625088c-1.5920951-.7443368-3.165296-1.5011041-4.7355135-2.2597359l-1.19432,7.572272c1.8884376-1.8717808,3.869358-3.6431234,5.9298334-5.3125361Z"/>
    <path class="cls-11" d="M156.3227377,461.4433589c-1.273875-1.1155108-2.3379236-2.4454472-3.1464016-3.9276569l-28.4548472,35.3112482h0c3.0827576,1.9820391,6.233137,3.9334993,9.4471604,5.8530131-.0029833.0084527-.0049722.0172784-.0069611.0257311,4.8349573,2.8925714,9.8290246,5.7059606,14.9533633,8.4471288l7.2076862-45.7094642Z"/>
    <path class="cls-11" d="M117.3367927,366.7127037c5.1412441,1.249387,10.1482392,2.227541,15.029935,2.9874159,2.0077702.3125021,4.0006238.5981544,5.9626499.8348306,2.2454409.2706114,4.4600542.4928683,6.6448343.669754.1083937.0088256.2138042.0128034.3221979.0213804,4.7991575.3793781,9.4541215.5447034,13.9519643.5187237,1.5324289-.0088256,3.0479523-.0394046,4.5445814-.0903695,5.9875108-.2038598,11.6846458-.7343924,17.073505-1.5103026,1.7969494-.2585539,3.5590934-.5444548,5.2864321-.8545951s3.4208665-.6445201,5.0785946-1.000156c1.6567336-.3556359,3.2796563-.7324035,4.8647904-1.127444,1.9829092-.4938627,3.91013-1.016067,5.7786789-1.561019,3.7380922-1.0897797,7.2474637-2.2700532,10.5171756-3.4934605,8.1732854-3.0585182,14.8539195-6.3875235,19.8917421-9.2516291,1.6119839-.9164989,3.0559078-1.7855133,4.3267995-2.5826796,1.6676724-1.0463973,3.0380079-1.9692357,4.0990732-2.7139454.7070454-.4965974,1.2768583-.9138885,1.7054611-1.2359621.4295972-.3220736.7179842-.5489297.8631721-.6644088.0715995-.0576774.1083937-.0876348.1083937-.0876348l-73.6610014,91.4079895c6.8049388,1.9821634,11.2441098,8.7494379,10.111445,15.9346249-.7935615,5.0327261-4.1308952,9.0226597-8.4895167,10.8979211l-7.9783756,50.5910357c1.5702175.7586318,3.1434183,1.5153991,4.7355135,2.2597359,16.8139567-13.6175845,39.0833999-20.3064227,61.8719397-16.7199823l1.8416991.2903759c20.5490656,3.250569,40.3582693-5.6080085,51.7067951-22.0506669-1.8357324-3.2235949-2.4284174-7.1511275-1.3285691-10.9984836,2.1698636-7.589426,10.0836007-11.9842202,17.673151-9.8144809,7.5895503,2.1698636,11.9839716,10.083725,9.814108,17.6732754-1.6845779,5.8955253-6.8407386,9.8466759-12.6134508,10.306852-14.4223334,22.1496134-40.548207,34.1649098-67.6207854,29.9074724l-1.8397102-.2903759c-15.5559927-2.4556402-30.7997318,1.0221579-43.3356165,8.7909557,7.1907807,3.0028297,14.5356994,5.8937851,22.1053609,8.6006451,4.4103323,1.5766814,8.8803308,3.1006575,13.41099,4.5706854,8.4626669,2.7465133,17.1291935,5.3045806,25.9826745,7.6577937,13.9111923,3.697196,28.2798261,6.8908334,43.0323129,9.5288286,7.3429297,1.313031,14.7813255,2.4857219,22.305243,3.5162082,1.1187427.1533921,2.2335076.3136209,3.356228.4605491,10.7389353,1.4047679,21.3535659,2.4862192,31.9015691,3.2252108.0308276.0022375.0626496.0050965.0934772.007334.2277263-.6707484.4325805-1.3724487.6324625-2.0468019,16.6618077-55.0183977,22.6493185-112.7151897,17.6393402-169.9825088-25.2000518.8105912-50.049067-4.6273683-72.4408261-15.5945271-1.8039104-.8835581-3.589921-1.8049049-5.3610149-2.7603111-6.3912526-3.4477163-12.5716844-7.331618-18.4637292-11.6933471-1.4618238-1.0917686-2.876909-2.241836-4.302933-3.3776085-1.4598349-1.1618764-2.9017699-2.3428958-4.3218273-3.5500191-5.7846455-4.9126477-11.2759318-10.1640259-16.3843595-15.7854592-9.4342327,6.0597319-19.4164008,11.2198703-29.8212049,15.4007361-.0507163.0202617-.1024271.0372914-.1541379.0574288-.0367942.0151652-.0735884.0328165-.111377.0479816-6.8695773,2.7216523-13.8992591,4.8982284-21.0194347,6.5916319-1.9719704.4690018-3.9499075.899842-5.9348056,1.2896617-24.315002,4.7745452-49.5637813,3.6420046-73.5665298-3.5435553-1.410113,3.8268458-2.7625486,7.8191412-4.0791844,11.7640765l-1.1475814,3.6324332c-.9407383,2.9031373-1.8536323,5.8098794-2.7108378,8.7237068-.3749031,1.1557855-.7826227,2.5594346-1.1485758,3.8564303-.9636104,3.2924597-1.8745155,6.6194761-2.7625486,9.9778174-.2108208.7568916-.5011967,1.4754973-.601635,2.2468082-1.0789652,4.1739046-2.0525199,8.1932985-3.013147,12.3265555l-.6483735,3.0253288c-.7209675,3.1559731-1.3902242,6.3466272-2.0286534,9.5134148l-.7597506,3.8793024c-.5837351,3.173873-1.2768583,6.3334509-1.6945222,9.5289529-.1372324,1.0467702-.2704871,2.0660691-.4077196,3.1129637-.7438396,4.189567-1.2987359,8.4319636-1.850649,12.6467645l-.2197708,1.6803515c-.4584359,3.7225541-.8005225,7.4044606-1.2758639,11.0407472-.0646385.4959759-.1332547,1.0192989-.1978931,1.5151505-.0109388.1078965-.0178999.2161659-.0278443.3240625,2.3757122,2.2398472,5.0825723,4.4743492,7.7367272,6.6756619,1.5901063-28.3356389,10.0189622-66.2237244,21.3227383-105.1358323Z"/>
    <path class="cls-10" d="M191.2314871,368.289385c-1.657728.3556359-3.3512559.6900156-5.0785946,1.000156s-3.4894827.5960412-5.2864321.8545951c1.7969494-.2585539,3.5590934-.5444548,5.2874265-.8545951,1.7273387-.3101403,3.4198721-.6445201,5.0776001-1.000156Z"/>
    <path class="cls-10" d="M145.2964098,371.2260845c-.1083937-.008577-.2138042-.0125548-.3221979-.0213804-2.1847802-.1768856-4.3993934-.3991425-6.6448343-.669754,2.2454409.2706114,4.4600542.4928683,6.6448343.669754.1083937.0088256.2138042.0128034.3221979.0213804Z"/>
    <path class="cls-10" d="M242.4152078,346.3232454c.4295972-.3220736.7179842-.5489297.8631721-.6644088-.1451879.1154791-.4335749.3423353-.8631721.6644088Z"/>
    <path class="cls-10" d="M236.6106735,350.2731529c1.6676724-1.0463973,3.0380079-1.9692357,4.0990732-2.7139454-1.0610653.7447097-2.4314008,1.6675481-4.0990732,2.7139454-1.2708917.7971663-2.7148156,1.6661808-4.3267995,2.5826796-5.0378226,2.8641056-11.7184567,6.1931109-19.8917421,9.2516291,8.1732854-3.0585182,14.8539195-6.3875235,19.8917421-9.2516291,1.6119839-.9164989,3.0559078-1.7855133,4.3267995-2.5826796Z"/>
    <polygon class="cls-10" points="114.0819973 506.0279895 124.7115445 492.8390077 124.7155222 492.8329168 124.7115445 492.8390077 114.0819973 506.0279895"/>
    <path class="cls-10" d="M100.3428428,522.9161561l.0178999.1364866,3.0917076-3.8356714v-.0001243c-.0019889-.0503434-.0039778-.1009355-.0059666-.1512789l-3.1036408,3.850588Z"/>
    <path class="cls-2" d="M145.2964098,371.2260845c-.1083937-.008577-.2138042-.0125548-.3221979-.0213804"/>
    <path class="cls-2" d="M191.2314871,368.289385c-1.657728.3556359-3.3512559.6900156-5.0785946,1.000156"/>
    <path class="cls-10" d="M96.0140544,471.848536c.0686162.0571802.1382269.1149819.2068431.1720378.0855217-1.776812.1978931-3.5907911.3381089-5.4396998.2784426-3.6979418.6642845-7.535975,1.1475814-11.4975671,3.1444128-25.7505975,10.4366262-56.7223671,19.6302049-88.3704788,5.1412441,1.249387,10.1482392,2.2274167,15.029935,2.9872916-4.8816958-.7598749-9.8886909-1.7380289-15.029935-2.9874159-11.303776,38.9121079-19.732632,76.8001934-21.3227383,105.1358323-.0009944.0191429-.0029833.0390317-.0039778.0587961.0009944-.0196401.0029833-.0395289.0039778-.0587961Z"/>
    <path class="cls-2" d="M232.2838741,352.8558325c1.6119839-.9164989,3.0559078-1.7855133,4.3267995-2.5826796"/>
    <path class="cls-6" d="M271.6795274,355.0442175c-8.8196701-6.5201567-16.9671001-13.9027396-24.323952-22.0386093-1.8108715-1.9213784-4.7245746-2.3024967-6.9690211-.9117753-9.1915899,5.9712269-18.9549816,11.0109141-29.146976,15.0443544-7.7566159,3.0632418-15.7151027,5.4510116-23.7889444,7.1592073-4.037418.8542222-8.1026803,1.5383955-12.1858425,2.0523956-4.0841566.5140001-8.1862131.857827-12.2942362,1.0307349-12.3270527.518848-24.7177494-.4989592-36.8827087-3.0656036-4.0543235-.8555895-8.083786-1.8832168-12.0774488-3.0835034-1.3733188-.370801-2.7744818-.1931696-3.9618407.408714-.890022.4513505-1.6587225,1.1413661-2.2036745,2.0179632-.1819821.2921161-.3391033.6049912-.4663914.9366362-19.8022427,54.7035338-28.9659883,112.6878426-26.9970012,170.8318831.656329,23.1594652,3.4954494,46.2053158,8.4795723,68.8316379,13.499495,59.5972872,55.9391229,83.4452763,103.4195568,114.5931857,1.4031519.8942483,3.1473961,1.0703881,4.7007081.4748441,53.8677087-17.8908087,101.092572-29.9819309,129.397259-83.9990539,10.6116472-20.5944368,19.2821516-42.1322223,25.8991417-64.3345409,16.8626841-55.6816878,22.9128445-114.0759537,17.8243056-172.0317968-.231704-2.8541612-2.6541549-5.0291213-5.5161472-4.9525495-33.3444985,1.0635514-66.0744344-9.140252-92.9063589-28.9641237ZM347.3602323,559.1724932c-.0894994.6886483-.4037418,1.3760535-.6314681,2.0468019-6.4071636,21.163131-14.7206648,41.7016307-24.8380764,61.3631604-1.3524356,2.6250675-2.7168044,4.9123991-4.1149842,7.2510685l-.4206472.6361917-.2784426.4212688c-.3649587.6525999-.7547784,1.2741236-1.1406203,1.868176-.3858419.5939281-1.0153211,1.5483399-1.5085624,2.3242501l-1.1823867,1.750708-1.6149672,2.2824837-1.1605091,1.5853827-1.7879994,2.3159217c-.367942.4561984-.7110231.9435973-1.1068094,1.3961909-.7050565.8885303-1.4369628,1.7734558-2.1788135,2.5169224l-.7319063.8849255c-.9894657,1.1407446-2.002798,2.2412145-3.0380079,3.3012853-.2983314.3532741-.6165515.647752-.9387494.9698256-.7179842.7746672-1.4598349,1.5182581-2.1698636,2.2378583l-1.2480196,1.1817652c-.6682623.613071-1.3126581,1.2572182-1.9779371,1.8426935l-1.3643689,1.2224128-1.9292096,1.6810973c-.4743469.4143077-.9725603.7972906-1.4439239,1.1840027s-1.2877971,1.0644215-1.9421373,1.5672342l-1.4956347,1.1493216-1.9898703,1.5049575-1.4846958,1.066659-2.0962752,1.4629425-1.473757.9841206-2.2961572,1.4927757-1.346469.860686-3.0280635,1.7333053-.7885893.4573171-3.7540032,2.1426408-1.1724423.6032509c-.9019552.4703691-1.7800439.9719388-2.7058656,1.4112317l-1.5035902.78399-2.4254341,1.1958116-1.6696613.762361-2.3598012,1.1202343-1.6994944.7863518-2.4045509,1.0304863-1.7243554.7551513-2.459245,1.0232766-1.7163999.69996-2.5736054,1.0363286-1.6537503.652227-2.9385641,1.0445327-1.5025957.5599929-3.7400811,1.3881111-.5867184.2034869c-1.4717681.5361264-2.9425419,1.0721284-4.4371821,1.5770543l-1.2917749.4474971-3.2279455,1.1186184-1.6159617.5731692-2.931603.9894657-1.7889939.6066071-2.9276253.9619944-1.7879994.6066071-3.1901569,1.0396849-1.4916569.4773302-4.9194845,1.6260303-.9357661.2978342-8.2001352,2.7099677-3.8126751-2.1237465-.8005225-.5249389-.9397439-.7393646-3.7699142-2.4545214-2.2454409-1.4705251-10.8493179-7.0230936-.3599865-.2432644-.5429631-.3511609c-2.347868-1.5400115-4.6380585-3.1004089-6.9033882-4.6294815l-.192921-.0252339-6.6756619-4.6559584-.4634081-.3127507-.192921-.0252339c-2.0246756-1.4416864-4.0225015-2.879768-5.9885053-4.341716l-.5867184-.4410332-1.0710097-.8124558-.8442778-.6148113-.6374347-.4757142-1.19432-.9407383-2.2364909-1.7495892-.6105849-.4721094-.8373167-.6700026-2.908731-2.3978385-1.3653633-1.1311732-3.1951291-2.7716228-.8542222-.7561457c-1.330558-1.1826353-2.6292939-2.3893858-3.90118-3.5924071l-.9417327-.9358904-2.71581-3.0168761-.544952-.5475624-.3937974-.4157994-.3182201-.3499178c-1.9978258-2.0824773-3.9558741-4.2438882-5.8363563-6.3671375l-.3659532-.4121945-.3391033-.4085897-.2187763-.2527115c-1.5712119-1.9146659-3.1036408-3.9083897-4.5773978-5.9223751l-.6394236-.8962372c-1.4220463-1.9793044-2.7814429-4.0063418-4.1000676-6.1401571l-.3758975-.553529-.3888252-.6672679c-.9009608-1.4628182-1.7611496-3.0322899-2.6342661-4.4915033l-.2933592-.5427145c-.9278106-1.6904202-1.7929716-3.4286977-2.6511715-5.2220422l-.7050565-1.46518c-.6573235-1.402779-1.2649251-2.9674028-1.9013653-4.31151l-.6225181-1.4543655c-.7338952-1.8891835-1.4916569-3.8094431-2.03462-5.8699185.0029833-.0648871.0119333-.1292769.0258554-.1927967l-.2167875-.7008301c-.6066071-1.7884966-1.2062532-3.6321846-1.7472275-5.4961342l-.5002023-1.7466059c-.6076016-2.2088953-1.1873589-4.41431-1.6975056-6.7225248-.713012-3.1194275-1.3633744-6.286588-1.986887-9.4501437-.1760155-1.0038851-.3530255-2.0076459-.5578797-3.0150115-.383853-2.2076522-.7706894-4.3878331-1.1266982-6.5918805l-.5558908-3.4630058-.9178662-6.4803791-.4156751-3.2485801c-.3331367-2.5933698-.6115793-5.17953-.8860442-7.7931615.0656329-.4958516-.1173437-1.0241468-.1591101-1.5620134l.0467386-.358122c-.079555-.6828059-.1262936-1.3894784-.2058487-2.0721601-.1491657-1.644676-.3013147-3.2617564-.4236306-4.9027033.0437553-.3306506.0904939-.6887726-.0865161-1.0481376l-.16806-2.5717408c-.079555-1.1032046-.1869543-2.210014-.2396595-3.3094895l-.0924827-1.8614635c-.0855217-1.2721347-.1441935-2.5405403-.2058487-3.7814746s-.0904939-1.6649377-.1481713-2.513069c-.0576774-1.2684056-.088505-2.5333306-.1471768-3.8018605-.1491657-3.998262-.2118153-8.0133052-.247615-12.0246193-.0029833-1.2613202.0208832-2.5189113.0178999-3.7802315.0069611-2.7637916.0367942-5.5617671.0894994-8.3940506.0218776-1.4541169.056683-2.7944949.0934772-4.3587458.0944716-2.6494313.1889432-5.2989869.3112591-7.9448133l.2237485-4.2856546c.0924827-1.8389644.224743-3.7711573.3629698-5.7109328.0706051-.9963025.1422046-1.9947182.2138042-2.9835624.1153548-.8815692.2277263-1.7355428.1959043-2.7764707l-.0178999.137854c.3420867-2.6176093.4902579-5.2603281.7418507-7.8898706.0029833-.0299574.0049722-.0601635.0079555-.0901209.0099444-.1078965.0169054-.2161659.0278443-.3240625.0646385-.4958516.1332547-1.0191746.1978931-1.5151505.4753413-3.6362866.817428-7.3181931,1.2758639-11.0407472l.2197708-1.6803515c.5519131-4.2148009,1.1068094-8.4571975,1.850649-12.6467645.1372324-1.0468945.2704871-2.0661934.4077196-3.1129637.4176639-3.195502,1.1107872-6.35508,1.6945222-9.5289529l.7597506-3.8793024c.6384292-3.1667876,1.3076859-6.3574417,2.0286534-9.5134148l.6483735-3.0253288c.960627-4.133257,1.9341818-8.1526508,3.013147-12.3265555.1004382-.7713109.3908141-1.4899166.601635-2.2468082.8880331-3.3583412,1.7989382-6.6853577,2.7625486-9.9778174.3659532-1.2969957.7736727-2.7006448,1.1485758-3.8564303.8572055-2.9138275,1.7700995-5.8205696,2.7108378-8.7237068l1.1475814-3.6324332c1.3166358-3.9449353,2.6690714-7.9372307,4.0791844-11.7640765.0198888-.053451.0387831-.1097611.0586718-.1632121,23.9649599,7.2110424,49.1799283,8.3783882,73.4720582,3.6589101,1.9878814-.3862148,3.9688018-.812953,5.9427611-1.2784743,7.1679087-1.689923,14.2433346-3.8718441,21.158656-6.6029436.0517108-.0201374.1034215-.0371671.1541379-.0574288,10.4048042-4.1808657,20.3869722-9.3410042,29.8212049-15.4007361.0755773-.0489761.1551323-.092607.231704-.1415831,5.0776001,5.5908544,10.53607,10.8132695,16.2819324,15.7036667,1.4200574,1.2088636,2.8590091,2.3941093,4.3178495,3.557726,1.4717681,1.1744312,2.9335919,2.3604228,4.4431487,3.4878668,5.8671838,4.3430834,12.0207658,8.21269,18.3821853,11.6495918,1.7700995.9562764,3.5551156,1.8786176,5.3580316,2.7630458,22.4136367,10.9951274,47.2944739,16.4471334,72.5263477,15.6355477,5.0089839,57.2673191-.9785269,114.9641111-17.6403346,169.9825088Z"/>
    <path class="cls-12" d="M227.6100157,514.9664949l1.8397102.2903759c27.0725784,4.2574374,53.198452-7.757859,67.6207854-29.9074724,5.7727122-.4601762,10.9288729-4.4113267,12.6134508-10.306852,2.1698636-7.5895503-2.2245577-15.5034118-9.814108-17.6732754-7.5895503-2.1697393-15.5032875,2.2250549-17.673151,9.8144809-1.0998484,3.8473561-.5071633,7.7748887,1.3285691,10.9984836-11.3485258,16.4426584-31.1577295,25.3012359-51.7067951,22.0506669l-1.8416991-.2903759c-22.7885398-3.5864404-45.057983,3.1023978-61.8719397,16.7199823-2.0604754,1.6694127-4.0413958,3.4407553-5.9298334,5.3125361l1.19432-7.572272,7.9783756-50.5910357c4.3586215-1.8752613,7.6959552-5.865195,8.4895167-10.8979211,1.1326648-7.185187-3.3065061-13.9524615-10.111445-15.9346249l-12.2136868,15.1564772-4.3357494,5.3800336c.808478,1.4822097,1.8725266,2.8121462,3.1464016,3.9276569l-7.2076862,45.7094642-9.5406376,60.496632c-4.357627,1.8753856-7.6949608,5.865195-8.4885222,10.8979211-1.2301197,7.797015,4.0960899,15.1166997,11.8934777,16.3461979,7.7963934,1.2293739,15.1164511-4.0963385,16.3455764-11.8933534.7895837-5.0064978-1.1326648-9.8065254-4.6668972-12.9335355.5350076-3.2544225.9765381-5.883965,1.0978595-6.4681973,3.8892468-17.1279504,14.5138217-31.1625774,28.5184912-39.8410373,12.5358847-7.7687978,27.7796238-11.2465959,43.3356165-8.7909557Z"/>
    <path class="cls-3" d="M96.0100767,489.0888579c.1352436,1.9026084.3142424,3.8024821.5389854,5.6982537l3.7937807,28.1290444-3.7937807-28.1290444c-.224743-1.8957716-.4037418-3.7956453-.5389854-5.6982537Z"/>
    <path class="cls-3" d="M96.0100767,471.9073321c-.0009944.0098201-.0019889.0197645-.0019889.0293359-.1352436,1.9042243-.224743,3.8105619-.2684982,5.7173966.0437553-1.9068347.1332547-3.8131723.2684982-5.7173966,0-.0095715.0009944-.0195158.0019889-.0293359Z"/>
    <path class="cls-11" d="M163.7929555,371.6544387c5.9875108-.2038598,11.6846458-.7343924,17.073505-1.5103026-5.3888592.7759102-11.0859941,1.3064428-17.073505,1.5103026Z"/>
    <path class="cls-3" d="M163.7929555,371.6544387c5.9875108-.2038598,11.6846458-.7343924,17.073505-1.5103026-5.3888592.7759102-11.0859941,1.3064428-17.073505,1.5103026Z"/>
    <polygon class="cls-11" points="169.7257722 436.9791912 243.3867736 345.5712017 169.7257722 436.9791912 169.7257722 436.9791912"/>
    <polygon class="cls-3" points="169.7257722 436.9791912 243.3867736 345.5712017 169.7257722 436.9791912 169.7257722 436.9791912"/>
    <path class="cls-11" d="M138.3293776,370.5349502c-1.9620261-.2366762-3.9548797-.5223285-5.9626499-.8348306.2854037.0443768.5777684.1001896.8621777.1430748,1.7173943.2586782,3.4178832.4887662,5.1004722.6917559Z"/>
    <path class="cls-3" d="M138.3293776,370.5349502c-1.9620261-.2366762-3.9548797-.5223285-5.9626499-.8348306.2854037.0443768.5777684.1001896.8621777.1430748,1.7173943.2586782,3.4178832.4887662,5.1004722.6917559Z"/>
    <path class="cls-11" d="M145.2964098,371.2260845c4.7991575.3793781,9.4541215.5447034,13.9519643.5187237-4.4978428.0259797-9.1528068-.1393456-13.9519643-.5187237Z"/>
    <path class="cls-3" d="M145.2964098,371.2260845c4.7991575.3793781,9.4541215.5447034,13.9519643.5187237-4.4978428.0259797-9.1528068-.1393456-13.9519643-.5187237Z"/>
    <path class="cls-11" d="M196.0972719,367.161941c1.9819148-.4938627,3.9091355-1.016067,5.7776844-1.561019-1.8685489.544952-3.7957696,1.0671562-5.7786789,1.561019-1.5851341.3950405-3.2080568.7718081-4.8647904,1.127444,1.6567336-.3556359,3.2796563-.7324035,4.8657848-1.127444Z"/>
    <path class="cls-3" d="M196.0972719,367.161941c1.9819148-.4938627,3.9091355-1.016067,5.7776844-1.561019-1.8685489.544952-3.7957696,1.0671562-5.7786789,1.561019-1.5851341.3950405-3.2080568.7718081-4.8647904,1.127444,1.6567336-.3556359,3.2796563-.7324035,4.8657848-1.127444Z"/>
    <polygon class="cls-9" points="124.7155222 492.8329168 124.7214888 492.8269501 124.7204944 492.8269501 124.7155222 492.8329168"/>
    <polygon class="cls-3" points="124.7155222 492.8329168 124.7214888 492.8269501 124.7204944 492.8269501 124.7155222 492.8329168"/>
    <polygon class="cls-9" points="103.4524502 519.2169712 114.0819973 506.0279895 103.4524502 519.2168469 103.4524502 519.2169712"/>
    <polygon class="cls-3" points="103.4524502 519.2169712 114.0819973 506.0279895 103.4524502 519.2168469 103.4524502 519.2169712"/>
    <polygon class="cls-11" points="153.176336 457.515702 153.176336 457.5155777 124.7204944 492.8269501 124.7214888 492.8269501 124.7214888 492.8269501 153.176336 457.515702"/>
    <polygon class="cls-3" points="153.176336 457.515702 153.176336 457.5155777 124.7204944 492.8269501 124.7214888 492.8269501 124.7214888 492.8269501 153.176336 457.515702"/>
    <path class="cls-10" d="M153.176336,457.5155777c-1.4568516-2.6708117-2.0893141-5.8177106-1.5791674-9.054606,1.2301197-7.7972636,8.549183-13.1231003,16.3465708-11.8936021.6115793.0964605,1.2022755.2430158,1.7820328.4118216l73.6610014-91.4079895s-.0367942.0299574-.1083937.0876348c-.1451879.1154791-.4335749.3423353-.8631721.6644088-.4286028.3220736-.9984157.7393646-1.7054611,1.2359621-1.0610653.7447097-2.4314008,1.6675481-4.0990732,2.7139454-1.2708917.7971663-2.7148156,1.6661808-4.3267995,2.5826796-5.0378226,2.8641056-11.7184567,6.1931109-19.8917421,9.2516291-3.2697119,1.2234073-6.7790834,2.4036808-10.5171756,3.4934605-1.8685489.544952-3.7957696,1.0671562-5.7776844,1.561019-1.5861285.3950405-3.2090512.7718081-4.8657848,1.127444-1.657728.3556359-3.3502614.6900156-5.0776001,1.000156-1.7283331.3101403-3.4904772.5960412-5.2874265.8545951-5.3888592.7759102-11.0859941,1.3064428-17.073505,1.5103026-1.4966291.0509649-3.0121525.0815439-4.5445814.0903695-4.4978428.0259797-9.1528068-.1393456-13.9519643-.5187237-.1083937-.008577-.2138042-.0125548-.3221979-.0213804-2.1847802-.1768856-4.3993934-.3991425-6.6448343-.669754-1.682589-.2029896-3.3830779-.4330777-5.1004722-.6917559-.2844093-.0428851-.576774-.098698-.8621777-.1430748-4.8816958-.7598749-9.8886909-1.7379046-15.029935-2.9872916-9.1935787,31.6481117-16.4857921,62.6198813-19.6302049,88.3704788-.4832968,3.9615921-.8691388,7.7996254-1.1475814,11.4975671-.1402157,1.8489087-.2525872,3.6628878-.3381089,5.4396998-.0686162-.0570559-.1382269-.1148576-.2068431-.1720378-.0009944.0192672-.0029833.039156-.0039778.0587961-.0009944.0098201-.0019889.0197645-.0019889.0293359-.1352436,1.9042243-.224743,3.8105619-.2684982,5.7173966-.0894994,3.8137938.0009944,7.6297008.2704871,11.4347932.1352436,1.9026084.3142424,3.8024821.5389854,5.6982537l3.7937807,28.1290444,3.1036408-3.850588c.0019889.0503434.0039778.1009355.0059666.1512789l10.6295471-13.1888575,10.6295471-13.1889818.0039778-.0060909.0049722-.0059666,28.4558416-35.3113725Z"/>
    <path class="cls-3" d="M153.176336,457.5155777c-1.4568516-2.6708117-2.0893141-5.8177106-1.5791674-9.054606,1.2301197-7.7972636,8.549183-13.1231003,16.3465708-11.8936021.6115793.0964605,1.2022755.2430158,1.7820328.4118216l73.6610014-91.4079895s-.0367942.0299574-.1083937.0876348c-.1451879.1154791-.4335749.3423353-.8631721.6644088-.4286028.3220736-.9984157.7393646-1.7054611,1.2359621-1.0610653.7447097-2.4314008,1.6675481-4.0990732,2.7139454-1.2708917.7971663-2.7148156,1.6661808-4.3267995,2.5826796-5.0378226,2.8641056-11.7184567,6.1931109-19.8917421,9.2516291-3.2697119,1.2234073-6.7790834,2.4036808-10.5171756,3.4934605-1.8685489.544952-3.7957696,1.0671562-5.7776844,1.561019-1.5861285.3950405-3.2090512.7718081-4.8657848,1.127444-1.657728.3556359-3.3502614.6900156-5.0776001,1.000156-1.7283331.3101403-3.4904772.5960412-5.2874265.8545951-5.3888592.7759102-11.0859941,1.3064428-17.073505,1.5103026-1.4966291.0509649-3.0121525.0815439-4.5445814.0903695-4.4978428.0259797-9.1528068-.1393456-13.9519643-.5187237-.1083937-.008577-.2138042-.0125548-.3221979-.0213804-2.1847802-.1768856-4.3993934-.3991425-6.6448343-.669754-1.682589-.2029896-3.3830779-.4330777-5.1004722-.6917559-.2844093-.0428851-.576774-.098698-.8621777-.1430748-4.8816958-.7598749-9.8886909-1.7379046-15.029935-2.9872916-9.1935787,31.6481117-16.4857921,62.6198813-19.6302049,88.3704788-.4832968,3.9615921-.8691388,7.7996254-1.1475814,11.4975671-.1402157,1.8489087-.2525872,3.6628878-.3381089,5.4396998-.0686162-.0570559-.1382269-.1148576-.2068431-.1720378-.0009944.0192672-.0029833.039156-.0039778.0587961-.0009944.0098201-.0019889.0197645-.0019889.0293359-.1352436,1.9042243-.224743,3.8105619-.2684982,5.7173966-.0894994,3.8137938.0009944,7.6297008.2704871,11.4347932.1352436,1.9026084.3142424,3.8024821.5389854,5.6982537l3.7937807,28.1290444,3.1036408-3.850588c.0019889.0503434.0039778.1009355.0059666.1512789l10.6295471-13.1888575,10.6295471-13.1889818.0039778-.0060909.0049722-.0059666,28.4558416-35.3113725Z"/>
    <path class="cls-12" d="M167.9437394,436.5673696c-7.7973879-1.2294982-15.1164511,4.0963385-16.3465708,11.8936021-.5101467,3.2368955.1223159,6.3837943,1.5791674,9.054606v.0001243l4.3357494-5.3800336,12.2136868-15.1564772h0c-.5797573-.1688058-1.1704535-.3153611-1.7820328-.4118216Z"/>
    <path class="cls-3" d="M167.9437394,436.5673696c-7.7973879-1.2294982-15.1164511,4.0963385-16.3465708,11.8936021-.5101467,3.2368955.1223159,6.3837943,1.5791674,9.054606v.0001243l4.3357494-5.3800336,12.2136868-15.1564772h0c-.5797573-.1688058-1.1704535-.3153611-1.7820328-.4118216Z"/>
  </g>
</svg>