<?xml version="1.0" encoding="UTF-8"?>
<svg id="Layer_10" data-name="Layer 10" xmlns="http://www.w3.org/2000/svg" viewBox="0 0 1000 575">
  <defs>
    <style>
      .cls-1, .cls-2 {
        fill: none;
      }

      .cls-1, .cls-2, .cls-3, .cls-4, .cls-5, .cls-6, .cls-7, .cls-8, .cls-9, .cls-10, .cls-11, .cls-12, .cls-13 {
        stroke-width: 0px;
      }

      .cls-2 {
        stroke: #fff;
        stroke-linecap: round;
        stroke-linejoin: round;
      }

      .cls-3 {
        opacity: .15;
      }

      .cls-3, .cls-10 {
        fill: #fff;
      }

      .cls-4 {
        fill: #f9c37a;
      }

      .cls-5 {
        fill: #a2c9d2;
      }

      .cls-6 {
        fill: #0c3455;
      }

      .cls-7 {
        fill: #e0f8ff;
      }

      .cls-8 {
        fill: #b7deeb;
      }

      .cls-9 {
        fill: #fde6ad;
      }

      .cls-11 {
        fill: #fff4d0;
      }

      .cls-12 {
        fill: #04335f;
      }

      .cls-13 {
        fill: #6897b8;
      }
    </style>
  </defs>
  <path class="cls-1" d="M129.0119495,272.1499174c.0290528-.0116594.0573411-.0252301.0856294-.0368895-5.3166695,2.0997366-10.7564313,3.7772513-16.2672961,5.0765057l.0214074.0281927c5.4741665-1.3019303,10.8787591-2.9753356,16.1602593-5.067809Z"/>
  <path class="cls-1" d="M399.9518437,298.8750887h-4.0612811c-8.4926035,0-12.7312598,4.3242857-12.7312598,12.9743862v85.0529503c0,8.8916978,4.3579258,13.3337239,13.0798939,13.3337239h24.4013264v-109.1989176l-16.6182238-1.801276c-1.1835209-.23701-2.5383007-.3608668-4.0704556-.3608668Z"/>
  <path class="cls-1" d="M108.7063088,195.5513432c-23.1734617-3.0537018-36.0897422-16.0920234-40.8322359-21.9808618-6.4183837,1.9438643-13.2954965,2.5133573-19.9195438,1.6468372-5.3648361-.7016643-10.4704902-2.2831326-15.1663464-4.6370816l64.1119699,85.391263c10.2441839-1.2807141,19.2803813-4.1417498,26.851704-7.4444077l-15.0455478-52.9757491Z"/>
  <path class="cls-1" d="M171.3709885,277.6907907c4.5299492,3.3534048,9.2816175,6.3394441,14.19537,8.9901334l.1414415-.1146823c-4.8908161-2.6423748-9.6218415-5.6174237-14.132677-8.9564933-1.1605845-.8668067-2.2844706-1.7786263-3.4160022-2.6815579l-.0963331.1658114c1.0963624.8732098,2.1843148,1.75741,3.3082009,2.5967886Z"/>
  <path class="cls-1" d="M164.7400603,272.3646599l.0993913-.1717367c-4.4175606-3.7598578-8.6141667-7.7749793-12.5179508-12.0733659-.0588702.037654-.1200341.0711986-.1781398.1088526,3.9274851,4.3218965,8.1493213,8.3592854,12.5966993,12.13625Z"/>
  <path class="cls-1" d="M288.7054655,203.0695298c-5.9481865,1.6030668-12.2136605,2.0324563-18.5112456,1.2085599-6.6164018-.8653732-13.1058885-3.1805213-18.801774-6.7027957-6.0498714,4.4361965-21.6978833,13.5906122-44.5846394,10.7923651l-26.6345723,45.8689851c6.7555496,5.6863287,15.3758327,11.4898244,25.8899022,15.8282542l82.6423292-66.9953686Z"/>
  <path class="cls-1" d="M189.8271867,288.6905395l-.1391478.1125798c17.2153361,8.4318219,36.3198713,12.6126592,55.6942921,11.9894567,3.8517948,44.028526-.7515511,88.3872414-13.5615594,130.6867412-.1536742.5184594-.3111712,1.0579438-.4862528,1.5736317-.023701-.0017202-.0481665-.0039183-.0718675-.0056385-4.9244562,16.2548722-11.3107289,32.030277-19.0823633,47.1325925-1.0283176,1.9334473-2.0879817,3.7766779-3.1629367,5.5748002-20.0082314,17.0936774-45.9463001,23.6960306-71.4868037,21.3245926-2.1460873-.2806848-4.3067011-.563281-6.4810767-.847693-12.2427134-1.8871921-24.1046817-5.7224536-35.1348213-11.3601378l-.2966448-.0388008c-2.2401268-1.1546592-4.447378-2.3913162-6.6263409-3.6886593l-.2798247-.165907-.7362601-.4625518c-6.0728079-3.7003186-11.7442278-7.969748-16.9492733-12.7326933,5.2753839,4.8472368,11.0324333,9.1862401,17.2023388,12.9379746l.7362601.4625518.2798247.165907c2.1781984,1.2974386,4.3862141,2.5340001,6.6263409,3.6887548l.2966448.0388008c11.0301396,5.6375887,22.8921079,9.4728501,35.1355859,11.3600423,2.1774338.3709971,4.337283.6535933,6.4803122.8477886,25.4931015,2.3702911,51.2079221-4.172714,71.1725743-21.0713359l.323404-.4891198c1.074955-1.7980267,2.1239154-3.5565835,3.1637012-5.5748002,7.7785153-15.1162685,14.1701399-30.9067731,19.0961252-47.1775097.1750816-.5156879.4166789-1.044182.4854882-1.5736317,12.8100083-42.2994998,17.4133542-86.6582152,13.5623239-130.6867412-19.3988863.6239671-38.5278871-3.5676695-55.7600432-12.0209944Z"/>
  <path class="cls-1" d="M39.1369925,381.846556l2.9312785,21.7312368.0435793-.0542829-2.9167521-21.6263025c-.1727879-1.4575159-.3104066-2.9181856-.4143852-4.3809578-.2071926-2.9254488-.2767665-5.8592122-.2079572-8.7913508.0336401-1.4660215.1024495-2.9316608.2064281-4.3956754,0-.0073588.0007645-.0150043.0015291-.0225542.0007645-.0151954.0022936-.0304864.0030582-.0452039-2.0405797-1.6924234-4.1216804-3.4103637-5.9481865-5.1324133-.0022936.023032-.0038227.0462552-.0061164.0692872,1.9021964,1.7147865,3.8732021,3.4055852,5.8916099,5.0802329-.4136207,5.8560584-.2744729,11.7380159.4159143,17.5679841Z"/>
  <path class="cls-1" d="M161.827131,234.0274321l.0007645.0014335c.0986267.1625621,5.1155933,8.2441253,15.0906561,17.361556l25.3830066-43.7131498c-3.2286879-.6000749-6.4925449-1.412312-9.7502856-2.4478928-10.514834,4.6492188-22.0969776,6.3175589-33.5132142,4.8242048-.8631751-.1128665-1.7248212-.2437954-2.5857027-.3932646-.8134795-.0694783-1.6797128-.1646646-2.5428879-.2775311-11.4147075-1.4932586-22.1780197-6.0844672-31.1431142-13.2818302-3.2325106.1541521-6.414561.1061767-9.5232148-.110095l14.4102081,50.7401141c13.6464242-6.6396249,21.5702038-14.17941,21.723878-14.3286881,3.7034724-3.5986337,9.7938649-2.8035034,12.449906,1.6251432Z"/>
  <path class="cls-1" d="M108.2888653,278.2092501l-.0275237-.0367939c-18.6763881,3.6284511-38.0622771,2.7309669-56.4871288-2.8130602-.015291.0410945-.0298174.084387-.0451084.1254815,18.4539045,5.5244355,37.8657882,6.3951606,56.5597609,2.7243726Z"/>
  <path class="cls-12" d="M231.0975088,21.9499273c-15.3635999-6.8396499-31.6079596-11.4136562-48.28276-13.5949128-16.6763295-2.1813521-33.5522061-1.9396593-50.1574326.7188666C69.3825268,19.2284218,21.9591192,63.5993699,14.6485075,119.4852769l-.023701.1912327-.0099391.1491825c-.6452788,10.5736087-.4464963,21.2632376.5275384,31.8214597.4694327,3.7847057,1.9006673,6.101574,2.6017582,7.01196l.0007645.0001911c1.208751,1.4430851,2.4947214,2.7992984,3.8449139,4.0744695l70.3560366,93.7076381c1.6774192-.1189828,3.3349601-.2675919,4.9542736-.4699106l-64.1119699-85.391263c4.6958562,2.3539489,9.8015104,3.9354173,15.1663464,4.6370816,6.6240473.86652,13.50116.297027,19.9195438-1.6468372,4.7424937,5.8888384,17.6587742,18.92716,40.8322359,21.9808618l15.0455478,52.9757491c1.3463697-.5875554,2.6491602-1.1869614,3.9014904-1.7961153l-14.4102081-50.7401141c3.1086538.2162716,6.2907042.264247,9.5232148.110095,8.9650944,7.197363,19.7284067,11.7885716,31.1431142,13.2818302.8631751.1128665,1.7294085.2080527,2.5428879.2775311.8608815.1494692,1.7225275.2803981,2.5857027.3932646,11.4162366,1.4933541,22.9983801-.174986,33.5132142-4.8242048,3.2577407,1.0355808,6.5215978,1.8478179,9.7502856,2.4478928l-25.3830066,43.7131498c1.0290821.9401078,2.1208572,1.8915883,3.2546825,2.8462225l26.6345723-45.8689851c22.8867561,2.7982471,38.534768-6.3561686,44.5846394-10.7923651,5.6958855,3.5222744,12.1853723,5.8374225,18.801774,6.7027957,6.2975851.8238965,12.5630592.394507,18.5112456-1.2085599l-82.6423292,66.9953686c1.4893403.6146013,3.0207307,1.1948936,4.5857612,1.7459418l87.228855-70.7130807c5.0949505-4.6955695,10.0912742-11.3556461,10.2464775-11.5629343,3.6033166-9.8110672,6.4826058-19.950508,8.5583547-30.1966032l.0359338-.190946.0191137-.1466022c7.3098472-55.885907-27.1055341-110.9620617-85.6401235-137.0507465ZM311.8284671,158.3583576c-2.243185,11.0749613-5.4130026,21.9416787-9.4773419,32.4852789-5.9581256-16.8523668-21.5625583-28.2303759-39.222097-28.9606152,24.1864883-62.9428798-11.8795529-114.1845376-27.3333695-132.2078103,51.1108245,25.6638825,82.9458549,75.8362239,76.0328084,128.6831466ZM19.5576727,120.1272109C26.4699547,67.280097,70.1386652,26.9840007,126.1311311,15.3300851c-19.5686161,13.4417164-67.6021333,53.6825741-60.4192011,120.7294541-17.252799-3.8367905-35.2594427,3.1447787-45.3514815,17.8976956l-.0068809.0503646c-.0275237-.0036316-.047402-.0291484-.0435793-.0569589-1.1896373-11.2340829-1.4411737-22.5476789-.7523156-33.8234297ZM260.1190012,161.8450805s-4.1461459-46.6707097-51.4762786-37.4856165c1.5229804-7.9693657,2.527597-15.420941,3.0979501-22.3816763,5.5131584-67.2873305-29.568909-88.7145637-29.568909-88.7145637,0,0-39.4124696,11.6826817-51.3921783,78.1242305-1.2393329,6.87329-2.1850793,14.3325108-2.7630779,22.4254467-6.0995671-2.9601402-11.6585984-4.6332588-16.7069114-5.3226903-.5611785-.076646-1.1154761-.1410592-1.6644218-.193813-14.259592-1.371122-24.2958188,5.1852628-30.8701704,12.3530951-2.022995,2.205531-3.7179988,4.4688809-5.1071833,6.5770275-.347105.5270605-.6758608,1.0443731-.9855029,1.5486883-.4640809.7564251-.8861116,1.4836062-1.2668567,2.1701706-.2538301.4577733-.4900755.8974842-.7079718,1.3157878-1.4159436,2.7192119-2.0765134,4.53597-2.0765134,4.53597C60.1016739,62.9010505,119.8595407,22.1805343,133.4409783,13.9624992c16.1205028-2.6268927,32.5414732-2.862278,48.7307853-.6992751,16.201545,2.0740286,32.0093475,6.5250382,46.9119247,13.2100582,11.0102614,11.4346813,58.2838175,66.1557989,31.0353128,135.3717982ZM181.7650239,16.4290278c6.240244,4.6701483,37.2472685,31.9733181,24.7323759,103.7614494-4.6683325-7.9484362-11.9407168-14.1100273-20.6642139-17.3686281-9.5828495-3.8503613-19.9845304-5.2109707-30.2348307-3.9549133-5.4168253.5289719-10.6119317,2.1409266-15.3032006,4.6828589-1.1728172.6355308-2.3135234,1.3290718-3.4190604,2.0785204-1.105537.749353-2.1751402,1.5543269-3.2042223,2.4128192-.8807597.7345399-1.7248212,1.516195-2.5436525,2.3273809v-.0000956c6.3396353-72.4174502,43.4339941-91.0004678,50.6368045-93.9393918Z"/>
  <path class="cls-12" d="M112.8516901,277.2177264l-.0214074-.0281927c-1.5176286.3579042-3.040609.685991-4.5689412.9829225l.0275237.0367939c1.5260386-.299703,3.0467253-.6309436,4.5628248-.9915237Z"/>
  <path class="cls-12" d="M168.0627876,275.0940021l.0963331-.1658114c-1.1215925-.8946172-2.227894-1.8058633-3.3196691-2.7352674l-.0993913.1717367c1.0917751.9280662,2.2003703,1.836063,3.3227273,2.7293422Z"/>
  <path class="cls-12" d="M189.6880389,288.8031193l.1391478-.1125798c-1.3861262-.6799702-2.7584906-1.3890889-4.1193867-2.1242977l-.1414415.1146823c1.3616607.7345399,2.7347896,1.442894,4.1216804,2.1221952Z"/>
  <path class="cls-8" d="M235.7956587,29.675211c15.4538166,18.0232726,51.5198579,69.2649305,27.3333695,132.2078103,17.6595387.7302393,33.2639714,12.1082484,39.222097,28.9606152,4.0643392-10.5436002,7.2341569-21.4103176,9.4773419-32.4852789,6.9130466-52.8469227-24.9219839-103.0192641-76.0328084-128.6831466Z"/>
  <path class="cls-8" d="M20.3535676,154.0075994l.0068809-.0503646c10.0920388-14.7529169,28.0986825-21.7344861,45.3514815-17.8976956-7.1829321-67.04688,40.8505851-107.2877377,60.4192011-120.7294541C70.1386652,26.9840007,26.4699547,67.280097,19.5576727,120.1272109c-.6888581,11.2757508-.4373217,22.5893468.7523156,33.8234297-.0038227.0278104.0160555.0533273.0435793.0569589ZM89.0895262,38.1450692c-36.9781475,36.1685863-35.3779477,81.7627163-35.3779477,81.7627163-9.2403319-2.4029756-19.4355846,5.5379107-19.4355846,5.5379107,1.8930218-63.1687083,54.8135323-87.300627,54.8135323-87.300627Z"/>
  <path class="cls-8" d="M136.8760942,105.6283152c-1.105537.749353-2.1751402,1.5543269-3.2042223,2.4128192,1.0290821-.8584923,2.0986853-1.6634662,3.2042223-2.4128192Z"/>
  <path class="cls-8" d="M131.1282194,110.3685152c.8188313-.8111858,1.6628928-1.592841,2.5436525-2.3273809-.8807597.7345399-1.7248212,1.5160995-2.5436525,2.3272853v.0000956Z"/>
  <path class="cls-8" d="M140.2951546,103.5497948c-1.1720527.6355308-2.3135234,1.3290718-3.4190604,2.0785204,1.105537-.7494486,2.2462432-1.4429895,3.4190604-2.0785204Z"/>
  <path class="cls-7" d="M131.1282194,110.3684197c.8188313-.8111858,1.6628928-1.5927454,2.5436525-2.3272853,1.0290821-.8584923,2.0986853-1.6634662,3.2042223-2.4128192,1.105537-.7494486,2.2470077-1.4429895,3.4190604-2.0785204,4.6912689-2.5419323,9.8863752-4.153887,15.3032006-4.6828589,10.2503003-1.2560574,20.6519811.104552,30.2348307,3.9549133,8.7234971,3.2586008,15.9958814,9.4201919,20.6642139,17.3686281,12.5148926-71.7881313-18.4921319-99.0913011-24.7323759-103.7614494-7.2028104,2.938924-44.2971692,21.5219416-50.6368045,93.9393918Z"/>
  <path class="cls-7" d="M53.7115785,119.9077855s-1.6001998-45.59413,35.3779477-81.7627163c0,0-52.9205105,24.1319187-54.8135323,87.300627,0,0,10.1952528-7.9408863,19.4355846-5.5379107Z"/>
  <path class="cls-11" d="M133.4409783,13.9624992c-13.5814376,8.2180351-73.3393044,48.9385514-64.8100026,122.8346381,0,0,.6605698-1.8167581,2.0765134-4.53597.2178963-.4183035.4541417-.8580144.7079718-1.3157878.3807451-.6865645.8027758-1.4137455,1.2668567-2.1701706.3096421-.5043152.6383979-1.0216278.9855029-1.5486883,1.3891844-2.1081466,3.0841882-4.3714966,5.1071833-6.5770275,6.5743516-7.1678323,16.6105783-13.724217,30.8701704-12.3530951.5489457.0527538,1.1032433.117167,1.6644218.193813,5.048313.6894315,10.6073444,2.3625501,16.7069114,5.3226903.5779986-8.0929359,1.5237449-15.5521567,2.7630779-22.4254467,11.9797087-66.4415488,51.3921783-78.1242305,51.3921783-78.1242305-16.1893122-2.163003-32.6102825-1.9276176-48.7307853.6992751ZM115.5291386,91.6778874c-20.35763-8.7223503-29.9488896,3.7344366-29.9488896,3.7344366C101.5149666,31.0118327,151.3864581,18.4260282,151.3864581,18.4260282c-35.8190921,30.3485572-35.8573195,73.2518592-35.8573195,73.2518592Z"/>
  <path class="cls-11" d="M229.0836884,26.4732823c-14.9025772-6.68502-30.7103798-11.1360296-46.9119247-13.2100582,0,0,35.0820675,21.4272332,29.568909,88.7145637-.5703531,6.9607353-1.5749697,14.4123106-3.0979501,22.3816763,47.3301327-9.1850932,51.4762786,37.4856165,51.4762786,37.4856165,27.2485047-69.2159994-20.0250515-123.9371169-31.0353128-135.3717982Z"/>
  <path class="cls-10" d="M85.580249,95.412324s9.5912596-12.4567869,29.9488896-3.7344366c0,0,.0382274-42.9033019,35.8573195-73.2518592,0,0-49.8714915,12.5858045-65.8062091,76.9862958Z"/>
  <path class="cls-6" d="M180.1732342,254.2366441c-1.1338253-.9546342-2.2256004-1.9061147-3.2546825-2.8462225-9.9750629-9.1174307-14.9920294-17.1989939-15.0906561-17.361556l-.0007645-.0014335c-2.6560411-4.4286466-8.7464336-5.2237769-12.449906-1.6251432-.1536742.1492781-8.0774538,7.6890632-21.723878,14.3286881-1.2523303.6091539-2.5551207,1.2085599-3.9014904,1.7961153-7.5713227,3.3026579-16.6075201,6.1636936-26.851704,7.4444077-1.6193135.2023186-3.2768544.3509277-4.9542736.4699106-5.8793771.4170611-12.1012719.3121269-18.6412189-.5433072-9.2388028-1.2085599-18.595346-3.8292406-27.8081541-7.7880722l-.0007645-.0002867c-4.1048603-1.764291-8.8595868.1716411-10.5645297,4.3015404l-.0007645.0008601c-23.1704035,56.122917-32.1721963,117.7196183-26.0259918,178.180105,8.2196598,75.8741646,34.8328247,95.465526,99.6030707,136.2927923l.0007645.0002867c1.9832385,1.2497499,4.4145024,1.567802,6.6523355.8702472l.0007645-.0001911c65.4354031-20.3853449,101.4792725-31.6143627,129.7538011-102.0185658,22.775132-57.9480852,30.5016581-121.2073925,22.3431622-182.9345448v-.0008601c-.5856441-4.4262573-4.6775071-7.5193334-9.0950677-6.8752014h0c-9.8932562,1.4407914-19.5854361,1.5592009-28.8074188.3550372l-.0107037-.001338c-6.7433168-.8820977-12.9682698-2.4523845-18.6962664-4.4690721-1.5650306-.5510483-3.096421-1.1313405-4.5857612-1.7459418-10.5140695-4.3384298-19.1343526-10.1419255-25.8899022-15.8282542ZM259.3169899,283.8524773c8.0017635,60.5396175.4809009,122.119881-21.8569094,178.9539236-26.3256947,65.5548638-57.0406618,76.2287239-124.6810225,97.3025446-62.2304163-39.2251552-88.0163399-57.5049338-95.9110665-130.3796795-6.0276995-59.2981821,2.7210277-119.166335,25.4655778-174.2597876,65.7351061,28.2447112,112.6248589-17.3221818,112.6248589-17.3221818,0,0,33.6034309,56.0097639,104.3585617,45.7051807Z"/>
  <path class="cls-6" d="M22.4331392,388.5305247c.0787485-5.6483879.2920575-11.2899905.6391625-16.9202204-.347105,5.6302299-.560414,11.2718325-.6391625,16.9202204Z"/>
  <path class="cls-6" d="M148.8710939,252.4734044c.9143999-.3851413,1.8754372-.5958699,2.8387682-.6382068-.963331.0423369-1.9243683.2530655-2.8387682.6382068Z"/>
  <path class="cls-6" d="M23.0723017,371.6103043c.6942099-11.2603643,1.9236038-22.4751423,3.6820651-33.6061068-1.7584613,11.1309645-2.9878551,22.3457425-3.6820651,33.6061068Z"/>
  <path class="cls-6" d="M29.2215644,459.1340838c-3.8739667-17.6356466-6.0903925-35.5949839-6.61946-53.6432955.5221866,18.0693367,2.7355541,36.0500813,6.6110499,53.7068485,10.7174393,47.1782743,43.7749827,66.0216206,81.3089568,90.6636842,1.0558413.6801614,2.2370686,1.1009497,3.4511714,1.256822-1.2163965-.1758461-2.3953301-.6189019-3.4427614-1.3203751-37.5370324-24.6208474-70.5915175-43.48541-81.3089568-90.6636842Z"/>
  <path class="cls-6" d="M47.6976408,267.9491062c-1.3731289.6911517-2.5566498,1.7595126-3.3831266,3.120791.8264768-1.3612784,2.0099977-2.4296392,3.3831266-3.120791Z"/>
  <path class="cls-6" d="M76.6579693,271.6759929c2.9190458.2329961,5.8442079.3529347,8.7678409.3530302-2.923633,0-5.8487952-.1200341-8.7678409-.3530302Z"/>
  <path class="cls-6" d="M99.1953268,271.1674727c-4.5383592.5714999-9.1073004.8596391-13.6785353.8633663,4.5712348-.0036316,9.140176-.2918663,13.6785353-.8633663Z"/>
  <path class="cls-6" d="M47.6976408,267.9491062c1.3738935-.6910562,2.9366304-1.0049989,4.5223037-.8573455-1.5856734-.147749-3.1484103.1662893-4.5223037.8573455Z"/>
  <path class="cls-6" d="M28.1733686,329.6722447c1.516864-8.3150372,3.3319019-16.5777983,5.4405264-24.7721324-2.1086245,8.1943341-3.9236623,16.4570953-5.4405264,24.7721324Z"/>
  <path class="cls-6" d="M63.6094219,269.834387c2.5054251.506131,5.0230829.9270149,7.5483863,1.256822-2.5260679-.3298071-5.0429612-.750691-7.5483863-1.256822Z"/>
  <path class="cls-6" d="M35.8211461,296.7291925c1.5367423-5.4312562,3.2034578-10.8297324,5.0001465-16.1907457-1.7966887,5.3610133-3.4634042,10.7594895-5.0001465,16.1907457Z"/>
  <path class="cls-6" d="M114.065793,551.1300892c-.0160555-.0021025-.032111-.0017202-.047402-.0039183.015291.0019114.0313465.0021025.047402.0039183Z"/>
  <path class="cls-6" d="M125.8536001,264.3479878c-8.6225768,3.400329-17.5807903,5.6764851-26.6582733,6.8194849,9.077483-1.1429043,18.0356965-3.419156,26.6582733-6.8194849Z"/>
  <path class="cls-6" d="M142.3319115,256.3745126c-5.285323,3.0608695-10.7931296,5.7263719-16.4783115,7.9734752,5.6851818-2.2471033,11.1929884-4.9126057,16.4783115-7.9734752Z"/>
  <path class="cls-5" d="M154.9584282,238.1472967s-46.8897528,45.566893-112.6248589,17.3221818c-22.7445501,55.0934526-31.4932773,114.9616055-25.4655778,174.2597876,7.8947267,72.8747457,33.6806503,91.1545243,95.9110665,130.3796795,67.6403607-21.0738207,98.3553278-31.7476808,124.6810225-97.3025446,22.3378103-56.8340426,29.8586729-118.414306,21.8569094-178.9539236-70.7551308,10.3045832-104.3585617-45.7051807-104.3585617-45.7051807ZM204.6028489,286.0273308c1.4342928.5137765,2.8792892.9977357,4.3342248,1.4514951,2.9083421.9076145,5.8549116,1.6944304,8.832063,2.3584406,8.9291607,1.9917441,18.1289714,2.8764222,27.3937688,2.5899077,1.6483663-.0422413,3.2026932.3972785,4.5230683,1.194129,1.3211396.796755,2.4083274,1.9508408,3.1208865,3.3375404.4755491.9244346.7844266,1.9523699.8861116,3.0467253,3.4580524,39.4709575.2790602,79.201957-9.3664823,117.5502708-1.3777162,5.4783715-2.8876993,10.9284547-4.5291847,16.3455668-5.1522916,17.3271513-11.9162512,34.1336452-20.2024267,50.1995784-22.4708418,42.8370729-59.2838468,52.5407211-101.8714858,66.7022598-1.1949891.3856191-2.4442612.4884509-3.6575995.3268444-.0160555-.0018158-.032111-.0020069-.047402-.0039183-.015291-.0021025-.0298174-.0058297-.0451084-.0080278-1.2141028-.1558723-2.3953301-.5766606-3.4511714-1.256822-37.5339742-24.6420636-70.5915175-43.48541-81.3089568-90.6636842-3.8754958-17.6567672-6.0888634-35.6375119-6.6110499-53.7068485-.1911371-5.6569891-.2469491-11.3119713-.1689652-16.9602637.0787485-5.6483879.2920575-11.2899905.6391625-16.9202204.6942099-11.2603643,1.9236038-22.4751423,3.6820651-33.6061068.4403799-2.782765.9128708-5.5602737,1.4190018-8.3319528,1.516864-8.3150372,3.3319019-16.5777983,5.4405264-24.7721324.7033845-2.7314447,1.4388801-5.4552439,2.2072512-8.1709198,1.5367423-5.4312562,3.2034578-10.8297324,5.0001465-16.1907457.8983444-2.6805067,1.8295643-5.3516476,2.7928953-8.0127538.189608-.5157835.4250889-1.0020362.7003263-1.4557957.8264768-1.3612784,2.0099977-2.4296392,3.3831266-3.120791,1.3738935-.6910562,2.9366304-1.0050944,4.5223037-.8573455.5283029.0492178,1.0596641.1497559,1.5864379.3046725,3.238627.9702119,6.5116586,1.7728922,9.8030395,2.4379537,2.5054251.506131,5.0223184.9270149,7.5483863,1.256822,1.8303288.2390169,3.6637159.4381818,5.5001611.584784,2.9190458.2329961,5.8442079.3530302,8.7678409.3530302.0305819,0,.0603993.0019114.0909813.0018158,4.5712348-.0037272,9.140176-.2918663,13.6785353-.8633663,9.077483-1.1429998,18.0356965-3.419156,26.6582733-6.8194849,5.6851818-2.2471033,11.1929884-4.9126057,16.4783115-7.9734752,1.762284-1.0202898,3.499338-2.0845412,5.2096327-3.1917984.4273826-.2805893.8731143-.5167391,1.3295497-.7093098.9143999-.3851413,1.8754372-.5958699,2.8387682-.6382068,2.4067983-.1056988,4.8227713.8411944,6.5277142,2.7466401,5.4734019,6.0401234,11.5316834,11.5228911,18.0869213,16.3680254,8.7005607,6.4211552,18.2360082,11.4809365,28.2783513,15.0774677Z"/>
  <path class="cls-13" d="M176.3244976,270.9498631c-6.5552379-4.8451343-12.6135194-10.3279019-18.0869213-16.3680254-1.7049429-1.9054457-4.1209158-2.8523389-6.5277142-2.7466401-.963331.0423369-1.9243683.2530655-2.8387682.6382068-.4564354.1925706-.9021671.4287205-1.3295497.7093098-1.7102948,1.1072572-3.4473487,2.1715086-5.2096327,3.1917984-5.285323,3.0608695-10.7931296,5.7263719-16.4783115,7.9734752-8.6225768,3.400329-17.5807903,5.6765807-26.6582733,6.8194849-4.5383592.5714999-9.1073004.8597347-13.6785353.8633663-.0305819.0000956-.0603993-.0018158-.0909813-.0018158-2.923633-.0000956-5.8487952-.1200341-8.7678409-.3530302-1.8364452-.1466022-3.6698323-.345767-5.5001611-.584784-2.5253033-.3298071-5.0429612-.750691-7.5483863-1.256822-3.2913808-.6650615-6.5644125-1.4677418-9.8030395-2.4379537-.5267738-.1549166-1.058135-.2554547-1.5864379-.3046725-1.5856734-.1476534-3.1484103.1662893-4.5223037.8573455-1.3731289.6911517-2.5566498,1.7595126-3.3831266,3.120791-.2752374.4537595-.5107183.9400122-.7003263,1.4557957-.963331,2.6611062-1.8945509,5.3322472-2.7928953,8.0127538-1.7966887,5.3610133-3.4634042,10.7594895-5.0001465,16.1907457-.7683711,2.7156759-1.5038667,5.4394751-2.2072512,8.1709198-2.1086245,8.1943341-3.9236623,16.4570953-5.4405264,24.7721324-.506131,2.7716791-.9786219,5.5491878-1.4190018,8.3319528-1.7584613,11.1309645-2.9878551,22.3457425-3.6820651,33.6061068-.347105,5.6302299-.560414,11.2718325-.6391625,16.9202204-.0779839,5.6482924-.0221719,11.3032745.1689652,16.9602637.5290675,18.0483116,2.7454933,36.0076489,6.61946,53.6432955,10.7174393,47.1782743,43.7719245,66.0428368,81.3089568,90.6636842,1.0474313.7014731,2.2263649,1.1445289,3.4427614,1.3203751.015291.0021981.0298174.0059253.0451084.0080278.015291.0021981.0313465.0018158.047402.0039183,1.2133383.1616064,2.4626104.0587747,3.6575995-.3268444,42.587639-14.1615387,79.400644-23.8651869,101.8714858-66.7022598,8.2861755-16.0659332,15.0501351-32.872427,20.2024267-50.1995784,1.6414854-5.4171121,3.1514685-10.8671953,4.5291847-16.3455668,9.6455425-38.3483138,12.8245347-78.0793133,9.3664823-117.5502708-.1016849-1.0943555-.4105625-2.1222908-.8861116-3.0467253-.7125591-1.3866996-1.7997469-2.5407854-3.1208865-3.3375404-1.3203751-.7968506-2.874702-1.2363703-4.5230683-1.194129-9.2647974.2865145-18.4646082-.5981635-27.3937688-2.5899077-2.9771514-.6640103-5.9237209-1.4508261-8.832063-2.3584406-1.4549356-.4537595-2.899932-.9377186-4.3342248-1.4514951-10.0423431-3.5965312-19.5777906-8.6563125-28.2783513-15.0774677ZM245.2684133,296.7277589c2.2003703-.0588702,4.0628101,1.6132927,4.2409499,3.8076421,3.9121941,44.5578802-.7393183,89.4528307-13.7037654,132.2622843-5.087305,17.0696897-11.7534024,33.6284698-19.9118983,49.4619803-21.7613409,41.5296952-58.0689794,50.8256479-99.4838012,64.5805425-1.1942246.4578689-2.5352425.3224483-3.6140202-.3650719-36.5041275-23.9472803-69.1327592-42.2822019-79.5115036-88.1020649-3.8319165-17.395674-6.0147022-35.1138918-6.5193041-52.9194593-1.5138058-44.702571,5.5315076-89.2823364,20.7559597-131.3397611.0978622-.2549769.2186608-.4955229.3585732-.720109.4189725-.6739494,1.0099684-1.2044504,1.6942392-1.5514598.9128708-.4627429,1.9901195-.5993104,3.0459608-.3142294,3.0704263.9228099,6.1683764,1.7128751,9.2854402,2.3706734,9.3527205,1.9732994,18.8789934,2.7558147,28.3563353,2.3569116,3.1583494-.1329359,6.3121115-.3972785,9.4521118-.7924544,3.1392357-.3951759,6.2647095-.9211852,9.368776-1.5779323,6.2073684-1.313303,12.3260492-3.1490793,18.2895266-5.504175,7.8358565-3.1010083,15.3421926-6.975644,22.4089133-11.5664703,1.7255857-1.0692209,3.9657125-.7762078,5.3579551.7009953,5.656129,6.2550571,11.920074,11.9309688,18.7008536,16.9438259,20.6290447,15.241081,45.7926259,23.0860165,71.428698,22.268332Z"/>
  <path class="cls-4" d="M137.7836132,507.2846725c-2.1430291-.1941953-4.3028783-.4767915-6.4803122-.8477886-12.2434779-1.8871921-24.1054462-5.7224536-35.1355859-11.3600423l-.2966448-.0388008c-2.2401268-1.1547548-4.4481425-2.3913162-6.6263409-3.6887548l-.2798247-.165907-.7362601-.4625518c-6.1699055-3.7517345-11.9269549-8.0907378-17.2023388-12.9379746-8.7892483-8.0427624-16.2451242-17.4962121-22.031991-28.0181182-1.4449965-2.6231655-2.7913662-5.3412306-4.0199954-8.130112-2.2821769-5.2041853-4.1583787-10.577527-5.6102561-16.0715717-.3386949-1.2507056-.6498661-2.497684-.9319845-3.7410308-.1284441-.662959-.2813538-1.3076645-.4128561-1.9495984-.3952715-1.7534917-.70262-3.1939009-1.0955978-5.2918217-.3937424-2.0980164-.8004822-4.0900472-1.1384126-6.2883149-2.0994499-12.7741701-3.3770102-25.6699989-3.8242711-38.6077824l-.0030582-.0977666c-.1062722,1.4913472-.2079572,2.9768647-.2790602,4.3907058l-.1720234,3.2949169c-.0940395,2.0341766-.1666715,4.0712202-.2393036,6.1081682-.0282883,1.2026346-.0550475,2.2331503-.0718675,3.3511112-.0405211,2.1775294-.0634575,4.3286819-.0688094,6.453553.0022936.9697341-.0160555,1.9366011-.0137619,2.9063351.0275237,3.0839971.0756903,6.1708612.1903725,9.2448236.0451084.975277.0688094,1.9477826.1131532,2.9229641.0443438.6520642.0665157.9780485.1139177,1.9321094s.0925104,1.9292423.1582615,2.9072908l.071103,1.431139c.0405211.8453038.1230923,1.6962462.1842562,2.544417l.1292087,1.9772177c.1360896.2762887.1001558.5516217.0665157.805834.0940395,1.2616004.2110154,2.5048517.3256976,3.7693191.0611639.5248625.0970976,1.0681697.1582615,1.5931277l-.0359338.275333c.032111.4135251.1727879.8196914.1223277,1.2009144.2110154,2.0094243.4250889,3.997728.6812126,5.9915746l.3195812,2.4975885.7056782,4.9822752.4273826,2.6624442c.2737083,1.6945259.5711176,3.3707027.8662333,5.0680001.157497.7744875.2935866,1.5462036.4289116,2.3180152.4793718,2.4322196.9793865,4.8672106,1.5275677,7.2655034.3922133,1.7746124.837945,3.4701896,1.3050841,5.1684427l.3845678,1.3428337c.4159143,1.4330504.876937,2.8505231,1.3433115,4.2255634l.1666715.5388155c-.0107037.0488355-.0175846.09834-.0198783.1482268.4174434,1.5841443,1.0000293,3.0604872,1.564266,4.512938l.4786073,1.118152c.489311,1.0333827.95645,2.236304,1.4618165,3.3147951l.5420648,1.1264665c.6598053,1.3787675,1.3249624,2.715198,2.038286,4.0148347l.2255418.4172523c.6712735,1.1218792,1.3326078,2.3285277,2.0252887,3.4531784l.2989384.513012.2889993.4255667c1.0137912,1.6405297,2.0589288,3.198966,3.152233,4.720704l.4916046.6890492c1.1330607,1.5484016,2.3112298,3.0812256,3.5192162,4.5532679l.1682006.1942909.260711.3141338.2813538.3169053c1.445761,1.6324064,2.9511568,3.2941523,4.4871345,4.8952122l.2446555.2690255.3027612.3196768.4189725.4209795,2.0879817,2.3194487.7240273.7195356c.9778574.9249124,1.9763576,1.8526919,2.9993233,2.7619311l.6567471.5813435,2.456494,2.1308919,1.0497249.8696738,2.236304,1.8435173.6437497.5151145.4694327.3629693,1.7194693,1.3451273.9182226.7232628.4900755.3657408.6491016.472682.8234186.624636.4510836.3390772c1.5115122,1.1239817,3.0474899,2.2296142,4.6041104,3.3380183l.1483224.0194004.3562796.2404505,5.1324133,3.5796156.1483224.0194004c1.7416412,1.1755887,3.5023962,2.3752607,5.3074949,3.5592595l.4174434.2699812.2767665.1870277,8.3412229,5.3995274,1.7263503,1.1305759,2.898403,1.8870966.7224982.5684417.6154615.403586,2.9312785,1.6327887,6.304466-2.0834899.71944-.2289822,3.7822209-1.2501322,1.1468226-.3669832,2.4526712-.7993353,1.374658-.4663745,2.2508305-.739605,1.3754226-.4663745,2.2538887-.7607256,1.2423911-.4406666,2.4817241-.8600214.9931484-.3440468c1.1491162-.3881994,2.2798833-.800291,3.4114149-1.2124782l.4510836-.1564457,2.8754665-1.067214,1.1552326-.4305363,2.2592405-.8030625,1.271444-.5014482,1.9786512-.796755,1.3196105-.5381465,1.8907282-.7867203,1.3257269-.5805789,1.848678-.7922633,1.3066132-.6045666,1.8142733-.8612638,1.2836767-.5861219,1.8647335-.9193694,1.1559972-.6027508c.7117946-.3377393,1.3868908-.7233583,2.0803362-1.0849897l.9014026-.4637942,2.8861702-1.6473151.6062869-.3515967,2.3280499-1.3326078,1.0351985-.6617166,1.7653422-1.1476827,1.1330607-.7566162,1.611668-1.1247463,1.1414707-.8200737,1.5298613-1.1570484,1.1498808-.8836268c.5030728-.3865748,1.1307671-.9076145,1.493163-1.2049283s.7454347-.5917605,1.1101243-.9102904l1.4832239-1.2924691,1.0489604-.9398211c.5114829-.4501279,1.0069102-.9453641,1.5206867-1.4167082l.9595082-.9085702c.5458876-.5532463,1.1162407-1.1249374,1.6682446-1.7205206.2477137-.2476181.4923692-.47402.7217337-.7456258.7958949-.8150086,1.5749697-1.6610769,2.3356953-2.5381095l.5627076-.6803525c.5703531-.5715955,1.1330607-1.251948,1.6751255-1.935072.3042903-.3479651.5680595-.7226894.8509424-1.0734259l1.374658-1.7805376.892228-1.2188813,1.2416266-1.7548297.909048-1.3459874c.379216-.5965389.8631751-1.3303142,1.1598199-1.7869407.2966448-.4567221.5963477-.9345648.876937-1.4362997l.2140735-.3238818c-19.9646521,16.8986219-45.6794727,23.4416271-71.1725743,21.0713359Z"/>
  <path class="cls-9" d="M35.7852123,408.2922848c.3379304,2.1982678.7446701,4.1902986,1.1384126,6.2883149.3929779,2.0979208.7003263,3.53833,1.0955978,5.2918217.1315023.6419339.284412,1.2866394.4128561,1.9495984.2821184,1.2433468.5932896,2.4903252.9319845,3.7410308,1.4518774,5.4940447,3.3280791,10.8673864,5.6102561,16.0715717,1.2286293,2.7888814,2.574999,5.5069465,4.0199954,8.130112,5.7868668,10.5219061,13.2427427,19.9753558,22.031991,28.0181182,5.2050454,4.7629453,10.8764654,9.0323747,16.9492733,12.7326933l.7362601.4625518.2798247.165907c2.1789629,1.2973431,4.3862141,2.5340001,6.6263409,3.6886593l.2966448.0388008c11.0301396,5.6376843,22.8921079,9.4729457,35.1348213,11.3601378,2.1743756.284412,4.3349894.5670082,6.4810767.847693,25.5405035,2.371438,51.4785723-4.2309152,71.4868037-21.3245926,1.074955-1.7981222,2.1346191-3.6413528,3.1629367-5.5748002,7.7716344-15.1023155,14.1579071-30.8777203,19.0823633-47.1325925-8.1095648-.568155-16.2703543-1.3996014-24.5267124-2.4796216-.8631751-.112962-1.7202339-.2361499-2.5803508-.3540815-5.7845731-.7922633-11.5033951-1.693857-17.1488204-2.7033475-11.3420754-2.0281557-22.3890351-4.4835029-33.0843025-7.3259983-6.8067743-1.8092082-13.4698136-3.7759134-19.9761204-5.8875005-3.4832825-1.1301937-6.9199275-2.3018641-10.3106996-3.5140555-5.8197424-2.0811007-11.4666968-4.3037385-16.9951462-6.6123879-10.767135,6.6722138-18.93557,17.4623808-21.9257188,30.6307712-.0932749.4491722-.4327344,2.4708293-.8440614,4.9729094,2.717205,2.4041224,4.195077,6.0945019,3.5880256,9.9436208-.9449818,5.9945372-6.5728225,10.0890761-12.5668819,9.1439032-5.9948239-.9452685-10.0897451-6.5728225-9.1439988-12.5673597.6101096-3.8692838,3.175934-6.9367476,6.5261851-8.3785902l7.3350773-46.5113014c-3.9397179-2.1074776-7.7792799-4.2704806-11.4965142-6.4943607.0015291-.0064987.0030582-.013284.0053518-.0197827-2.4710204-1.4757695-4.8931097-2.9761002-7.2632097-4.4999407l-.0045873.0045873-.0030582.0046829-8.1722578,10.1400142-8.1722578,10.1400142v-.0000956.0000956l-2.3769809,2.9489587-.0137619-.1049343-.0435793.0542829-2.9312785-21.7312368c-.6903872-5.8299682-.829535-11.7119257-.4159143-17.5679841-2.0184078-1.6746477-3.9894135-3.3654464-5.8916099-5.0802329-.1934307,2.0216571-.3073485,4.0534444-.5703531,6.0659269l.0137619-.1059855c.0244655.800291-.0619284,1.456847-.150616,2.1346191-.0550475.7602478-.110095,1.5278544-.1643779,2.2938363l.0030582.0977666c.4472608,12.9377834,1.7248212,25.8336123,3.8242711,38.6077824Z"/>
  <path class="cls-9" d="M94.2089422,398.7155517c-1.224042-.5722645-2.4335575-1.1540858-3.6407794-1.7373406l-.9182226,5.8217493c1.4518774-1.4390712,2.9748578-2.800923,4.5590021-4.0844086Z"/>
  <path class="cls-11" d="M85.1505728,356.2617086c-.9793865-.8576322-1.7974533-1.8801201-2.4190311-3.0196794l-21.8767877,27.1481577h0c2.3701,1.5238405,4.7921893,3.0241712,7.2632097,4.4999407-.0022936.0064987-.0038227.013284-.0053518.0197827,3.7172343,2.2238801,7.5567963,4.3868831,11.4965142,6.4943607l5.5414467-35.1425624Z"/>
  <path class="cls-11" d="M55.1772177,283.4304466c3.9527152.9605595,7.8022163,1.7125884,11.5553844,2.2967989,1.5436232.2402593,3.0757782.4598759,4.5842322.6418384,1.7263503.2080527,3.4289995.3789293,5.1087123.5149233.0833358.0067854.1643779.0098436.2477137.0164378,3.6897105.2916752,7.2685616.4187814,10.7266139.3988076,1.1781691-.0067854,2.3433408-.0302952,3.4939861-.0694783,4.6033459-.1567324,8.9834436-.564619,13.1265313-1.1611579,1.3815389-.1987826,2.7363187-.4185902,4.0643392-.6570338s2.6300465-.4955229,3.9045486-.7689445c1.2737376-.2734216,2.5214806-.5630899,3.7401707-.8668067,1.5245095-.3796938,3.0062043-.7811773,4.4427907-1.2001498,2.8739374-.8378495,5.5720287-1.7452728,8.0858638-2.6858585,6.2838232-2.3514641,11.4200593-4.9108855,15.2932615-7.1128804,1.2393329-.7046269,2.3494572-1.3727466,3.32655-1.9856277,1.2821477-.804496,2.3356953-1.513997,3.1514685-2.0865481.5435939-.3817964.9816801-.70262,1.3112005-.9502381.3302849-.2476181.5520039-.4220307.663628-.5108139.0550475-.0443438.0833358-.0673758.0833358-.0673758l-56.632393,70.2767147c5.2318046,1.5239361,8.6447487,6.7267834,7.773928,12.2509323-.6101096,3.8692838-3.175934,6.9368431-6.5269496,8.3785902l-6.1339717,38.8956348c1.2072219.5832549,2.4167375,1.1650762,3.6407794,1.7373406,12.9269842-10.4695345,30.0482809-15.6120781,47.5686718-12.8547344l1.4159436.2232481c15.798628,2.4991176,31.0284319-4.3115751,39.7534581-16.953096-1.4113563-2.4783792-1.8670272-5.497963-1.0214367-8.4559052,1.6682446-5.8349378,7.7525207-9.2137638,13.587554-7.5456148,5.8350333,1.6682446,9.2135727,7.7526163,7.5453281,13.5876496-1.295145,4.5326251-5.2593284,7.570367-9.6975318,7.9241618-11.0882453,17.0291686-31.1744606,26.2668245-51.988526,22.9936017l-1.4144145-.2232481c-11.9598305-1.8879567-23.6795928.7858602-33.3174898,6.7587033,5.5284494,2.3086494,11.1754038,4.5312872,16.9951462,6.6123879,3.3907721,1.2121915,6.8274171,2.3838619,10.3106996,3.5140555,6.5063068,2.1115871,13.169346,4.0782923,19.9761204,5.8875005,10.6952674,2.8424953,21.7422271,5.2978425,33.0843025,7.3259983,5.6454253,1.0094906,11.3642473,1.9110843,17.1488204,2.7033475.8601169.1179316,1.7171757.2411194,2.5803508.3540815,8.2563581,1.0800202,16.4171476,1.9114665,24.5267124,2.4796216.023701.0017202.0481665.0039183.0718675.0056385.1750816-.5156879.3325786-1.0551723.4862528-1.5736317,12.8100083-42.2994998,17.4133542-86.6582152,13.5615594-130.6867412-19.3744208.6232025-38.478956-3.5576348-55.6942921-11.9894567-1.3868908-.6793012-2.7600197-1.3876553-4.1216804-2.1221952-4.9137525-2.6506893-9.6654208-5.6367286-14.19537-8.9901334-1.1238861-.8393786-2.2118385-1.7235788-3.3082009-2.5967886-1.122357-.8932792-2.2309522-1.801276-3.3227273-2.7293422-4.447378-3.7769646-8.6692142-7.8143535-12.5966993-12.13625-7.2532706,4.6588712-14.9278073,8.6261128-22.9272771,11.8404654-.038992.0155777-.0787485.0286706-.118505.0441527-.0282883.0116594-.0565766.0252301-.0856294.0368895-5.2815003,2.0924734-10.6860929,3.7658787-16.1602593,5.067809-1.5160995.3605801-3.0367862.6918207-4.5628248.9915237-18.6939727,3.670788-38.1058564,2.8000629-56.5597609-2.7243726-1.0841296,2.9421733-2.1239154,6.0115484-3.1361775,9.0445119l-.8822888,2.7927041c-.7232628,2.2320035-1.4251182,4.4667784-2.0841589,6.7070008-.2882347.8885964-.6016996,1.9677564-.8830534,2.9649187-.7408474,2.5313242-1.4411737,5.0892164-2.1239154,7.6711918-.1620843.5819169-.3853324,1.1343987-.4625518,1.7274015-.829535,3.2090007-1.5780279,6.2992098-2.3165816,9.4769596l-.4984856,2.3259473c-.5542976,2.4263899-1.0688387,4.8794434-1.5596787,7.3141478l-.584115,2.9825033c-.4487899,2.4401518-.9816801,4.8693131-1.3027905,7.3260938-.1055077.8047828-.2079572,1.5884449-.3134648,2.3933232-.5718822,3.2210424-.9985002,6.4827014-1.4228246,9.7231442l-.1689652,1.2918956c-.3524568,2.8619913-.6154615,5.6927318-.9809156,8.4883985-.0496956.3813185-.1024495.7836621-.1521451,1.164885-.00841.0829535-.0137619.1661937-.0214074.2491472,1.8265061,1.7220497,3.9076068,3.4399899,5.9481865,5.1324133,1.2225129-21.7851374,7.702825-50.9144311,16.3934466-80.8310185Z"/>
  <path class="cls-10" d="M111.9892796,284.6426381c-1.2745022.2734216-2.5765281.530501-3.9045486.7689445s-2.6828003.4582512-4.0643392.6570338c1.3815389-.1987826,2.7363187-.4185902,4.0651038-.6570338,1.3280206-.2384435,2.6292819-.4955229,3.9037841-.7689445Z"/>
  <path class="cls-10" d="M76.6732603,286.9004451c-.0833358-.0065942-.1643779-.0096524-.2477137-.0164378-1.6797128-.135994-3.3823621-.3068706-5.1087123-.5149233,1.7263503.2080527,3.4289995.3789293,5.1087123.5149233.0833358.0067854.1643779.0098436.2477137.0164378Z"/>
  <path class="cls-10" d="M151.3405852,267.7545287c.3302849-.2476181.5520039-.4220307.663628-.5108139-.1116241.0887832-.3333431.2631958-.663628.5108139Z"/>
  <path class="cls-10" d="M146.8779163,270.7913149c1.2821477-.804496,2.3356953-1.513997,3.1514685-2.0865481-.8157731.5725512-1.8693208,1.2820521-3.1514685,2.0865481-.9770928.6128811-2.0872171,1.2810008-3.32655,1.9856277-3.8732021,2.2019949-9.0094382,4.7614162-15.2932615,7.1128804,6.2838232-2.3514641,11.4200593-4.9108855,15.2932615-7.1128804,1.2393329-.7046269,2.3494572-1.3727466,3.32655-1.9856277Z"/>
  <polygon class="cls-10" points="52.6748508 390.5394712 60.8471086 380.399457 60.8501668 380.3947741 60.8471086 380.399457 52.6748508 390.5394712"/>
  <path class="cls-10" d="M42.1118503,403.5235098l.0137619.1049343,2.3769809-2.9489587v-.0000956c-.0015291-.0387053-.0030582-.0776017-.0045873-.1163069l-2.3861555,2.9604269Z"/>
  <path class="cls-2" d="M76.6732603,286.9004451c-.0833358-.0065942-.1643779-.0096524-.2477137-.0164378"/>
  <path class="cls-2" d="M111.9892796,284.6426381c-1.2745022.2734216-2.5765281.530501-3.9045486.7689445"/>
  <path class="cls-10" d="M38.7837711,364.2614651c.0527538.0439615.1062722.0884009.1590261.1322669.0657512-1.3660568.1521451-2.7606887.2599465-4.1821753.2140735-2.8430688.5107183-5.7938433.8822888-8.8396129,2.417502-19.7976939,8.0239354-43.6095535,15.0921852-67.9414016,3.9527152.9605595,7.8022163,1.7124928,11.5553844,2.2967034-3.7531681-.5842105-7.6026692-1.3362395-11.5553844-2.2967989-8.6906216,29.9165874-15.1709337,59.0458811-16.3934466,80.8310185-.0007645.0147176-.0022936.0300085-.0030582.0452039.0007645-.0150998.0022936-.0303908.0030582-.0452039Z"/>
  <path class="cls-2" d="M143.5513662,272.7769426c1.2393329-.7046269,2.3494572-1.3727466,3.32655-1.9856277"/>
  <path class="cls-6" d="M173.8397153,274.4594269c-6.7807797-5.0128571-13.0447246-10.6887688-18.7008536-16.9438259-1.3922426-1.4772031-3.6323694-1.7702162-5.3579551-.7009953-7.0667208,4.5908264-14.5730569,8.4654621-22.4089133,11.5664703-5.9634774,2.3550957-12.0821582,4.190872-18.2895266,5.504175-3.1040665.6567471-6.2295403,1.1827564-9.368776,1.5779323-3.1400002.3951759-6.2937624.6595186-9.4521118.7924544-9.4773419.3989031-19.0036148-.3836122-28.3563353-2.3569116-3.1170638-.6577983-6.2150139-1.4478635-9.2854402-2.3706734-1.0558413-.285081-2.13309-.1485135-3.0459608.3142294-.6842708.3470094-1.2752667.8775104-1.6942392,1.5514598-.1399124.2245861-.260711.4651321-.3585732.720109-15.2244521,42.0574247-22.2697655,86.6371901-20.7559597,131.3397611.5046019,17.8055675,2.6873876,35.5237853,6.5193041,52.9194593,10.3787444,45.8198629,43.0073761,64.1547846,79.5115036,88.1020649,1.0787778.6875201,2.4197957.8229408,3.6140202.3650719,41.4148218-13.7548945,77.7224603-23.0508473,99.4838012-64.5805425,8.1584959-15.8335105,14.8245933-32.3922907,19.9118983-49.4619803,12.9644471-42.8094536,17.6159595-87.7044041,13.7037654-132.2622843-.1781398-2.1943495-2.0405797-3.8665124-4.2409499-3.8076421-25.6360721.8176845-50.7996533-7.027251-71.428698-22.268332ZM232.024906,431.3982751c-.0688094.5294498-.3104066,1.0579438-.4854882,1.5736317-4.9259853,16.2707366-11.3176098,32.0612412-19.0961252,47.1775097-1.0397858,2.0182166-2.0887462,3.7767735-3.1637012,5.5748002l-.323404.4891198-.2140735.3238818c-.2805893.5017349-.5802922.9795776-.876937,1.4362997-.2966448.4566265-.7806039,1.1904018-1.1598199,1.7869407l-.909048,1.3459874-1.2416266,1.7548297-.892228,1.2188813-1.374658,1.7805376c-.2828829.3507366-.5466521.7254609-.8509424,1.0734259-.5420648.683124-1.1047724,1.3634765-1.6751255,1.935072l-.5627076.6803525c-.7607256.8770326-1.5398005,1.7231009-2.3356953,2.5381095-.2293645.2716058-.47402.4980077-.7217337.7456258-.5520039.5955832-1.122357,1.1672743-1.6682446,1.7205206l-.9595082.9085702c-.5137765.4713441-1.0092039.9665803-1.5206867,1.4167082l-1.0489604.9398211-1.4832239,1.2924691c-.3646896.31853-.7477283.6129767-1.1101243.9102904s-.9900902.8183535-1.493163,1.2049283l-1.1498808.8836268-1.5298613,1.1570484-1.1414707.8200737-1.611668,1.1247463-1.1330607.7566162-1.7653422,1.1476827-1.0351985.6617166-2.3280499,1.3326078-.6062869.3515967-2.8861702,1.6473151-.9014026.4637942c-.6934454.3616314-1.3685416.7472505-2.0803362,1.0849897l-1.1559972.6027508-1.8647335.9193694-1.2836767.5861219-1.8142733.8612638-1.3066132.6045666-1.848678.7922633-1.3257269.5805789-1.8907282.7867203-1.3196105.5381465-1.9786512.796755-1.271444.5014482-2.2592405.8030625-1.1552326.4305363-2.8754665,1.067214-.4510836.1564457c-1.1315316.4121872-2.2622987.8242787-3.4114149,1.2124782l-.9931484.3440468-2.4817241.8600214-1.2423911.4406666-2.2538887.7607256-1.3754226.4663745-2.2508305.739605-1.374658.4663745-2.4526712.7993353-1.1468226.3669832-3.7822209,1.2501322-.71944.2289822-6.304466,2.0834899-2.9312785-1.6327887-.6154615-.403586-.7224982-.5684417-2.898403-1.8870966-1.7263503-1.1305759-8.3412229-5.3995274-.2767665-.1870277-.4174434-.2699812c-1.8050988-1.1839988-3.5658537-2.3836707-5.3074949-3.5592595l-.1483224-.0194004-5.1324133-3.5796156-.3562796-.2404505-.1483224-.0194004c-1.5566205-1.108404-3.0925982-2.2140366-4.6041104-3.3380183l-.4510836-.3390772-.8234186-.624636-.6491016-.472682-.4900755-.3657408-.9182226-.7232628-1.7194693-1.3451273-.4694327-.3629693-.6437497-.5151145-2.236304-1.8435173-1.0497249-.8696738-2.456494-2.1308919-.6567471-.5813435c-1.0229657-.9092392-2.0214659-1.8370186-2.9993233-2.7619311l-.7240273-.7195356-2.0879817-2.3194487-.4189725-.4209795-.3027612-.3196768-.2446555-.2690255c-1.5359777-1.6010599-3.0413735-3.2628058-4.4871345-4.8952122l-.2813538-.3169053-.260711-.3141338-.1682006-.1942909c-1.2079865-1.4720424-2.3861555-3.0048663-3.5192162-4.5532679l-.4916046-.6890492c-1.0933042-1.521738-2.1384418-3.0801743-3.152233-4.720704l-.2889993-.4255667-.2989384-.513012c-.6926808-1.1246507-1.3540152-2.3312992-2.0252887-3.4531784l-.2255418-.4172523c-.7133236-1.2996367-1.3784807-2.6360673-2.038286-4.0148347l-.5420648-1.1264665c-.5053665-1.0784911-.9725056-2.2814124-1.4618165-3.3147951l-.4786073-1.118152c-.5642367-1.4524508-1.1468226-2.9287937-1.564266-4.512938.0022936-.0498868.0091746-.0993913.0198783-.1482268l-.1666715-.5388155c-.4663745-1.3750403-.9273972-2.792513-1.3433115-4.2255634l-.3845678-1.3428337c-.4671391-1.6982531-.9128708-3.3938303-1.3050841-5.1684427-.5481812-2.3982927-1.0481958-4.8332838-1.5275677-7.2655034-.1353251-.7718116-.2714147-1.5435276-.4289116-2.3180152-.2951157-1.6972974-.592525-3.3734742-.8662333-5.0680001l-.4273826-2.6624442-.7056782-4.9822752-.3195812-2.4975885c-.2561237-1.9938466-.4701973-3.9821503-.6812126-5.9915746.0504602-.3812229-.0902167-.7873893-.1223277-1.2009144l.0359338-.275333c-.0611639-.524958-.0970976-1.0682652-.1582615-1.5931277-.1146823-1.2644675-.2316582-2.5077187-.3256976-3.7693191.0336401-.2542123.0695739-.5295453-.0665157-.805834l-.1292087-1.9772177c-.0611639-.8481709-.1437351-1.6991132-.1842562-2.544417l-.071103-1.431139c-.0657512-.9780485-.1108595-1.95323-.1582615-2.9072908s-.0695739-1.2800451-.1139177-1.9321094c-.0443438-.9751815-.0680448-1.947687-.1131532-2.9229641-.1146823-3.0739624-.1628488-6.1608265-.1903725-9.2448236-.0022936-.9697341.0160555-1.9366011.0137619-2.9063351.0053518-2.1248711.0282883-4.2760236.0688094-6.453553.0168201-1.1179609.0435793-2.1484765.0718675-3.3511112.0726321-2.0369481.1452642-4.0739917.2393036-6.1081682l.1720234-3.2949169c.071103-1.4138411.1727879-2.8993586.2790602-4.3907058.0542829-.7659819.1093304-1.5335885.1643779-2.2938363.0886876-.6777721.1750816-1.3343281.150616-2.1346191l-.0137619.1059855c.2630046-2.0124825.3769224-4.0442699.5703531-6.0659269.0022936-.023032.0038227-.0462552.0061164-.0692872.0076455-.0829535.0129973-.1661937.0214074-.2491472.0496956-.3812229.1024495-.7835665.1521451-1.164885.3654541-2.7956668.6284588-5.6264072.9809156-8.4883985l.1689652-1.2918956c.4243244-3.2404428.8509424-6.5021018,1.4228246-9.7231442.1055077-.8048783.2079572-1.5885404.3134648-2.3933232.3211103-2.4567807.8540006-4.8859421,1.3027905-7.3260938l.584115-2.9825033c.4908401-2.4347044,1.0053811-4.8877579,1.5596787-7.3141478l.4984856-2.3259473c.7385537-3.1777498,1.4870466-6.2679588,2.3165816-9.4769596.0772194-.5930028.3004675-1.1454846.4625518-1.7274015.6827417-2.5819755,1.383068-5.1398677,2.1239154-7.6711918.2813538-.9971622.5948186-2.0763223.8830534-2.9649187.6590407-2.2402224,1.3608961-4.4749973,2.0841589-6.7070008l.8822888-2.7927041c1.0122621-3.0329635,2.0520479-6.1023386,3.1361775-9.0445119.015291-.0410945.0298174-.084387.0451084-.1254815,18.4248517,5.5440271,37.8107407,6.4415113,56.4871288,2.8130602,1.5283322-.2969315,3.0513126-.6250183,4.5689412-.9829225,5.5108648-1.2992544,10.9506266-2.9767692,16.2672961-5.0765057.0397565-.0154821.079513-.028575.118505-.0441527,7.9994698-3.2143526,15.6740066-7.1815942,22.9272771-11.8404654.0581057-.037654.1192695-.0711986.1781398-.1088526,3.9037841,4.2983866,8.1003902,8.3135081,12.5179508,12.0733659,1.0917751.9294041,2.1980766,1.8406503,3.3196691,2.7352674,1.1315316.9029316,2.2554178,1.8147512,3.4160022,2.6815579,4.5108355,3.3390695,9.2418609,6.3141185,14.132677,8.9564933,1.3608961.7352088,2.7332605,1.4443275,4.1193867,2.1242977,17.2321562,8.4533249,36.3611569,12.6449614,55.7600432,12.0209944,3.8510302,44.028526-.7523156,88.3872414-13.5623239,130.6867412Z"/>
  <path class="cls-12" d="M420.6405232,272.5669785l-30.493248-5.766224c-2.3945656-.4801364-4.9053425-.8394741-7.5353889-1.0826005-2.6300465-.2354809-5.1408234-.3593377-7.5323307-.3593377-10.0461659,0-17.9363053,2.8823474-23.6734764,8.6485714-5.7463457,5.766224-8.6118731,13.8199767-8.6118731,24.1474964v108.8380507c0,10.8122433,3.2263942,19.4623438,9.685299,25.9487724,6.4527884,6.4864285,15.4255283,9.7311719,26.905987,9.7311719h41.2550312v36.7594866h-35.6799443v-21.2636198h-38.9216295v28.4717821c0,14.6518054,7.5690291,21.9838244,22.704029,21.9838244h69.6625912c15.0646615,0,22.6000504-7.3320191,22.6000504-21.9838244v-220.5615071h-40.3650968v6.4879576ZM420.6405232,410.2361491h-24.4013264c-8.721968,0-13.0798939-4.4420262-13.0798939-13.3337239v-85.0529503c0-8.6501005,4.2386563-12.9743862,12.7312598-12.9743862h4.0612811c1.532155,0,2.8869347.1238568,4.0704556.3608668l16.6182238,1.801276v109.1989176Z"/>
  <rect class="cls-12" x="487.8504431" y="266.0790209" width="39.6433632" height="177.6749297"/>
  <rect class="cls-12" x="487.4895763" y="199.0464762" width="40.3620387" height="41.4446392"/>
  <path class="cls-12" d="M609.5543142,300.3170269h25.9487724v-34.238006h-25.9487724v-48.2919346h-40.3650968v48.2919346h-19.0984188v34.238006h19.0984188v121.4530992c0,14.6579218,7.5139816,21.9838244,22.5480611,21.9838244h44.8453504v-34.238006h-27.0283147v-109.1989176Z"/>
  <path class="cls-12" d="M714.4625862,300.3170269h25.9487724v-34.238006h-25.9487724v-48.2919346h-40.3650968v48.2919346h-19.0984188v34.238006h19.0984188v121.4530992c0,14.6579218,7.5139816,21.9838244,22.5480611,21.9838244h44.8453504v-34.238006h-27.0283147v-109.1989176Z"/>
  <path class="cls-12" d="M842.5458491,409.5159445l-37.4812203.7202046v-144.1571282h-40.3650968v156.7721767c0,14.6579218,7.2937916,21.9838244,21.8813749,21.9838244,1.9174874,0,4.0673974-.1238568,6.461963-.3608668,2.385391-.2415973,4.7799565-.6024641,7.1714639-1.0810714l42.3315153-5.766224v6.1270908h40.3620387v-177.6749297h-40.3620387v143.4369236Z"/>
  <path class="cls-12" d="M993.2964426,203.3707619v-34.9582106h-47.3683601c-15.0371378,0-22.5480611,7.3320191-22.5480611,21.9838244v75.6826452h-18.3797433v34.238006h18.3797433v143.4369236h40.3650968v-143.4369236h25.5879055v-34.238006h-25.5879055v-62.708259h29.5513244Z"/>
  <path class="cls-12" d="M139.9579888,397.4116144l1.4144145.2232481c20.8140654,3.2732228,40.9002807-5.9644331,51.988526-22.9936017,4.4382034-.3537948,8.4023868-3.3915367,9.6975318-7.9241618,1.6682446-5.8350333-1.7102948-11.919405-7.5453281-13.5876496-5.8350333-1.668149-11.9193094,1.710677-13.587554,7.5456148-.8455905,2.9579422-.3899197,5.977526,1.0214367,8.4559052-8.7250262,12.6415209-23.9548302,19.4522136-39.7534581,16.953096l-1.4159436-.2232481c-17.5203909-2.7573438-34.6416876,2.3851998-47.5686718,12.8547344-1.5841443,1.2834856-3.1071247,2.6453374-4.5590021,4.0844086l.9182226-5.8217493,6.1339717-38.8956348c3.3510156-1.4417471,5.91684-4.5093064,6.5269496-8.3785902.8708206-5.5241488-2.5421234-10.7269962-7.773928-12.2509323l-9.3901833,11.6526732-3.333431,4.1363024c.6215778,1.1395594,1.4396446,2.1620473,2.4190311,3.0196794l-5.5414467,35.1425624-7.3350773,46.5113014c-3.350251,1.4418427-5.9160754,4.5093064-6.5261851,8.3785902-.9457464,5.9945372,3.1491748,11.6220912,9.1439988,12.5673597,5.9940594.9451729,11.6219001-3.149366,12.5668819-9.1439032.6070514-3.8491189-.8708206-7.5394984-3.5880256-9.9436208.411327-2.5020802.7507865-4.5237373.8440614-4.9729094,2.9901488-13.1683903,11.1585838-23.9585574,21.9257188-30.6307712,9.637897-5.9728432,21.3576593-8.64666,33.3174898-6.7587033Z"/>
  <path class="cls-3" d="M38.7807129,377.5162494c.1039786,1.4627722.2415973,2.9234419.4143852,4.3809578l2.9167521,21.6263025-2.9167521-21.6263025c-.1727879-1.4575159-.3104066-2.9181856-.4143852-4.3809578Z"/>
  <path class="cls-3" d="M38.7807129,364.3066691c-.0007645.0075499-.0015291.0151954-.0015291.0225542-.1039786,1.4640146-.1727879,2.9296539-.2064281,4.3956754.0336401-1.4660215.1024495-2.9316608.2064281-4.3956754,0-.0073588.0007645-.0150043.0015291-.0225542Z"/>
  <path class="cls-11" d="M90.8938604,287.2297743c4.6033459-.1567324,8.9834436-.564619,13.1265313-1.1611579-4.1430877.5965389-8.5231855,1.0044254-13.1265313,1.1611579Z"/>
  <path class="cls-3" d="M90.8938604,287.2297743c4.6033459-.1567324,8.9834436-.564619,13.1265313-1.1611579-4.1430877.5965389-8.5231855,1.0044254-13.1265313,1.1611579Z"/>
  <polygon class="cls-11" points="95.4551561 337.4530536 152.087549 267.176339 95.4551561 337.4530536 95.4551561 337.4530536"/>
  <polygon class="cls-3" points="95.4551561 337.4530536 152.087549 267.176339 95.4551561 337.4530536 95.4551561 337.4530536"/>
  <path class="cls-11" d="M71.3168343,286.3690839c-1.508454-.1819625-3.040609-.401579-4.5842322-.6418384.2194254.034118.4442026.0770283.6628635.1099994,1.3203751.1988782,2.6277528.3757755,3.9213687.531839Z"/>
  <path class="cls-3" d="M71.3168343,286.3690839c-1.508454-.1819625-3.040609-.401579-4.5842322-.6418384.2194254.034118.4442026.0770283.6628635.1099994,1.3203751.1988782,2.6277528.3757755,3.9213687.531839Z"/>
  <path class="cls-11" d="M76.6732603,286.9004451c3.6897105.2916752,7.2685616.4187814,10.7266139.3988076-3.4580524.0199738-7.0369034-.1071323-10.7266139-.3988076Z"/>
  <path class="cls-3" d="M76.6732603,286.9004451c3.6897105.2916752,7.2685616.4187814,10.7266139.3988076-3.4580524.0199738-7.0369034-.1071323-10.7266139-.3988076Z"/>
  <path class="cls-11" d="M115.7302148,283.7758313c1.5237449-.3796938,3.0054397-.7811773,4.4420262-1.2001498-1.4365864.4189725-2.9182812.820456-4.4427907,1.2001498-1.2186901.3037168-2.4664331.5933851-3.7401707.8668067,1.2737376-.2734216,2.5214806-.5630899,3.7409353-.8668067Z"/>
  <path class="cls-3" d="M115.7302148,283.7758313c1.5237449-.3796938,3.0054397-.7811773,4.4420262-1.2001498-1.4365864.4189725-2.9182812.820456-4.4427907,1.2001498-1.2186901.3037168-2.4664331.5933851-3.7401707.8668067,1.2737376-.2734216,2.5214806-.5630899,3.7409353-.8668067Z"/>
  <polygon class="cls-9" points="60.8501668 380.3947741 60.8547541 380.3901868 60.8539895 380.3901868 60.8501668 380.3947741"/>
  <polygon class="cls-3" points="60.8501668 380.3947741 60.8547541 380.3901868 60.8539895 380.3901868 60.8501668 380.3947741"/>
  <polygon class="cls-9" points="44.5025931 400.6794853 52.6748508 390.5394712 44.5025931 400.6793898 44.5025931 400.6794853"/>
  <polygon class="cls-3" points="44.5025931 400.6794853 52.6748508 390.5394712 44.5025931 400.6793898 44.5025931 400.6794853"/>
  <polygon class="cls-11" points="82.7315417 353.2420292 82.7315417 353.2419336 60.8539895 380.3901868 60.8547541 380.3901868 60.8547541 380.3901868 82.7315417 353.2420292"/>
  <polygon class="cls-3" points="82.7315417 353.2420292 82.7315417 353.2419336 60.8539895 380.3901868 60.8547541 380.3901868 60.8547541 380.3901868 82.7315417 353.2420292"/>
  <path class="cls-10" d="M82.7315417,353.2419336c-1.1200634-2.0533858-1.6063162-4.4727992-1.2141028-6.9614042.9457464-5.9947284,6.5728225-10.0893628,12.5676465-9.1440943.4701973.0741612.924339.1868365,1.3700707.3166186l56.632393-70.2767147s-.0282883.023032-.0833358.0673758c-.1116241.0887832-.3333431.2631958-.663628.5108139-.3295204.2476181-.7676066.5684417-1.3112005.9502381-.8157731.5725512-1.8693208,1.2820521-3.1514685,2.0865481-.9770928.6128811-2.0872171,1.2810008-3.32655,1.9856277-3.8732021,2.2019949-9.0094382,4.7614162-15.2932615,7.1128804-2.5138351.9405857-5.2119264,1.848009-8.0858638,2.6858585-1.4365864.4189725-2.9182812.820456-4.4420262,1.2001498-1.2194547.3037168-2.4671977.5933851-3.7409353.8668067-1.2745022.2734216-2.5757635.530501-3.9037841.7689445-1.3287851.2384435-2.6835649.4582512-4.0651038.6570338-4.1430877.5965389-8.5231855,1.0044254-13.1265313,1.1611579-1.1506453.0391831-2.3158171.062693-3.4939861.0694783-3.4580524.0199738-7.0369034-.1071323-10.7266139-.3988076-.0833358-.0065942-.1643779-.0096524-.2477137-.0164378-1.6797128-.135994-3.3823621-.3068706-5.1087123-.5149233-1.2936159-.1560634-2.6009936-.3329608-3.9213687-.531839-.2186608-.0329711-.4434381-.0758814-.6628635-.1099994-3.7531681-.5842105-7.6026692-1.3361439-11.5553844-2.2967034-7.0682499,24.3318481-12.6746832,48.1437077-15.0921852,67.9414016-.3715705,3.0457697-.6682153,5.9965442-.8822888,8.8396129-.1078013,1.4214866-.1941953,2.8161184-.2599465,4.1821753-.0527538-.043866-.1062722-.0883053-.1590261-.1322669-.0007645.0148131-.0022936.0301041-.0030582.0452039-.0007645.0075499-.0015291.0151954-.0015291.0225542-.1039786,1.4640146-.1727879,2.9296539-.2064281,4.3956754-.0688094,2.9321386.0007645,5.865902.2079572,8.7913508.1039786,1.4627722.2415973,2.9234419.4143852,4.3809578l2.9167521,21.6263025,2.3861555-2.9604269c.0015291.0387053.0030582.0776017.0045873.1163069l8.1722578-10.1399186,8.1722578-10.1400142.0030582-.0046829.0038227-.0045873,21.8775522-27.1482532Z"/>
  <path class="cls-3" d="M82.7315417,353.2419336c-1.1200634-2.0533858-1.6063162-4.4727992-1.2141028-6.9614042.9457464-5.9947284,6.5728225-10.0893628,12.5676465-9.1440943.4701973.0741612.924339.1868365,1.3700707.3166186l56.632393-70.2767147s-.0282883.023032-.0833358.0673758c-.1116241.0887832-.3333431.2631958-.663628.5108139-.3295204.2476181-.7676066.5684417-1.3112005.9502381-.8157731.5725512-1.8693208,1.2820521-3.1514685,2.0865481-.9770928.6128811-2.0872171,1.2810008-3.32655,1.9856277-3.8732021,2.2019949-9.0094382,4.7614162-15.2932615,7.1128804-2.5138351.9405857-5.2119264,1.848009-8.0858638,2.6858585-1.4365864.4189725-2.9182812.820456-4.4420262,1.2001498-1.2194547.3037168-2.4671977.5933851-3.7409353.8668067-1.2745022.2734216-2.5757635.530501-3.9037841.7689445-1.3287851.2384435-2.6835649.4582512-4.0651038.6570338-4.1430877.5965389-8.5231855,1.0044254-13.1265313,1.1611579-1.1506453.0391831-2.3158171.062693-3.4939861.0694783-3.4580524.0199738-7.0369034-.1071323-10.7266139-.3988076-.0833358-.0065942-.1643779-.0096524-.2477137-.0164378-1.6797128-.135994-3.3823621-.3068706-5.1087123-.5149233-1.2936159-.1560634-2.6009936-.3329608-3.9213687-.531839-.2186608-.0329711-.4434381-.0758814-.6628635-.1099994-3.7531681-.5842105-7.6026692-1.3361439-11.5553844-2.2967034-7.0682499,24.3318481-12.6746832,48.1437077-15.0921852,67.9414016-.3715705,3.0457697-.6682153,5.9965442-.8822888,8.8396129-.1078013,1.4214866-.1941953,2.8161184-.2599465,4.1821753-.0527538-.043866-.1062722-.0883053-.1590261-.1322669-.0007645.0148131-.0022936.0301041-.0030582.0452039-.0007645.0075499-.0015291.0151954-.0015291.0225542-.1039786,1.4640146-.1727879,2.9296539-.2064281,4.3956754-.0688094,2.9321386.0007645,5.865902.2079572,8.7913508.1039786,1.4627722.2415973,2.9234419.4143852,4.3809578l2.9167521,21.6263025,2.3861555-2.9604269c.0015291.0387053.0030582.0776017.0045873.1163069l8.1722578-10.1399186,8.1722578-10.1400142.0030582-.0046829.0038227-.0045873,21.8775522-27.1482532Z"/>
  <path class="cls-12" d="M94.0850853,337.136435c-5.9948239-.9452685-11.6219001,3.149366-12.5676465,9.1440943-.3922133,2.488605.0940395,4.9080184,1.2141028,6.9614042v.0000956l3.333431-4.1363024,9.3901833-11.6526732h0c-.4457317-.1297821-.8998735-.2424574-1.3700707-.3166186Z"/>
  <path class="cls-3" d="M94.0850853,337.136435c-5.9948239-.9452685-11.6219001,3.149366-12.5676465,9.1440943-.3922133,2.488605.0940395,4.9080184,1.2141028,6.9614042v.0000956l3.333431-4.1363024,9.3901833-11.6526732h0c-.4457317-.1297821-.8998735-.2424574-1.3700707-.3166186Z"/>
</svg>