<?xml version="1.0" encoding="UTF-8"?>
<svg id="Layer_10" data-name="Layer 10" xmlns="http://www.w3.org/2000/svg" viewBox="0 0 575 1000">
  <defs>
    <style>
      .cls-1, .cls-2 {
        fill: none;
      }

      .cls-1, .cls-2, .cls-3, .cls-4, .cls-5, .cls-6, .cls-7, .cls-8, .cls-9, .cls-10, .cls-11, .cls-12, .cls-13 {
        stroke-width: 0px;
      }

      .cls-2 {
        stroke: #fff;
        stroke-linecap: round;
        stroke-linejoin: round;
      }

      .cls-3 {
        opacity: .15;
      }

      .cls-3, .cls-10 {
        fill: #fff;
      }

      .cls-4 {
        fill: #f9c37a;
      }

      .cls-5 {
        fill: #a2c9d2;
      }

      .cls-6 {
        fill: #0c3455;
      }

      .cls-7 {
        fill: #e0f8ff;
      }

      .cls-8 {
        fill: #b7deeb;
      }

      .cls-9 {
        fill: #fde6ad;
      }

      .cls-11 {
        fill: #fff4d0;
      }

      .cls-12 {
        fill: #04335f;
      }

      .cls-13 {
        fill: #6897b8;
      }
    </style>
  </defs>
  <path class="cls-1" d="M228.4246784,472.8142462c.051454-.0206493.101554-.0446837.1516539-.0653331-9.416084,3.7187371-19.0501706,6.6896985-28.8101841,8.9907422l.0379135.0499307c9.695019-2.3057829,19.2668191-5.2694662,28.6206167-8.9753398Z"/>
  <path class="cls-1" d="M192.4623868,337.1543917c-41.0413442-5.4082566-63.9167143-28.4997675-72.3159046-38.9291909-11.3672743,3.4426796-23.5469804,4.4512797-35.2784949,2.91663-9.5013894-1.2426821-18.5437548-4.0435406-26.8603479-8.2125003l113.5454622,151.2321402c18.1429552-2.2682079,34.1465067-7.3352432,47.5556928-13.1844133l-26.6464075-93.8226658Z"/>
  <path class="cls-1" d="M303.4446268,482.6274063c8.0227636,5.9390454,16.4382025,11.2274684,25.1407007,15.9219698l.2504998-.2031079c-8.6618766-4.6797762-17.0407561-9.9487346-25.0296683-15.8623915-2.0554523-1.5351575-4.0459101-3.1500349-6.0499085-4.7491714l-.1706107.2936602c1.9417119,1.5464977,3.8685292,3.1124599,5.858987,4.5990408Z"/>
  <path class="cls-1" d="M291.7009257,473.1945659l.1760269-.3041541c-7.8237178-6.6588938-15.2561143-13.769872-22.1699086-21.3825268-.1042621.0666871-.2125863.1260962-.3154943.1927833,6.9557699,7.6542919,14.4328501,14.8047069,22.309376,21.4938976Z"/>
  <path class="cls-1" d="M511.2497753,350.4694711c-10.5345318,2.8391105-21.6309955,3.5995804-32.7843294,2.1404192-11.717974-1.5326187-23.2111753-5.6328602-33.2988696-11.870982-10.7146208,7.8567228-38.428022,24.0696448-78.9615964,19.1138111l-47.1711418,81.236236c11.9644117,10.0707686,27.2313584,20.3490459,45.8522942,28.0326192l146.3636429-118.6521035Z"/>
  <path class="cls-1" d="M336.1314644,502.1085043l-.2464376.1993843c30.4892097,14.9331727,64.3242843,22.3376419,98.6373395,21.2339195,6.8217186,77.9766921-1.331034,156.5381659-24.0181908,231.4526673-.2721646.9182171-.5510995,1.8736707-.8611777,2.7869794-.0419756-.0030466-.0853053-.0069395-.127281-.0099861-8.7214549,28.7881807-20.031859,56.7272011-33.795807,83.474147-1.8212012,3.4242306-3.6979185,6.6886829-5.601717,9.8732462-35.4355651,30.2737461-81.3731646,41.9668394-126.6066567,37.7669057-3.8008266-.4971067-7.6273801-.9975985-11.4783067-1.5013062-21.6824495-3.3423104-42.6905807-10.1347476-62.2255022-20.1193647l-.5253725-.0687182c-3.9673751-2.0449584-7.8765259-4.235139-11.7355767-6.5327976l-.4955834-.2938295-1.303953-.819202c-10.7552424-6.5534469-20.799607-14.114817-30.0179993-22.5502282,9.3429652,8.5846956,19.5389837,16.2692844,30.4661908,22.9137914l1.303953.819202.4955834.2938295c3.8576968,2.2978278,7.7682016,4.4878392,11.7355767,6.5329669l.5253725.0687182c19.5349216,9.9844478,40.5430527,16.776885,62.2268563,20.1191954,3.8563427.6570542,7.6815422,1.157546,11.4769526,1.5014754,45.1495408,4.1979026,90.6917569-7.3900824,126.0501409-37.3183757l.5727644-.8662554c1.9037984-3.184394,3.761559-6.298885,5.603071-9.8732462,13.7761345-26.7716574,25.0960169-54.7374203,33.8201799-83.5536976.3100781-.9133087.7379588-1.8492978.8598236-2.7869794,22.6871568-74.9145014,30.8399094-153.4759752,24.0195449-231.4526673-34.3563849,1.1050764-68.2347891-6.3185187-98.753788-21.2897742Z"/>
  <path class="cls-1" d="M69.2516948,667.092406l5.1914389,38.4870926.077181-.0961378-5.1657119-38.3012488c-.306016-2.5813326-.5497455-5.1682508-.7338967-7.7588925-.3669483-5.1811143-.4901672-10.3769539-.3683024-15.5699161.0595783-2.5963965.1814431-5.1921159.3655943-7.784958,0-.0130328.0013541-.0265733.0027081-.0399446.0013541-.0269118.0040622-.0539929.0054162-.0800584-3.6139673-2.9973654-7.2996993-6.0399223-10.5345318-9.0897573-.0040622.0407908-.0067703.0819202-.0108324.122711,3.3688837,3.0369715,6.8596321,6.0314595,10.4343318,8.9973432-.7325426,10.3713684-.486105,20.7886053.7366048,31.1137666Z"/>
  <path class="cls-1" d="M286.5419841,405.2974437l.0013541.0025388c.1746728.2879055,9.0599681,14.6007527,26.7262967,30.7481724l44.9545571-77.4181453c-5.7181655-1.0627623-11.4986174-2.5012743-17.268237-4.335339-18.6222899,8.2339958-39.1348377,11.1887086-59.353556,8.5439047-1.5287258-.1998921-3.0547434-.4317736-4.579407-.696491-1.4407123-.1230496-2.9748543-.2916291-4.50358-.4915212-20.2160102-2.6446346-39.2783673-10.7758917-55.1559919-23.5227767-5.7249358.2730109-11.3605041.1880441-16.8660832-.1949836l25.5211896,89.8632458c24.1684907-11.7591034,38.2018952-25.1124348,38.4740598-25.3768137,6.5590324-6.3733579,17.345418-4.9651428,22.0493978,2.8782088Z"/>
  <path class="cls-1" d="M191.7230739,483.5456235l-.0487459-.0651638c-33.0768049,6.4261659-67.4101709,4.8366771-100.0414923-4.9820685-.0270811.0727803-.0528081.1494536-.0798891.2222339,32.6827755,9.7840479,67.0621793,11.326145,100.1701274,4.8249983Z"/>
  <path class="cls-12" d="M409.2232413,29.6977181c-27.2096936-12.1133575-55.9792561-20.2141484-85.5111504-24.0772614-29.5346024-3.8632823-59.4226127-3.4352323-88.8312882,1.2731483C122.8180286,24.8777974,38.8288337,103.460936,25.8813796,202.437635l-.0419756.3386825-.0176027.2642096c-1.1428207,18.7263827-.7907669,37.658243.9342965,56.3573754.8313885,6.7029005,3.3661756,10.8061886,4.6078421,12.4185272l.0013541.0003385c2.1407577,2.5557749,4.4182747,4.9576955,6.8095322,7.2160866l124.6040124,165.9608509c2.9707921-.2107245,5.9063789-.4739185,8.774263-.8322348l-113.5454622-151.2321402c8.3165931,4.1689597,17.3589585,6.9698182,26.8603479,8.2125003,11.7315146,1.5346497,23.9112206.5260496,35.2784949-2.91663,8.3991903,10.4294234,31.2745604,33.5209342,72.3159046,38.9291909l26.6464075,93.8226658c2.3844872-1.0405897,4.6917934-2.1021672,6.9097321-3.1810088l-25.5211896-89.8632458c5.5055792.3830277,11.1411475.4679945,16.8660832.1949836,15.8776246,12.746885,34.9399817,20.8781421,55.1559919,23.5227767,1.5287258.1998921,3.0628677.3684717,4.50358.4915212,1.5246636.2647173,3.0506812.4965989,4.579407.696491,20.2187183,2.6448039,40.7312661-.3099089,59.353556-8.5439047,5.7696195,1.8340647,11.5500715,3.2725767,17.268237,4.335339l-44.9545571,77.4181453c1.8225552,1.6649773,3.7561428,3.3500962,5.7642033,5.0408005l47.1711418-81.236236c40.5335743,4.9558337,68.2469756-11.2570883,78.9615964-19.1138111,10.0876943,6.2381218,21.5808955,10.3383633,33.2988696,11.870982,11.153334,1.4591613,22.2497977.6986913,32.7843294-2.1404192l-146.3636429,118.6521035c2.6376951,1.0884893,5.3498631,2.1162155,8.1216095,3.0921491l154.4866064-125.2363551c9.0234087-8.3160853,17.8721446-20.1114096,18.1470173-20.4785272,6.3816514-17.3758842,11.4810148-35.3333341,15.1572685-53.4796744l.0636405-.3381747.0338513-.2596396c12.9461-98.976699-48.0052384-196.5192866-151.6728845-242.7236346ZM552.201752,271.283779c-3.9727913,19.6143029-9.5866947,38.8597957-16.7848401,57.5330318-10.5521345-29.8463731-38.1883547-49.9973888-69.4642692-51.2906786,42.8354643-111.474946-21.0392744-202.2264505-48.4087462-234.1465556,90.5197922,45.4520023,146.901202,134.3096945,134.6578554,227.9042024ZM34.5757534,203.5745317C46.8177459,109.9796853,124.1571869,38.6133103,223.322607,17.9736508c-34.6569846,23.805943-119.7267138,95.0744877-107.0053865,213.8178205-30.5555583-6.7951454-62.4462128,5.5695582-80.3197115,31.697702l-.0121865.0891982c-.0487459-.0064318-.0839513-.0516233-.077181-.1008769-2.1069064-19.8961152-2.5523898-39.9330519-1.3323881-59.9029629ZM460.6217364,277.4589374s-7.343029-82.6561298-91.1670295-66.3888765c2.6972734-14.1141399,4.476499-27.3112475,5.4866225-39.6390531,9.7640757-119.1691825-52.3679969-157.1178698-52.3679969-157.1178698,0,0-69.8014283,20.6906057-91.0180836,138.3618672-2.1949198,12.1729358-3.8698833,25.3835839-4.8935473,39.7165727-10.8026342-5.2425544-20.6479531-8.20573-29.5887645-9.4267472-.9938748-.1357438-1.9755632-.2498228-2.9477732-.3432524-25.2544411-2.4283247-43.0290939,9.1833562-54.672595,21.8779409-3.582824,3.9061042-6.5847594,7.9146086-9.0450735,11.6482403-.61474.9334502-1.1969828,1.8496363-1.7453742,2.7428035-.8219101,1.3396661-1.5693473,2.6275397-2.2436657,3.8434792-.4495456.8107392-.8679479,1.5894889-1.253853,2.3303251-2.507706,4.8158585-3.6776077,8.0334268-3.6776077,8.0334268C106.3811801,102.2241779,212.2153109,30.1061343,236.268707,15.5515886c28.5502059-4.6523566,57.6325547-5.0692356,86.3046254-1.2384507,28.6937356,3.6732071,56.6901339,11.5561647,83.0833335,23.395665,19.4997162,20.2513848,103.2235167,117.1651842,54.9650704,239.7501344ZM321.8529763,19.9199326c11.05178,8.271063,65.9667505,56.6263241,43.8022581,183.7666469-8.2678472-14.0770727-21.1475986-24.9895545-36.5973425-30.7606973-16.9716994-6.8191798-35.3935894-9.2288862-53.547377-7.0043465-9.593465.9368354-18.7942546,3.7916867-27.1027234,8.2935742-2.0771172,1.1255565-4.0973642,2.3538518-6.0553247,3.6811621-1.9579605,1.3271411-3.8522806,2.7527896-5.6748358,4.2732218-1.559869,1.3009063-3.0547434,2.6852562-4.5049341,4.1219064v-.0001693c11.2278069-128.2548776,76.9237467-161.1663188,89.6802793-166.3712982Z"/>
  <path class="cls-12" d="M199.8040617,481.7895861l-.0379135-.0499307c-2.6877951.633866-5.3850685,1.214924-8.0918203,1.7408043l.0487459.0651638c2.7026896-.5307887,5.3959009-1.1174322,8.0809879-1.7560374Z"/>
  <path class="cls-12" d="M297.5856397,478.0283656l.1706107-.2936602c-1.9863956-1.5844112-3.9457102-3.198273-5.8792978-4.8442936l-.1760269.3041541c1.9335876,1.643651,3.8969643,3.2517581,5.884714,4.8337997Z"/>
  <path class="cls-12" d="M335.8850268,502.3078886l.2464376-.1993843c-2.454898-1.2042608-4.885423-2.4601449-7.2956372-3.7622361l-.2504998.2031079c2.4115683,1.3009063,4.8434473,2.5554364,7.2996993,3.7585124Z"/>
  <path class="cls-8" d="M417.5438966,43.3795766c27.3694718,31.9201052,91.2442105,122.6716096,48.4087462,234.1465556,31.2759145,1.2932898,58.9121347,21.4443054,69.4642692,51.2906786,7.1981454-18.6732361,12.8120488-37.9187289,16.7848401-57.5330318,12.2433466-93.5945078-44.1380632-182.4522-134.6578554-227.9042024Z"/>
  <path class="cls-8" d="M35.9853225,263.5783716l.0121865-.0891982c17.8734986-26.1281438,49.7641531-38.4928473,80.3197115-31.697702-12.7213272-118.7433328,72.3484019-190.0118775,107.0053865-213.8178205C124.1571869,38.6133103,46.8177459,109.9796853,34.5757534,203.5745317c-1.2200017,19.9699111-.7745183,40.0068478,1.3323881,59.9029629-.0067703.0492537.0284351.0944452.077181.1008769ZM157.7200968,58.3801134c-65.4901238,64.056351-62.656091,144.8058051-62.656091,144.8058051-16.3650837-4.2557883-34.4213794,9.8079131-34.4213794,9.8079131,3.352635-111.8748994,97.0774705-154.6137182,97.0774705-154.6137182Z"/>
  <path class="cls-8" d="M242.3524668,177.896272c-1.9579605,1.3271411-3.8522806,2.7527896-5.6748358,4.2732218,1.8225552-1.5204322,3.7168753-2.9460807,5.6748358-4.2732218Z"/>
  <path class="cls-8" d="M232.1726969,186.2914001c1.4501907-1.4366502,2.9450651-2.821,4.5049341-4.1219064-1.559869,1.3009063-3.0547434,2.685087-4.5049341,4.1217371v.0001693Z"/>
  <path class="cls-8" d="M248.4077915,174.2151098c-2.0757631,1.1255565-4.0973642,2.3538518-6.0553247,3.6811621,1.9579605-1.3273104,3.9782075-2.5556056,6.0553247-3.6811621Z"/>
  <path class="cls-7" d="M232.1726969,186.2912309c1.4501907-1.4366502,2.9450651-2.8208308,4.5049341-4.1217371,1.8225552-1.5204322,3.7168753-2.9460807,5.6748358-4.2732218,1.9579605-1.3273104,3.9795615-2.5556056,6.0553247-3.6811621,8.3084688-4.5018875,17.5092584-7.3567388,27.1027234-8.2935742,18.1537876-2.2245397,36.5756776.1851667,53.547377,7.0043465,15.4497439,5.7711428,28.3294953,16.6836246,36.5973425,30.7606973,22.1644923-127.1403228-32.7504781-175.4955839-43.8022581-183.7666469-12.7565326,5.2049794-78.4524725,38.1164206-89.6802793,166.3712982Z"/>
  <path class="cls-7" d="M95.0640057,203.1859185s-2.8340328-80.749454,62.656091-144.8058051c0,0-93.7248354,42.7388188-97.0774705,154.6137182,0,0,18.0562958-14.0637015,34.4213794-9.8079131Z"/>
  <path class="cls-11" d="M236.268707,15.5515886c-24.0533962,14.5545456-129.8875269,86.6725893-114.7817125,217.5462053,0,0,1.1699017-3.2175683,3.6776077-8.0334268.3859051-.7408362.8043074-1.5195859,1.253853-2.3303251.6743184-1.2159395,1.4217556-2.5038131,2.2436657-3.8434792.5483914-.8931672,1.1306342-1.8093532,1.7453742-2.7428035,2.4603142-3.7336317,5.4622495-7.7421361,9.0450735-11.6482403,11.6435011-12.6945847,29.4181539-24.3062656,54.672595-21.8779409.97221.0934297,1.9538984.2075086,2.9477732.3432524,8.9408115,1.2210172,18.7861303,4.1841928,29.5887645,9.4267472,1.023664-14.3329887,2.6986275-27.5436369,4.8935473-39.7165727C252.7719041,35.0037437,322.5733324,14.313138,322.5733324,14.313138c-28.6720707-3.830785-57.7544195-3.4139059-86.3046254,1.2384507ZM204.5459551,153.189376c-36.0543673-15.4477128-53.0409612,6.6138715-53.0409612,6.6138715,28.2211711-114.0564479,116.5460435-136.3465287,116.5460435-136.3465287-63.4373796,53.7487924-63.5050822,129.7326571-63.5050822,129.7326571Z"/>
  <path class="cls-11" d="M405.6566659,37.708803c-26.3931996-11.8395003-54.3895979-19.7224579-83.0833335-23.395665,0,0,62.1320726,37.9486873,52.3679969,157.1178698-1.0101235,12.3278056-2.789349,25.5249132-5.4866225,39.6390531,83.8240004-16.2672533,91.1670295,66.3888765,91.1670295,66.3888765,48.2584463-122.5849502-35.4653542-219.4987496-54.9650704-239.7501344Z"/>
  <path class="cls-10" d="M151.5049939,159.8032475s16.986594-22.0615843,53.0409612-6.6138715c0,0,.0677026-75.9838647,63.5050822-129.7326571,0,0-88.3248724,22.2900808-116.5460435,136.3465287Z"/>
  <path class="cls-6" d="M319.0338381,441.0889554c-2.0080605-1.6907043-3.9416481-3.3758232-5.7642033-5.0408005-17.6663285-16.1474197-26.5516238-30.4602669-26.7262967-30.7481724l-.0013541-.0025388c-4.7039799-7.8433516-15.4903655-9.2515666-22.0493978-2.8782088-.2721646.2643788-14.3055692,13.6177103-38.4740598,25.3768137-2.2179387,1.0788417-4.5252449,2.1404192-6.9097321,3.1810088-13.4091861,5.8491701-29.4127377,10.9162054-47.5556928,13.1844133-2.8678841.3583163-5.8034708.6215103-8.774263.8322348-10.412667.7386359-21.4319497.5527921-33.0145184-.9622239-16.3623756-2.1404192-32.9332753-6.7817741-49.249613-13.7930601l-.0013541-.0005078c-7.2699102-3.1246464-15.6907653.3039849-18.7103033,7.6182403l-.0013541.0015233c-41.035928,99.3964554-56.9785471,208.4872527-46.0933157,315.5657581,14.557423,134.3768894,61.6906513,169.0741571,176.4019531,241.3812604l.0013541.0005078c3.5124133,2.2133688,7.8183016,2.7766548,11.7816145,1.5412507l.0013541-.0003385c115.8893278-36.1034517,179.7247989-55.9905963,229.8003842-180.679914,40.3358826-102.6289182,54.0199415-214.6642729,39.5708427-323.9861055v-.0015233c-1.0372045-7.8391202-8.2840958-13.3171105-16.1078136-12.1763209h0c-17.5214449,2.5517127-34.6867738,2.7614217-51.0193602.6287883l-.0189567-.0023696c-11.9427468-1.5622386-22.9674457-4.343294-33.1120103-7.9149471-2.7717463-.9759336-5.4839144-2.0036598-8.1216095-3.0921491-18.6209358-7.6835733-33.8878826-17.9618506-45.8522942-28.0326192ZM459.2013348,493.5400574c14.1715179,107.2186499.8516993,216.280335-38.7096651,316.9362289-46.6241044,116.1008986-101.0218267,135.0048315-220.8162431,172.3276078-110.2131379-69.4696854-155.881281-101.8440753-169.8632315-230.9088458-10.6753533-105.0200064,4.8190744-211.0494593,45.1007949-308.6226824,116.4201165,50.0227772,199.4641825-30.6784386,199.4641825-30.6784386,0,0,59.5133342,99.1960555,184.8241623,80.9461302Z"/>
  <path class="cls-6" d="M39.6683465,678.9300445c.1394675-10.0035738.5172482-19.9951303,1.1319882-29.9665453-.61474,9.971415-.9925208,19.9629715-1.1319882,29.9665453Z"/>
  <path class="cls-6" d="M263.5962032,437.9661709c1.6194473-.6821042,3.3214918-1.055315,5.0275985-1.1302957-1.7061067.0749807-3.4081512.4481915-5.0275985,1.1302957Z"/>
  <path class="cls-6" d="M40.8003347,648.9634992c1.2294801-19.9426608,3.4067972-39.8045861,6.5211189-59.5180734-3.1143217,19.7134873-5.2916388,39.5754126-6.5211189,59.5180734Z"/>
  <path class="cls-6" d="M51.6909824,803.9724315c-6.8609862-31.2336003-10.7863856-63.0404728-11.7233902-95.0049232.9248181,32.0016869,4.8448014,63.8464728,11.7084957,95.1174789,18.9811139,83.5550517,77.5276543,116.9275479,144.0021746,160.5698585,1.8699471,1.2045993,3.9619589,1.9498362,6.1121949,2.2258938-2.1542982-.3114322-4.2422478-1.0961058-6.0973003-2.3384494-66.4799365-43.6047356-125.0210607-77.0148068-144.0021746-160.5698585Z"/>
  <path class="cls-6" d="M84.4130254,465.3744024c-2.4318791,1.2240638-4.527953,3.1161836-5.9916842,5.5270748,1.4637312-2.4108912,3.5598051-4.3030109,5.9916842-5.5270748Z"/>
  <path class="cls-6" d="M135.7031962,471.9749027c5.1697741.4126476,10.3503806.6250647,15.528279.6252339-5.1778984,0-10.3585049-.2125863-15.528279-.6252339Z"/>
  <path class="cls-6" d="M175.6179684,471.0742882c-8.0376582,1.0121546-16.1294785,1.5224633-24.2253609,1.5290643,8.0958824-.0064318,16.1877027-.5169097,24.2253609-1.5290643Z"/>
  <path class="cls-6" d="M84.4130254,465.3744024c2.4332331-1.2238946,5.2009173-1.7799026,8.0092231-1.5184011-2.8083058-.2616707-5.5759899.2945065-8.0092231,1.5184011Z"/>
  <path class="cls-6" d="M49.8345759,574.6891262c2.686441-14.7263411,5.9009627-29.3600989,9.6354406-43.8726689-3.734478,14.51257-6.9489996,29.1463277-9.6354406,43.8726689Z"/>
  <path class="cls-6" d="M112.5935749,468.7133277c4.4372314.896383,8.8961277,1.6417892,13.3685645,2.2258938-4.4737909-.5841046-8.9313331-1.3295107-13.3685645-2.2258938Z"/>
  <path class="cls-6" d="M63.3791673,516.3453553c2.7216464-9.6190227,5.6734818-19.1799904,8.8555061-28.6746096-3.1820244,9.4946191-6.1338598,19.0555868-8.8555061,28.6746096Z"/>
  <path class="cls-6" d="M201.9542978,966.9018965c-.0284351-.0037236-.0568702-.0030466-.0839513-.0069395.0270811.0033851.0555162.0037236.0839513.0069395Z"/>
  <path class="cls-6" d="M222.8310858,458.9966439c-15.2710089,6.0221504-31.136447,10.0533352-47.2131174,12.0776443,16.0766704-2.0241399,31.9421085-6.0554939,47.2131174-12.0776443Z"/>
  <path class="cls-6" d="M252.0149885,444.8752259c-9.3605679,5.4209509-19.1151652,10.1416872-29.1839027,14.121418,10.0687376-3.9797308,19.8233348-8.7004671,29.1839027-14.121418Z"/>
  <path class="cls-5" d="M274.3771726,412.5939272s-83.044066,80.7012159-199.4641825,30.6784386c-40.2817205,97.5732231-55.7761481,203.602676-45.1007949,308.6226824,13.9819505,129.0647705,59.6500936,161.4391605,169.8632315,230.9088458,119.7944164-37.3227763,174.1921387-56.2267092,220.8162431-172.3276078,39.5613643-100.6558939,52.881183-209.717579,38.7096651-316.9362289-125.310828,18.2499253-184.8241623-80.9461302-184.8241623-80.9461302ZM362.2998912,497.3918302c2.5402033.9099236,5.0993633,1.7670391,7.676126,2.5706695,5.1508173,1.6074301,10.3693373,3.0009198,15.6420194,4.1769148,15.8139841,3.5274771,32.107303,5.0942856,48.5157163,4.5868543,2.9193381-.0748114,5.6721277.7035998,8.0105771,2.1148614,2.3398035,1.4110924,4.2652667,3.4550353,5.527244,5.9109488.8422209,1.6372192,1.3892583,3.4577434,1.5693473,5.3959009,6.1243814,69.9050134.4942293,140.270574-16.5885024,208.18733-2.4400034,9.7024662-5.1142579,19.3548325-8.0214095,28.9488053-9.1249627,30.68724-21.1042689,60.4523699-35.7794945,88.9059303-39.7969696,75.8665699-104.9946179,93.0522096-180.4194281,118.1329935-2.1163847.6829504-4.3289072.8650706-6.4777892.5788576-.0284351-.0032159-.0568702-.0035544-.0839513-.0069395-.0270811-.0037236-.0528081-.0103247-.0798891-.0142176-2.150236-.2760575-4.2422478-1.0212944-6.1121949-2.2258938-66.4745203-43.6423106-125.0210607-77.0148068-144.0021746-160.5698585-6.8636943-31.271006-10.7836775-63.115792-11.7084957-95.1174789-.3385132-10.0188069-.4373591-20.0340593-.2992457-30.0374638.1394675-10.0035738.5172482-19.9951303,1.1319882-29.9665453,1.2294801-19.9426608,3.4067972-39.8045861,6.5211189-59.5180734.7799345-4.9284141,1.6167392-9.8475192,2.5131222-14.7562995,2.686441-14.7263411,5.9009627-29.3600989,9.6354406-43.8726689,1.2457287-4.8375233,2.5483276-9.6615061,3.9091508-14.4711021,2.7216464-9.6190227,5.6734818-19.1799904,8.8555061-28.6746096,1.5910122-4.7473096,3.2402487-9.478032,4.9463553-14.1909824.3358051-.913478.7528534-1.7746556,1.2403125-2.578286,1.4637312-2.4108912,3.5598051-4.3030109,5.9916842-5.5270748,2.4332331-1.2238946,5.2009173-1.7800718,8.0092231-1.5184011.9356506.0871672,1.8767174.2652251,2.8096598.5395901,5.7357682,1.7182932,11.5324688,3.1398795,17.3616666,4.3177363,4.4372314.896383,8.8947737,1.6417892,13.3685645,2.2258938,3.2416027.4233108,6.4886216.7760416,9.7410568,1.0356812,5.1697741.4126476,10.3503806.6252339,15.528279.6252339.0541621,0,.1069702.0033851.1611323.0032159,8.0958824-.006601,16.1877027-.5169097,24.2253609-1.5290643,16.0766704-2.0243091,31.9421085-6.0554939,47.2131174-12.0776443,10.0687376-3.9797308,19.8233348-8.7004671,29.1839027-14.121418,3.121092-1.8069836,6.1975002-3.6918253,9.2265166-5.6528325.7569156-.4969374,1.5463284-.9151705,2.354698-1.2562226,1.6194473-.6821042,3.3214918-1.055315,5.0275985-1.1302957,4.2625586-.1871978,8.5413659,1.4897967,11.5609039,4.8644351,9.6936649,10.6973566,20.4231803,20.4076087,32.0328301,28.9885806,15.4091223,11.3721828,32.2968704,20.333305,50.0823556,26.7029392Z"/>
  <path class="cls-13" d="M312.2175357,470.6888909c-11.6096498-8.5809719-22.3391652-18.291224-32.0328301-28.9885806-3.019538-3.3746384-7.2983453-5.051633-11.5609039-4.8644351-1.7061067.0749807-3.4081512.4481915-5.0275985,1.1302957-.8083696.3410521-1.5977825.7592852-2.354698,1.2562226-3.0290164,1.9610072-6.1054246,3.8458488-9.2265166,5.6528325-9.3605679,5.4209509-19.1151652,10.1416872-29.1839027,14.121418-15.2710089,6.0221504-31.136447,10.0535045-47.2131174,12.0776443-8.0376582,1.0121546-16.1294785,1.5226325-24.2253609,1.5290643-.0541621.0001693-.1069702-.0032159-.1611323-.0032159-5.1778984-.0001693-10.3585049-.2125863-15.528279-.6252339-3.2524351-.2596396-6.499454-.6123704-9.7410568-1.0356812-4.4724368-.5841046-8.9313331-1.3295107-13.3685645-2.2258938-5.8291978-1.1778568-11.6258984-2.5994431-17.3616666-4.3177363-.9329425-.274365-1.8740092-.4524229-2.8096598-.5395901-2.8083058-.2615015-5.5759899.2945065-8.0092231,1.5184011-2.4318791,1.2240638-4.527953,3.1161836-5.9916842,5.5270748-.4874591.8036304-.9045074,1.6648081-1.2403125,2.578286-1.7061067,4.7129505-3.3553432,9.4436729-4.9463553,14.1909824-3.1820244,9.4946191-6.1338598,19.0555868-8.8555061,28.6746096-1.3608232,4.809596-2.6634221,9.6335788-3.9091508,14.4711021-3.734478,14.51257-6.9489996,29.1463277-9.6354406,43.8726689-.896383,4.9087804-1.7331877,9.8278854-2.5131222,14.7562995-3.1143217,19.7134873-5.2916388,39.5754126-6.5211189,59.5180734-.61474,9.971415-.9925208,19.9629715-1.1319882,29.9665453-.1381134,10.0034045-.0392675,20.018657.2992457,30.0374638.9370046,31.9644504,4.8624041,63.7713229,11.7233902,95.0049232,18.9811139,83.5550517,77.5222381,116.9651228,144.0021746,160.5698585,1.8550525,1.2423436,3.9430021,2.0270172,6.0973003,2.3384494.0270811.0038929.0528081.0104939.0798891.0142176.0270811.0038929.0555162.0032159.0839513.0069395,2.148882.2862129,4.3614045.1040928,6.4777892-.5788576,75.4248101-25.0807838,140.6224585-42.2664236,180.4194281-118.1329935,14.6752256-28.4535604,26.6545319-58.2186904,35.7794945-88.9059303,2.9071516-9.5939728,5.5814062-19.246339,8.0214095-28.9488053,17.0827317-67.9167559,22.7128838-138.2823166,16.5885024-208.18733-.180089-1.9381575-.7271264-3.7586817-1.5693473-5.3959009-1.2619773-2.4559135-3.1874406-4.4998564-5.527244-5.9109488-2.3384494-1.4112617-5.091239-2.1896728-8.0105771-2.1148614-16.4084134.5074313-32.7017322-1.0593772-48.5157163-4.5868543-5.2726821-1.175995-10.4912021-2.5694847-15.6420194-4.1769148-2.5767627-.8036304-5.1359227-1.6607459-7.676126-2.5706695-17.7854852-6.3696342-34.6732333-15.3307565-50.0823556-26.7029392ZM434.3206123,516.3428164c3.8969643-.1042621,7.1954372,2.8572209,7.5109316,6.7435221,6.9286888,78.9142045-1.3093692,158.4253772-24.2700446,234.2430319-9.0098682,30.2312627-20.8158556,59.5576794-35.2649544,87.5996078-38.5404084,73.5511394-102.8430278,90.0147304-176.1907208,114.3753274-2.1150307.8109084-4.4900395.5710718-6.4006082-.6465603-64.650611-42.411815-122.4375277-74.883866-140.8187962-156.0331041-6.7865133-30.808597-10.6523344-62.188435-11.5460093-93.7229736-2.6810248-79.170459,9.7965729-158.1234233,36.7598288-232.6091978.1733188-.4515767.3872591-.8775956.6350508-1.2753486.742021-1.1935977,1.7887039-2.1331411,3.0005813-2.7477119,1.6167392-.8195405,3.5245998-1.0614082,5.3945469-.5565158,5.4378766,1.6343419,10.924499,3.0335863,16.4449728,4.1985796,16.5641294,3.4948106,33.4356289,4.8806838,50.220469,4.1742067,5.5935926-.235436,11.179061-.7035998,16.7401563-1.4034759,5.5597413-.6998761,11.0951097-1.6314645,16.5925646-2.794596,10.9935557-2.3259244,21.8300413-5.5771747,32.3916541-9.7481655,13.8776884-5.4920387,27.1717801-12.3542096,39.6872913-20.4847897,3.0560975-1.893643,7.0234725-1.3747022,9.4892029,1.2414973,10.0172835,11.0780148,21.1110392,21.1303344,33.1201346,30.0083517,36.5350561,26.9927066,81.101,40.8864744,126.5037487,39.4383148Z"/>
  <path class="cls-4" d="M243.9597277,889.2495c-3.7954104-.3439294-7.6206099-.8444213-11.4769526-1.5014754-21.6838036-3.3423104-42.6919347-10.1347476-62.2268563-20.1191954l-.5253725-.0687182c-3.9673751-2.0451277-7.8778799-4.235139-11.7355767-6.5329669l-.4955834-.2938295-1.303953-.819202c-10.9272071-6.644507-21.1232256-14.3290958-30.4661908-22.9137914-15.5661924-14.244129-28.7709166-30.9866549-39.0197432-49.6214698-2.55916-4.6457556-4.9436472-9.459583-7.1196103-14.3988296-4.041848-9.216869-7.3646939-18.7333222-9.9360404-28.4635466-.5998454-2.2150613-1.150945-4.4235217-1.6505905-6.6255502-.2274809-1.1741331-.4982915-2.3159383-.7311886-3.452835-.7000454-3.1055204-1.2443746-5.6565561-1.9403578-9.3720773-.6973373-3.7156905-1.4176934-7.2436754-2.0161848-11.1369161-3.7182293-22.6236855-5.9808518-45.4628348-6.7729727-68.3762876l-.0054162-.1731495c-.1882134,2.6412495-.3683024,5.2721743-.4942293,7.7761567l-.3046619,5.8354603c-.1665485,3.6026271-.2951835,7.2103318-.4238186,10.8178673-.0501,2.1299253-.0974918,3.9550193-.127281,5.9349832-.0717648,3.856512-.1123864,7.6663092-.1218648,11.4295607.0040622,1.7174469-.0284351,3.4298161-.024373,5.1472629.0487459,5.461911.1340512,10.9288997.3371592,16.3730387.0798891,1.7272638.1218648,3.4496191.2003998,5.1767136.0785351,1.1548379.1178026,1.7321722.2017539,3.421861s.1638404,3.4167833.280289,5.1489555l.1259269,2.5346178c.0717648,1.4970748.2180025,3.0041357.3263268,4.5062881l.2288349,3.5017501c.2410214.4893209.1773809.9769492.1178026,1.4271718.1665485,2.2343566.3737186,4.4362159.5768265,6.6756502.1083242.9295573.1719647,1.8917812.280289,2.8215078l-.0636405.4876283c.0568702.7323734.306016,1.451714.2166485,2.1268786.3737186,3.5587896.7528534,7.0801735,1.2064612,10.6113743l.5659941,4.4233524,1.2497909,8.8238551.7569156,4.7153201c.4847509,3.0010891,1.0114775,5.9696808,1.534142,8.9756783.2789349,1.3716556.5199563,2.7384028.7596237,4.1053192.8489912,4.3075809,1.7345418,8.6200702,2.7053977,12.867565.6946292,3.1429261,1.484042,6.145877,2.3113683,9.153567l.6810886,2.3782247c.7366048,2.538003,1.5530987,5.0484171,2.379071,7.4836813l.2951835.9542688c-.0189567.0864901-.0311432.1741651-.0352054.262517.7393129,2.8055977,1.7711012,5.4202739,2.7703923,7.9926359l.8476371,1.9803024c.8665939,1.8301718,1.6939202,3.9606048,2.5889492,5.8706657l.9600235,1.9950277c1.1685477,2.4418652,2.3465737,4.8087497,3.6099051,7.1104704l.3994456.7389744c1.1888585,1.9869034,2.3601143,4.1239374,3.5868862,6.1157493l.5294347.9085695.511832.7536997c1.7954742,2.9054591,3.6464645,5.6655267,5.5827602,8.3605998l.870656,1.2203402c2.0067064,2.7422957,4.093302,5.4570025,6.2327056,8.0640622l.2978916.3440987.461732.5563465.4982915.5612549c2.5605141,2.8910723,5.2266443,5.8341063,7.9469366,8.6696624l.4332969.4764574.536205.5661634.742021.7455754,3.6979185,4.1078581,1.2822881,1.2743331c1.7318337,1.6380655,3.5002268,3.2812088,5.3119496,4.8915162l1.1631315,1.029588,4.3505721,3.7739148,1.8591147,1.5402352,3.9606048,3.2649601,1.1401126.9122932.8313885.6428366,3.045265,2.3822869,1.6262176,1.2809341.8679479.6477451,1.1495909.8371432,1.458315,1.1062612.7988912.6005225c2.6769626,1.9906271,5.397255,3.9487568,8.1541067,5.9117951l.2626863.0343591.6309887.4258496,9.0897573,6.3396758.2626863.0343591c3.0845326,2.0820256,6.2029165,4.2067039,9.3998354,6.3036241l.7393129.4781499.4901672.3312352,14.7727174,9.5628295,3.0574515,2.0023058,5.1332146,3.3421411,1.27958,1.0067384,1.0900126.7147707,5.1914389,2.8917493,11.1655204-3.6899635,1.2741638-.4055389,6.6984998-2.2140458,2.0310794-.6499454,4.3438018-1.4156623,2.4345872-.8259723,3.9863318-1.3098769,2.4359412-.8259723,3.991748-1.3472827,2.200336-.7804423,4.3952558-1.5231403,1.7589148-.6093238c2.0351415-.6875204,4.0377858-1.4173549,6.0417842-2.1473587l.7988912-.2770731,5.0925931-1.8900886,2.045974-.7625011,4.0012264-1.4222633,2.25179-.8880895,3.504289-1.4110924,2.3370954-.953084,3.3485729-1.3933205,2.3479278-1.0282339,3.2741-1.4031373,2.3140765-1.0707174,3.2131676-1.5253406,2.2734549-1.0380508,3.3025351-1.6282486,2.047328-1.0675015c1.2606233-.5981529,2.456252-1.2811033,3.684378-1.9215704l1.5964284-.8214024,5.1115498-2.9174763,1.073764-.6226951,4.1230912-2.3601143,1.8333877-1.1719328,3.1265082-2.0326027,2.0067064-1.3400046,2.8543436-1.9919811,2.021601-1.452391,2.7094599-2.0491898,2.0364956-1.5649467c.8909668-.684643,2.0026443-1.6074301,2.6444654-2.1339874s1.3202016-1.048037,1.9660848-1.6121693l2.6268627-2.2890265,1.8577606-1.6644696c.9058614-.7971987,1.7832877-1.6742864,2.6932113-2.5090601l1.6993364-1.6091226c.9667938-.9798265,1.9769173-1.9923196,2.9545435-3.0471269.4387131-.4385439.8720101-.8395128,1.278226-1.3205401,1.4095691-1.4434204,2.789349-2.9418492,4.1366317-4.4951172l.996583-1.2049378c1.0101235-1.0123238,2.0067064-2.2172617,2.96673-3.427108.5389131-.6162633,1.0060613-1.2799185,1.5070609-1.9010903l2.4345872-3.15342,1.5801798-2.1586989,2.198982-3.10789,1.6099689-2.3838102c.6716103-1.0564998,1.5287258-2.3560521,2.0540983-3.1647602.5253725-.8088774,1.0561613-1.6551604,1.5530987-2.5437577l.3791348-.5736107c-35.3583841,29.9282933-80.9006002,41.5162783-126.0501409,37.3183757Z"/>
  <path class="cls-9" d="M63.3155268,713.9290967c.5984914,3.8932407,1.3188476,7.4212256,2.0161848,11.1369161.6959832,3.7155212,1.2403125,6.2665569,1.9403578,9.3720773.2328971,1.1368967.5037077,2.2787018.7311886,3.452835.4996455,2.2020286,1.0507451,4.4104889,1.6505905,6.6255502,2.5713465,9.7302243,5.8941924,19.2466775,9.9360404,28.4635466,2.1759631,4.9392466,4.5604503,9.753074,7.1196103,14.3988296,10.2488266,18.6348149,23.4535507,35.3773408,39.0197432,49.6214698,9.2183923,8.4354112,19.2627569,15.9967813,30.0179993,22.5502282l1.303953.819202.4955834.2938295c3.8590508,2.2976586,7.7682016,4.4878392,11.7355767,6.5327976l.5253725.0687182c19.5349216,9.984617,40.5430527,16.7770543,62.2255022,20.1193647,3.8509265.5037077,7.6774801,1.0041995,11.4783067,1.5013062,45.233492,4.1999337,91.1710916-7.4931596,126.6066567-37.7669057,1.9037984-3.1845632,3.7805158-6.4490156,5.601717-9.8732462,13.763948-26.746946,25.0743521-54.6859663,33.795807-83.474147-14.3624394-1.0062306-28.8156003-2.4787631-43.4380179-4.3915322-1.5287258-.2000613-3.0466191-.4182331-4.5699286-.6270958-10.2447644-1.4031373-20.3730803-2.9999043-30.3714071-4.7877619-20.0873752-3.5919639-39.6520859-7.9405049-58.5939323-12.9747044-12.0551332-3.204197-23.8557045-6.6873289-35.3786949-10.4270538-6.1690651-2.0016287-12.255533-4.0767148-18.2607578-6.2235658-10.3070509-3.6857321-20.3080858-7.6221332-30.0992425-11.7108652-19.0691274,11.8168199-33.5358288,30.9267381-38.8315298,54.2486072-.1651945.7955061-.766394,4.3759605-1.4948744,8.807268,4.8123041,4.2578194,7.4296884,10.7936636,6.3545704,17.6106431-1.6736094,10.6166212-11.640793,17.8682517-22.2565679,16.1943037-10.617129-1.6741172-17.8694365-11.640793-16.194473-22.2574142,1.0805342-6.8526926,5.6247359-12.2853222,11.5581958-14.8388968l12.9907838-82.3738098c-6.9774347-3.7324469-13.7774885-7.5632319-20.3608938-11.5018333.0027081-.0115094.0054162-.0235267.0094784-.0350361-4.3762991-2.6136607-8.6659387-5.2708203-12.8635028-7.969617l-.0081243.0081243-.0054162.0082936-14.4734717,17.9584654-14.4734717,17.9584654v-.0001693.0001693l-4.2097505,5.2227514-.024373-.1858438-.077181.0961378-5.1914389-38.4870926c-1.2227098-10.3251613-1.4691474-20.7423983-.7366048-31.1137666-3.5746997-2.9658837-7.0654482-5.9603717-10.4343318-8.9973432-.3425754,3.5804544-.5443293,7.1788501-1.0101235,10.7430559l.024373-.1877056c.0433297,1.4173549-.1096783,2.5801479-.2667484,3.7805158-.0974918,1.3464364-.1949836,2.7059055-.2911214,4.0624973l.0054162.1731495c.792121,22.9134529,3.0547434,45.7526021,6.7729727,68.3762876Z"/>
  <path class="cls-9" d="M166.7868352,696.9682298c-2.1678387-1.0135086-4.3099505-2.0439429-6.448-3.076916l-1.6262176,10.3106053c2.5713465-2.5486661,5.2686199-4.9605729,8.0742176-7.2336892Z"/>
  <path class="cls-11" d="M150.7440161,621.7803789c-1.7345418-1.5189089-3.1833784-3.3297854-4.2842235-5.3480013l-38.7448704,48.0807268h0c4.1975641,2.6987967,8.4872037,5.3559563,12.8635028,7.969617-.0040622.0115094-.0067703.0235267-.0094784.0350361,6.5834053,3.9386014,13.3834591,7.7693864,20.3608938,11.5018333l9.8141756-62.239212Z"/>
  <path class="cls-11" d="M97.6597252,492.7926201c7.0004536,1.7011982,13.8181101,3.0330786,20.4651559,4.0677442,2.7338329.4255111,5.4473549.8144628,8.1189013,1.1367274,3.0574515.3684717,6.0729274.6711025,9.0477817.9119546.1475918.0120172.2911214.0174334.4387131.0291121,6.5346594.5165712,12.8729812.7416825,18.9973626.7063079,2.0865956-.0120172,4.1501722-.0536543,6.1880219-.1230496,8.1527527-.2775808,15.9101219-.9999681,23.2477347-2.0564679,2.4467736-.3520538,4.8461554-.741344,7.1981454-1.1636392s4.6579421-.8775956,6.9151483-1.3618387c2.2558522-.4842432,4.4656666-.99726,6.6240269-1.5351575,2.6999815-.6724565,5.3241361-1.3835036,7.8684016-2.1255246,5.0898849-1.4838728,9.8683377-3.0909643,14.3204637-4.7567879,11.128961-4.164559,20.2254886-8.6974205,27.0851207-12.5972621,2.1949198-1.247929,4.1610046-2.431202,5.8914843-3.5166447,2.2707468-1.4248022,4.1366317-2.6813633,5.5814062-3.6953797.9627316-.6761802,1.738604-1.2443746,2.3222008-1.6829185.5849509-.4385439.9776262-.7474372,1.1753179-.9046766.0974918-.0785351.1475918-.1193259.1475918-.1193259l-100.2987624,124.4635294c9.2657842,2.698966,15.3102764,11.9134654,13.7680102,21.6970056-1.0805342,6.8526926-5.6247359,12.2854915-11.5595498,14.8388968l-10.8635666,68.8860886c2.1380496,1.0329731,4.2801613,2.0634074,6.448,3.076916,22.8943269-18.5420623,53.2169881-27.6497608,84.246465-22.7663689l2.507706.3953835c27.9801497,4.4260605,54.952884-7.6360122,70.4053359-30.0247696-2.4995817-4.3893318-3.3065972-9.7371638-1.8090147-14.9758254,2.9545435-10.3339627,13.7300967-16.3180303,24.0642286-13.3636561,10.3341319,2.9545435,16.3176918,13.7302659,13.3631483,24.0643979-2.2937657,8.0275028-9.3145301,13.4074936-17.1748073,14.0340816-19.6378296,30.1594978-55.2115081,46.5198423-92.0742449,40.7228032l-2.5049979-.3953835c-21.1814499-3.3436644-41.9377272,1.3917972-59.0069184,11.9699971,9.7911567,4.0887321,19.7921916,8.0251332,30.0992425,11.7108652,6.0052247,2.1468509,12.0916926,4.221937,18.2607578,6.2235658,11.5229904,3.7397249,23.3235617,7.2228568,35.3786949,10.4270538,18.9418464,5.0341995,38.5065571,9.3827405,58.5939323,12.9747044,9.9983268,1.7878576,20.1266427,3.3846245,30.3714071,4.7877619,1.5233095.2088627,3.0412029.4270344,4.5699286.6270958,14.6224175,1.912769,29.0755785,3.3853016,43.4380179,4.3915322.0419756.0030466.0853053.0069395.127281.0099861.3100781-.9133087.589013-1.8687623.8611777-2.7869794,22.6871568-74.9145014,30.8399094-153.4759752,24.0181908-231.4526673-34.3130552,1.1037224-68.1481297-6.3007468-98.6373395-21.2339195-2.456252-1.203076-4.8881311-2.4576061-7.2996993-3.7585124-8.7024982-4.6945015-17.1179371-9.9829245-25.1407007-15.9219698-1.9904578-1.4865809-3.9172751-3.0525431-5.858987-4.5990408-1.9877497-1.5820416-3.9511264-3.1901487-5.884714-4.8337997-7.8765259-6.6891907-15.3536061-13.8396057-22.309376-21.4938976-12.8459001,8.2510908-26.4378834,15.2772714-40.6053391,20.9700484-.0690567.0275888-.1394675.050777-.2098782.0781966-.0501.0206493-.1001999.0446837-.1516539.0653331-9.3537976,3.7058736-18.9255977,6.6695569-28.6206167,8.9753398-2.685087.6386052-5.3782982,1.2252486-8.0809879,1.7560374-33.1079481,6.5011466-67.4873519,4.9590496-100.1701274-4.8249983-1.920047,5.2107342-3.761559,10.6467489-5.5543251,16.0182769l-1.5625771,4.9460168c-1.2809341,3.9529883-2.5239547,7.910885-3.6911483,11.8784293-.510478,1.573748-1.0656397,3.4849937-1.5639311,5.2510172-1.3120773,4.4831-2.5523898,9.0132533-3.761559,13.5860593-.2870592,1.0306035-.6824427,2.009076-.819202,3.0593133-1.4691474,5.6832986-2.7947652,11.1562113-4.1027804,16.784163l-.8828425,4.1193675c-.9816884,4.2972562-1.892966,8.641735-2.762268,12.9537166l-1.0344964,5.2821605c-.7948291,4.3216292-1.738604,8.6237938-2.3073062,12.9748737-.1868593,1.42531-.3683024,2.8132142-.5551617,4.2386934-1.0128316,5.704625-1.7683931,11.481184-2.5198925,17.2201681l-.2992457,2.2880109c-.6242184,5.0687279-1.0900126,10.0821088-1.7372499,15.0333726-.0880134.6753339-.1814431,1.3879042-.2694565,2.0630689-.0148946.1469147-.024373.2943373-.0379135.441252,3.2348324,3.049835,6.9205645,6.0923919,10.5345318,9.0897573,2.1651306-38.5825533,13.6420832-90.1719698,29.0336028-143.1557223Z"/>
  <path class="cls-10" d="M198.27669,494.9394711c-2.2572062.4842432-4.5631584.9395435-6.9151483,1.3618387s-4.7513717.8115855-7.1981454,1.1636392c2.4467736-.3520538,4.8461554-.741344,7.1994994-1.1636392,2.3519899-.4222953,4.656588-.8775956,6.9137942-1.3618387Z"/>
  <path class="cls-10" d="M135.7302773,498.9381586c-.1475918-.0116787-.2911214-.0170949-.4387131-.0291121-2.9748543-.2408522-5.9903301-.543483-9.0477817-.9119546,3.0574515.3684717,6.0729274.6711025,9.0477817.9119546.1475918.0120172.2911214.0174334.4387131.0291121Z"/>
  <path class="cls-10" d="M267.9697941,465.029796c.5849509-.4385439.9776262-.7474372,1.1753179-.9046766-.1976917.1572394-.5903671.4661327-1.1753179.9046766Z"/>
  <path class="cls-10" d="M260.0661872,470.4080942c2.2707468-1.4248022,4.1366317-2.6813633,5.5814062-3.6953797-1.4447745,1.0140164-3.3106594,2.2705775-5.5814062,3.6953797-1.7304796,1.0854427-3.6965645,2.2687157-5.8914843,3.5166447-6.8596321,3.8998417-15.9561597,8.4327031-27.0851207,12.5972621,11.128961-4.164559,20.2254886-8.6974205,27.0851207-12.5972621,2.1949198-1.247929,4.1610046-2.431202,5.8914843-3.5166447Z"/>
  <polygon class="cls-10" points="93.22791 682.4879878 107.7013817 664.5295224 107.7067979 664.5212288 107.7013817 664.5295224 93.22791 682.4879878"/>
  <path class="cls-10" d="M74.5203147,705.4833609l.024373.1858438,4.2097505-5.2227514v-.0001693c-.0027081-.0685489-.0054162-.1374364-.0081243-.2059853l-4.2259992,5.2430622Z"/>
  <path class="cls-2" d="M135.7302773,498.9381586c-.1475918-.0116787-.2911214-.0170949-.4387131-.0291121"/>
  <path class="cls-2" d="M198.27669,494.9394711c-2.2572062.4842432-4.5631584.9395435-6.9151483,1.3618387"/>
  <path class="cls-10" d="M68.6261224,635.9483424c.0934297.077858.1882134.1565624.281643.2342512.1164486-2.4193541.2694565-4.8893159.460378-7.4068388.3791348-5.0352151.9045074-10.2611823,1.5625771-15.6553907,4.2815154-35.0626928,14.2107855-77.2346711,26.7290048-120.3275748,7.0004536,1.7011982,13.8181101,3.0329093,20.4651559,4.067575-6.6470458-1.0346657-13.4647023-2.366546-20.4651559-4.0677442-15.3915196,52.9837525-26.8684722,104.573169-29.0336028,143.1557223-.0013541.0260655-.0040622.0531466-.0054162.0800584.0013541-.0267425.0040622-.0538236.0054162-.0800584Z"/>
  <path class="cls-2" d="M254.1747029,473.9247389c2.1949198-1.247929,4.1610046-2.431202,5.8914843-3.5166447"/>
  <path class="cls-6" d="M307.8168637,476.9045016c-12.0090954-8.8780173-23.102851-18.9303369-33.1201346-30.0083517-2.4657304-2.6161995-6.4331055-3.1351403-9.4892029-1.2414973-12.5155112,8.1305801-25.8096028,14.992751-39.6872913,20.4847897-10.5616128,4.1709908-21.3980984,7.4222411-32.3916541,9.7481655-5.4974549,1.1631315-11.0328232,2.0947199-16.5925646,2.794596-5.5610954.6998761-11.1465637,1.1680399-16.7401563,1.4034759-16.7848401.7064771-33.6563395-.6793961-50.220469-4.1742067-5.5204738-1.1649933-11.0070962-2.5642377-16.4449728-4.1985796-1.8699471-.5048925-3.7778077-.2630248-5.3945469.5565158-1.2118774.6145708-2.2585603,1.5541142-3.0005813,2.7477119-.2477917.397753-.461732.8237719-.6350508,1.2753486-26.9632559,74.4857744-39.4408536,153.4387387-36.7598288,232.6091978.8936749,31.5345386,4.759496,62.9143766,11.5460093,93.7229736,18.3812685,81.1492381,76.1681852,113.6212891,140.8187962,156.0331041,1.9105687,1.2176321,4.2855775,1.4574687,6.4006082.6465603,73.347693-24.3605969,137.6503124-40.824188,176.1907208-114.3753274,14.4490988-28.0419283,26.2550862-57.3683451,35.2649544-87.5996078,22.9606755-75.8176547,31.1987335-155.3288274,24.2700446-234.2430319-.3154943-3.8863012-3.6139673-6.8477842-7.5109316-6.7435221-45.4027487,1.4481596-89.9686926-12.4456082-126.5037487-39.4383148ZM410.8657075,754.8509458c-.1218648.9376817-.5497455,1.8736707-.8598236,2.7869794-8.724163,28.8162773-20.0440455,56.7820402-33.8201799,83.5536976-1.841512,3.5743612-3.6992726,6.6888522-5.603071,9.8732462l-.5727644.8662554-.3791348.5736107c-.4969374.8885972-1.0277262,1.7348803-1.5530987,2.5437577-.5253725.8087081-1.382488,2.1082604-2.0540983,3.1647602l-1.6099689,2.3838102-2.198982,3.10789-1.5801798,2.1586989-2.4345872,3.15342c-.5009996.6211718-.9681478,1.284827-1.5070609,1.9010903-.9600235,1.2098463-1.9566065,2.4147841-2.96673,3.427108l-.996583,1.2049378c-1.3472827,1.553268-2.7270626,3.0516968-4.1366317,4.4951172-.4062159.4810273-.8395128.8819962-1.278226,1.3205401-.9776262,1.0548072-1.9877497,2.0673003-2.9545435,3.0471269l-1.6993364,1.6091226c-.9099236.8347736-1.7873499,1.7118614-2.6932113,2.5090601l-1.8577606,1.6644696-2.6268627,2.2890265c-.6458832.5641323-1.3242638,1.0856119-1.9660848,1.6121693s-1.7534985,1.4493444-2.6444654,2.1339874l-2.0364956,1.5649467-2.7094599,2.0491898-2.021601,1.452391-2.8543436,1.9919811-2.0067064,1.3400046-3.1265082,2.0326027-1.8333877,1.1719328-4.1230912,2.3601143-1.073764.6226951-5.1115498,2.9174763-1.5964284.8214024c-1.228126.640467-2.4237547,1.3234175-3.684378,1.9215704l-2.047328,1.0675015-3.3025351,1.6282486-2.2734549,1.0380508-3.2131676,1.5253406-2.3140765,1.0707174-3.2741,1.4031373-2.3479278,1.0282339-3.3485729,1.3933205-2.3370954.953084-3.504289,1.4110924-2.25179.8880895-4.0012264,1.4222633-2.045974.7625011-5.0925931,1.8900886-.7988912.2770731c-2.0039983.7300038-4.0066426,1.4598383-6.0417842,2.1473587l-1.7589148.6093238-4.3952558,1.5231403-2.200336.7804423-3.991748,1.3472827-2.4359412.8259723-3.9863318,1.3098769-2.4345872.8259723-4.3438018,1.4156623-2.0310794.6499454-6.6984998,2.2140458-1.2741638.4055389-11.1655204,3.6899635-5.1914389-2.8917493-1.0900126-.7147707-1.27958-1.0067384-5.1332146-3.3421411-3.0574515-2.0023058-14.7727174-9.5628295-.4901672-.3312352-.7393129-.4781499c-3.196919-2.0969202-6.3153028-4.2215985-9.3998354-6.3036241l-.2626863-.0343591-9.0897573-6.3396758-.6309887-.4258496-.2626863-.0343591c-2.7568518-1.9630382-5.4771441-3.921168-8.1541067-5.9117951l-.7988912-.6005225-1.458315-1.1062612-1.1495909-.8371432-.8679479-.6477451-1.6262176-1.2809341-3.045265-2.3822869-.8313885-.6428366-1.1401126-.9122932-3.9606048-3.2649601-1.8591147-1.5402352-4.3505721-3.7739148-1.1631315-1.029588c-1.8117228-1.6103074-3.5801159-3.2534507-5.3119496-4.8915162l-1.2822881-1.2743331-3.6979185-4.1078581-.742021-.7455754-.536205-.5661634-.4332969-.4764574c-2.7202923-2.8355561-5.3864225-5.7785901-7.9469366-8.6696624l-.4982915-.5612549-.461732-.5563465-.2978916-.3440987c-2.1394036-2.6070597-4.2259992-5.3217665-6.2327056-8.0640622l-.870656-1.2203402c-1.9362957-2.6950731-3.787286-5.4551407-5.5827602-8.3605998l-.511832-.7536997-.5294347-.9085695c-1.226772-1.9918119-2.3980277-4.1288459-3.5868862-6.1157493l-.3994456-.7389744c-1.2633314-2.3017207-2.4413574-4.6686052-3.6099051-7.1104704l-.9600235-1.9950277c-.895029-1.9100609-1.7223553-4.0404939-2.5889492-5.8706657l-.8476371-1.9803024c-.9992911-2.572362-2.0310794-5.1870382-2.7703923-7.9926359.0040622-.088352.0162486-.1760269.0352054-.262517l-.2951835-.9542688c-.8259723-2.4352642-1.6424662-4.9456783-2.379071-7.4836813l-.6810886-2.3782247c-.8273263-3.0076901-1.6167392-6.0106409-2.3113683-9.153567-.9708559-4.2474948-1.8564066-8.5599841-2.7053977-12.867565-.2396674-1.3669164-.4806888-2.7336636-.7596237-4.1053192-.5226644-3.0059975-1.049391-5.9745893-1.534142-8.9756783l-.7569156-4.7153201-1.2497909-8.8238551-.5659941-4.4233524c-.4536077-3.5312008-.8327425-7.0525847-1.2064612-10.6113743.0893675-.6751646-.1597782-1.3945053-.2166485-2.1268786l.0636405-.4876283c-.1083242-.9297266-.1719647-1.8919505-.280289-2.8215078-.2031079-2.2394343-.410278-4.4412936-.5768265-6.6756502.0595783-.4502226.1232188-.9378509-.1178026-1.4271718l-.2288349-3.5017501c-.1083242-1.5021525-.254562-3.0092134-.3263268-4.5062881l-.1259269-2.5346178c-.1164486-1.7321722-.1963377-3.4592667-.280289-5.1489555s-.1232188-2.2670231-.2017539-3.421861c-.0785351-1.7270945-.1205107-3.4494498-.2003998-5.1767136-.2031079-5.444139-.2884133-10.9111277-.3371592-16.3730387-.0040622-1.7174469.0284351-3.4298161.024373-5.1472629.0094784-3.7632516.0501-7.5730488.1218648-11.4295607.0297892-1.9799639.077181-3.805058.127281-5.9349832.128635-3.6075355.2572701-7.2152403.4238186-10.8178673l.3046619-5.8354603c.1259269-2.5039824.306016-5.1349072.4942293-7.7761567.0961378-1.3565918.1936296-2.7160609.2911214-4.0624973.1570701-1.2003679.3100781-2.3631609.2667484-3.7805158l-.024373.1877056c.4657942-3.5642058.6675481-7.1626015,1.0101235-10.7430559.0040622-.0407908.0067703-.0819202.0108324-.122711.0135405-.1469147.0230189-.2943373.0379135-.441252.0880134-.6751646.1814431-1.387735.2694565-2.0630689.6472373-4.9512638,1.1130315-9.9646447,1.7372499-15.0333726l.2992457-2.2880109c.7514994-5.7389841,1.5070609-11.5155431,2.5198925-17.2201681.1868593-1.4254792.3683024-2.8133835.5551617-4.2386934.5687022-4.3510798,1.5124771-8.6532445,2.3073062-12.9748737l1.0344964-5.2821605c.869302-4.3119815,1.7805796-8.6564604,2.762268-12.9537166l.8828425-4.1193675c1.3080151-5.6279517,2.6336329-11.1008644,4.1027804-16.784163.1367593-1.0502373.5321428-2.0287098.819202-3.0593133,1.2091693-4.572806,2.4494817-9.1029593,3.761559-13.5860593.4982915-1.7660235,1.0534532-3.6772692,1.5639311-5.2510172,1.1671936-3.9675443,2.4102142-7.925441,3.6911483-11.8784293l1.5625771-4.9460168c1.7927661-5.371528,3.6342781-10.8075427,5.5543251-16.0182769.0270811-.0727803.0528081-.1494536.0798891-.2222339,32.6313215,9.8187455,66.9646875,11.4082344,100.0414923,4.9820685,2.7067518-.5258803,5.4040252-1.1069383,8.0918203-1.7408043,9.7600135-2.3010437,19.3941001-5.2720051,28.8101841-8.9907422.0704108-.0274196.1408215-.0506077.2098782-.0781966,14.1674558-5.692777,27.759439-12.7189576,40.6053391-20.9700484.102908-.0666871.2112323-.1260962.3154943-.1927833,6.9137942,7.6126548,14.3461908,14.723633,22.1699086,21.3825268,1.9335876,1.6460206,3.8929022,3.2598824,5.8792978,4.8442936,2.0039983,1.5991365,3.9944561,3.2140139,6.0499085,4.7491714,7.9889123,5.9136569,16.3677918,11.1826153,25.0296683,15.8623915,2.4102142,1.3020911,4.8407392,2.5579752,7.2956372,3.7622361,30.5189989,14.9712554,64.3974031,22.3948506,98.753788,21.2897742,6.8203646,77.9766921-1.3323881,156.5381659-24.0195449,231.4526673Z"/>
  <path class="cls-12" d="M247.8106542,694.6588925l2.5049979.3953835c36.8627369,5.7970391,72.4364153-10.5633054,92.0742449-40.7228032,7.8602772-.626588,14.8810417-6.0065788,17.1748073-14.0340816,2.9545435-10.3341319-3.0290164-21.1098544-13.3631483-24.0643979-10.3341319-2.9543742-21.1096851,3.0296934-24.0642286,13.3636561-1.4975825,5.2386615-.690567,10.5864935,1.8090147,14.9758254-15.452452,22.3887574-42.4251863,34.4508301-70.4053359,30.0247696l-2.507706-.3953835c-31.0294769-4.8833919-61.3521381,4.2243066-84.246465,22.7663689-2.8055977,2.2731163-5.5028711,4.6850231-8.0742176,7.2336892l1.6262176-10.3106053,10.8635666-68.8860886c5.934814-2.5534053,10.4790156-7.9862042,11.5595498-14.8388968,1.5422663-9.7835402-4.502226-18.9980396-13.7680102-21.6970056l-16.630478,20.6374592-5.9036708,7.3255956c1.100845,2.0182159,2.5496817,3.8290924,4.2842235,5.3480013l-9.8141756,62.239212-12.9907838,82.3738098c-5.9334599,2.5535746-10.4776615,7.9862042-11.5581958,14.8388968-1.6749635,10.6166212,5.577344,20.583297,16.194473,22.2574142,10.6157749,1.6739479,20.5829585-5.5776825,22.2565679-16.1943037,1.075118-6.8169795-1.5422663-13.3528237-6.3545704-17.6106431.7284805-4.4313075,1.32968-8.0117619,1.4948744-8.807268,5.295701-23.3218691,19.7624025-42.4317873,38.8315298-54.2486072,17.0691912-10.5782,37.8254685-15.3136616,59.0069184-11.9699971Z"/>
  <path class="cls-3" d="M68.6207061,659.4232195c.1841512,2.5906418.4278807,5.1775599.7338967,7.7588925l5.1657119,38.3012488-5.1657119-38.3012488c-.306016-2.5813326-.5497455-5.1682508-.7338967-7.7588925Z"/>
  <path class="cls-3" d="M68.6207061,636.0284008c-.0013541.0133713-.0027081.0269118-.0027081.0399446-.1841512,2.5928421-.306016,5.1885616-.3655943,7.784958.0595783-2.5963965.1814431-5.1921159.3655943-7.784958,0-.0130328.0013541-.0265733.0027081-.0399446Z"/>
  <path class="cls-11" d="M160.9156617,499.5214169c8.1527527-.2775808,15.9101219-.9999681,23.2477347-2.0564679-7.3376128,1.0564998-15.094982,1.778887-23.2477347,2.0564679Z"/>
  <path class="cls-3" d="M160.9156617,499.5214169c8.1527527-.2775808,15.9101219-.9999681,23.2477347-2.0564679-7.3376128,1.0564998-15.094982,1.778887-23.2477347,2.0564679Z"/>
  <polygon class="cls-11" points="168.9939415 588.4693229 269.2927039 464.0057935 168.9939415 588.4693229 168.9939415 588.4693229"/>
  <polygon class="cls-3" points="168.9939415 588.4693229 269.2927039 464.0057935 168.9939415 588.4693229 168.9939415 588.4693229"/>
  <path class="cls-11" d="M126.2437825,497.9970918c-2.6715464-.3222646-5.3850685-.7112163-8.1189013-1.1367274.3886132.0604246.7867048.1364208,1.1739639.1948144,2.3384494.352223,4.6538799.665517,6.9449375.9419131Z"/>
  <path class="cls-3" d="M126.2437825,497.9970918c-2.6715464-.3222646-5.3850685-.7112163-8.1189013-1.1367274.3886132.0604246.7867048.1364208,1.1739639.1948144,2.3384494.352223,4.6538799.665517,6.9449375.9419131Z"/>
  <path class="cls-11" d="M135.7302773,498.9381586c6.5346594.5165712,12.8729812.7416825,18.9973626.7063079-6.1243814.0353746-12.4627031-.1897367-18.9973626-.7063079Z"/>
  <path class="cls-3" d="M135.7302773,498.9381586c6.5346594.5165712,12.8729812.7416825,18.9973626.7063079-6.1243814.0353746-12.4627031-.1897367-18.9973626-.7063079Z"/>
  <path class="cls-11" d="M204.902071,493.4043136c2.6986275-.6724565,5.3227821-1.3835036,7.8670475-2.1255246-2.5442654.742021-5.16842,1.453068-7.8684016,2.1255246-2.1583604.5378975-4.3681747,1.0509143-6.6240269,1.5351575,2.2558522-.4842432,4.4656666-.99726,6.625381-1.5351575Z"/>
  <path class="cls-3" d="M204.902071,493.4043136c2.6986275-.6724565,5.3227821-1.3835036,7.8670475-2.1255246-2.5442654.742021-5.16842,1.453068-7.8684016,2.1255246-2.1583604.5378975-4.3681747,1.0509143-6.6240269,1.5351575,2.2558522-.4842432,4.4656666-.99726,6.625381-1.5351575Z"/>
  <polygon class="cls-9" points="107.7067979 664.5212288 107.7149222 664.5131045 107.7135682 664.5131045 107.7067979 664.5212288"/>
  <polygon class="cls-3" points="107.7067979 664.5212288 107.7149222 664.5131045 107.7135682 664.5131045 107.7067979 664.5212288"/>
  <polygon class="cls-9" points="78.7544382 700.4464532 93.22791 682.4879878 78.7544382 700.446284 78.7544382 700.4464532"/>
  <polygon class="cls-3" points="78.7544382 700.4464532 93.22791 682.4879878 78.7544382 700.446284 78.7544382 700.4464532"/>
  <polygon class="cls-11" points="146.4597927 616.4323776 146.4597927 616.4322084 107.7135682 664.5131045 107.7149222 664.5131045 107.7149222 664.5131045 146.4597927 616.4323776"/>
  <polygon class="cls-3" points="146.4597927 616.4323776 146.4597927 616.4322084 107.7135682 664.5131045 107.7149222 664.5131045 107.7149222 664.5131045 146.4597927 616.4323776"/>
  <path class="cls-10" d="M146.4597927,616.4322084c-1.9836875-3.6366476-2.8448652-7.9215481-2.150236-12.3289904,1.6749635-10.6169597,11.640793-17.8687594,22.257922-16.1946423.8327425.1313431,1.63705.3308967,2.4264628.5607472l100.2987624-124.4635294s-.0501.0407908-.1475918.1193259c-.1976917.1572394-.5903671.4661327-1.1753179.9046766-.5835968.4385439-1.3594691,1.0067384-2.3222008,1.6829185-1.4447745,1.0140164-3.3106594,2.2705775-5.5814062,3.6953797-1.7304796,1.0854427-3.6965645,2.2687157-5.8914843,3.5166447-6.8596321,3.8998417-15.9561597,8.4327031-27.0851207,12.5972621-4.452126,1.6658236-9.2305788,3.2729152-14.3204637,4.7567879-2.5442654.742021-5.16842,1.453068-7.8670475,2.1255246-2.1597144.5378975-4.3695288,1.0509143-6.625381,1.5351575-2.2572062.4842432-4.5618043.9395435-6.9137942,1.3618387-2.353344.4222953-4.7527258.8115855-7.1994994,1.1636392-7.3376128,1.0564998-15.094982,1.778887-23.2477347,2.0564679-2.0378497.0693952-4.1014263.1110323-6.1880219.1230496-6.1243814.0353746-12.4627031-.1897367-18.9973626-.7063079-.1475918-.0116787-.2911214-.0170949-.4387131-.0291121-2.9748543-.2408522-5.9903301-.543483-9.0477817-.9119546-2.2910576-.2763961-4.6064881-.58969-6.9449375-.9419131-.3872591-.0583935-.7853507-.1343898-1.1739639-.1948144-6.6470458-1.0346657-13.4647023-2.3663767-20.4651559-4.067575-12.5182193,43.0929036-22.4474894,85.264882-26.7290048,120.3275748-.6580697,5.3942083-1.1834423,10.6201756-1.5625771,15.6553907-.1909215,2.5175229-.3439294,4.9874847-.460378,7.4068388-.0934297-.0776888-.1882134-.1563931-.281643-.2342512-.0013541.0262348-.0040622.0533158-.0054162.0800584-.0013541.0133713-.0027081.0269118-.0027081.0399446-.1841512,2.5928421-.306016,5.1885616-.3655943,7.784958-.1218648,5.1929622.0013541,10.3888018.3683024,15.5699161.1841512,2.5906418.4278807,5.1775599.7338967,7.7588925l5.1657119,38.3012488,4.2259992-5.2430622c.0027081.0685489.0054162.1374364.0081243.2059853l14.4734717-17.9582962,14.4734717-17.9584654.0054162-.0082936.0067703-.0081243,38.7462245-48.0808961Z"/>
  <path class="cls-3" d="M146.4597927,616.4322084c-1.9836875-3.6366476-2.8448652-7.9215481-2.150236-12.3289904,1.6749635-10.6169597,11.640793-17.8687594,22.257922-16.1946423.8327425.1313431,1.63705.3308967,2.4264628.5607472l100.2987624-124.4635294s-.0501.0407908-.1475918.1193259c-.1976917.1572394-.5903671.4661327-1.1753179.9046766-.5835968.4385439-1.3594691,1.0067384-2.3222008,1.6829185-1.4447745,1.0140164-3.3106594,2.2705775-5.5814062,3.6953797-1.7304796,1.0854427-3.6965645,2.2687157-5.8914843,3.5166447-6.8596321,3.8998417-15.9561597,8.4327031-27.0851207,12.5972621-4.452126,1.6658236-9.2305788,3.2729152-14.3204637,4.7567879-2.5442654.742021-5.16842,1.453068-7.8670475,2.1255246-2.1597144.5378975-4.3695288,1.0509143-6.625381,1.5351575-2.2572062.4842432-4.5618043.9395435-6.9137942,1.3618387-2.353344.4222953-4.7527258.8115855-7.1994994,1.1636392-7.3376128,1.0564998-15.094982,1.778887-23.2477347,2.0564679-2.0378497.0693952-4.1014263.1110323-6.1880219.1230496-6.1243814.0353746-12.4627031-.1897367-18.9973626-.7063079-.1475918-.0116787-.2911214-.0170949-.4387131-.0291121-2.9748543-.2408522-5.9903301-.543483-9.0477817-.9119546-2.2910576-.2763961-4.6064881-.58969-6.9449375-.9419131-.3872591-.0583935-.7853507-.1343898-1.1739639-.1948144-6.6470458-1.0346657-13.4647023-2.3663767-20.4651559-4.067575-12.5182193,43.0929036-22.4474894,85.264882-26.7290048,120.3275748-.6580697,5.3942083-1.1834423,10.6201756-1.5625771,15.6553907-.1909215,2.5175229-.3439294,4.9874847-.460378,7.4068388-.0934297-.0776888-.1882134-.1563931-.281643-.2342512-.0013541.0262348-.0040622.0533158-.0054162.0800584-.0013541.0133713-.0027081.0269118-.0027081.0399446-.1841512,2.5928421-.306016,5.1885616-.3655943,7.784958-.1218648,5.1929622.0013541,10.3888018.3683024,15.5699161.1841512,2.5906418.4278807,5.1775599.7338967,7.7588925l5.1657119,38.3012488,4.2259992-5.2430622c.0027081.0685489.0054162.1374364.0081243.2059853l14.4734717-17.9582962,14.4734717-17.9584654.0054162-.0082936.0067703-.0081243,38.7462245-48.0808961Z"/>
  <path class="cls-12" d="M166.5674786,587.9085757c-10.617129-1.6741172-20.5829585,5.5776825-22.257922,16.1946423-.6946292,4.4074423.1665485,8.6923428,2.150236,12.3289904v.0001693l5.9036708-7.3255956,16.630478-20.6374592h0c-.7894129-.2298505-1.5937203-.429404-2.4264628-.5607472Z"/>
  <path class="cls-3" d="M166.5674786,587.9085757c-10.617129-1.6741172-20.5829585,5.5776825-22.257922,16.1946423-.6946292,4.4074423.1665485,8.6923428,2.150236,12.3289904v.0001693l5.9036708-7.3255956,16.630478-20.6374592h0c-.7894129-.2298505-1.5937203-.429404-2.4264628-.5607472Z"/>
</svg>