<?xml version="1.0" encoding="UTF-8"?>
<svg id="Layer_10" data-name="Layer 10" xmlns="http://www.w3.org/2000/svg" viewBox="0 0 1000 575">
  <defs>
    <style>
      .cls-1 {
        fill: #020202;
        stroke-width: 0px;
      }
    </style>
  </defs>
  <path class="cls-1" d="M420.4793668,272.566984l-30.493248-5.766224c-2.3945656-.4801364-4.9053425-.8394741-7.5353889-1.0826005-2.6300465-.2354809-5.1408234-.3593377-7.5323307-.3593377-10.0461659,0-17.9363053,2.8823474-23.6734764,8.6485714-5.7463457,5.766224-8.6118731,13.8199767-8.6118731,24.1474964v108.8380507c0,10.8122433,3.2263942,19.4623438,9.685299,25.9487724,6.4527884,6.4864285,15.4255283,9.7311719,26.905987,9.7311719h41.2550312v36.7594866h-35.6799443v-21.2636198h-38.9216295v28.4717821c0,14.6518054,7.5690291,21.9838244,22.704029,21.9838244h69.6625912c15.0646615,0,22.6000504-7.3320191,22.6000504-21.9838244v-220.5615071h-40.3650968v6.4879576ZM420.4793668,410.2361545h-24.4013264c-8.721968,0-13.0798939-4.4420262-13.0798939-13.3337239v-85.0529503c0-8.6501005,4.2386563-12.9743862,12.7312598-12.9743862h4.0612811c1.532155,0,2.8869347.1238568,4.0704556.3608668l16.6182238,1.801276v109.1989176Z"/>
  <rect class="cls-1" x="487.6892867" y="266.0790263" width="39.6433632" height="177.6749297"/>
  <rect class="cls-1" x="487.3284199" y="199.0464816" width="40.3620387" height="41.4446392"/>
  <path class="cls-1" d="M609.3931578,300.3170324h25.9487724v-34.238006h-25.9487724v-48.2919346h-40.3650968v48.2919346h-19.0984188v34.238006h19.0984188v121.4530992c0,14.6579218,7.5139816,21.9838244,22.5480611,21.9838244h44.8453504v-34.238006h-27.0283147v-109.1989176Z"/>
  <path class="cls-1" d="M714.3014298,300.3170324h25.9487724v-34.238006h-25.9487724v-48.2919346h-40.3650968v48.2919346h-19.0984188v34.238006h19.0984188v121.4530992c0,14.6579218,7.5139816,21.9838244,22.5480611,21.9838244h44.8453504v-34.238006h-27.0283147v-109.1989176Z"/>
  <path class="cls-1" d="M842.3846927,409.51595l-37.4812203.7202046v-144.1571282h-40.3650968v156.7721767c0,14.6579218,7.2937916,21.9838244,21.8813749,21.9838244,1.9174874,0,4.0673974-.1238568,6.461963-.3608668,2.385391-.2415973,4.7799565-.6024641,7.1714639-1.0810714l42.3315153-5.766224v6.1270908h40.3620387v-177.6749297h-40.3620387v143.4369236Z"/>
  <path class="cls-1" d="M993.1352862,203.3707673v-34.9582106h-47.3683601c-15.0371378,0-22.5480611,7.3320191-22.5480611,21.9838244v75.6826452h-18.3797433v34.238006h18.3797433v143.4369236h40.3650968v-143.4369236h25.5879055v-34.238006h-25.5879055v-62.708259h29.5513244Z"/>
  <path class="cls-1" d="M230.9363173,21.9499053c-15.3635254-6.8396606-31.6079102-11.4136353-48.2827148-13.5949097-16.6762695-2.1813354-33.5522461-1.9396362-50.1574707.7188721C69.2213515,19.2284088,21.7978896,63.5993804,14.4873427,119.4852447l-.0236816.1912842-.0099487.1491699c-.6452637,10.5736084-.4464722,21.2632446.5275269,31.8214722.4694214,3.784668,1.9006348,6.1015625,2.6018066,7.0119019l.0007324.0002441c1.2087402,1.4430542,2.4946289,2.7992554,3.8449707,4.0744629l70.355957,93.7076416c-5.8793945.4170532-12.1013184.3121338-18.6411133-.543335-9.2388916-1.2085571-18.595459-3.8292236-27.8082275-7.7880859l-.0008545-.0002441c-4.1047363-1.7642822-8.8594971.1716309-10.5644531,4.3015137l-.0007324.0008545c-23.1704102,56.1229248-32.1722412,117.7196045-26.026001,178.1801147,8.2196045,75.8741455,34.8328857,95.4655151,99.6030273,136.2927856l.0008545.0003052c1.9831543,1.2497559,4.4144287,1.5678101,6.6523438.8702393l.0007324-.0001831c65.4353027-20.385376,101.479248-31.6143799,129.7536621-102.0185547,22.7751465-57.9481201,30.501709-121.2073975,22.3432617-182.9345703v-.0008545c-.5856934-4.4262695-4.6774902-7.5193481-9.0950928-6.8751831-9.8931885,1.4407959-19.5854492,1.5592041-28.807373.3550415-.0062256-.0007935-.0037842-.0004883-.0107422-.0013428-6.7432861-.8821411-12.9682617-2.4523926-18.696167-4.4691162h0l87.2287598-70.7130737c5.0949707-4.6955566,10.0913086-11.3556519,10.24646-11.5629272,3.6033936-9.8110352,6.4825439-19.9505005,8.5583496-30.1965942l.0360107-.190918.019043-.1466064c7.3098145-55.8859253-27.1054688-110.9620972-85.6401367-137.0507812ZM133.2798232,13.9624786c16.1204834-2.6268921,32.5415039-2.8622437,48.7307129-.6992798,16.2016602,2.0740356,32.0093994,6.5250244,46.9119873,13.210083,11.0102539,11.4346924,58.2838135,66.1557617,31.0352783,135.3717651,0,0-4.1461182-46.6707153-51.4763184-37.4855957,1.5230713-7.9693604,2.52771-15.4209595,3.0980225-22.3816528,5.5131836-67.2873535-29.5689697-88.7145996-29.5689697-88.7145996,0,0-39.4123535,11.6826782-51.3920898,78.1242676-1.2393799,6.873291-2.1850586,14.3325195-2.7631836,22.425415-6.0994873-2.960144-11.6584473-4.6332397-16.7067871-5.3226929-.5612793-.0766602-1.1154785-.1410522-1.6644287-.1937866-14.2596436-1.3711548-24.2957764,5.1852417-30.8702393,12.3530884-2.0229492,2.2055054-3.7180176,4.4688721-5.1071777,6.5770264-.3470459.5270386-.6757812,1.0443726-.9854736,1.5487061-.4639893.7564087-.8861084,1.4835815-1.2668457,2.170166-.2537842.4577637-.4901123.8974609-.7080078,1.3157959-1.4158936,2.7191772-2.0765381,4.5359497-2.0765381,4.5359497C59.9404677,62.9010162,119.6984023,22.1804962,133.2798232,13.9624786ZM136.7148818,105.6283111c-1.1054688.7493286-2.1750488,1.5543213-3.2041016,2.4128418-.4404297.3672485-.871582.7462769-1.295166,1.1348877-.4233398.3886108-.8391113.7867432-1.2485352,1.1923828,6.3395996-72.4174805,43.43396-91.0004883,50.6367188-93.9393921,6.2402344,4.670105,37.2473145,31.9733276,24.7324219,103.7614136-4.668335-7.9484253-11.9406738-14.1099854-20.6641846-17.3685913-9.5828857-3.8504028-19.9844971-5.2109985-30.2348633-3.9549561-5.4168701.5289917-10.6119385,2.1409302-15.3031006,4.6828613-1.1728516.6355591-2.3135986,1.3291016-3.4191895,2.0785522ZM20.1992568,153.9572296l-.0068359.050354c-.0275879-.0036011-.0473633-.0291138-.0435791-.0569458-1.1895752-11.2340698-1.4411621-22.5476685-.7523193-33.8234253C26.3088759,67.2801055,69.9775771,26.983963,125.9700087,15.3300933c-19.5686035,13.4417114-67.6021729,53.6825562-60.4191895,120.7294312-17.2529297-3.836792-35.2595215,3.1447754-45.3515625,17.8977051ZM32.6269912,170.5802154c4.6958008,2.3539429,9.8015137,3.9354248,15.1663818,4.637085,6.6240234.8665161,13.5010986.2970581,19.9195557-1.6468506,4.7424316,5.888855,17.6586914,18.9271851,40.8322754,21.980896l15.0454102,52.975708h0c-7.5712891,3.3026733-16.6074219,6.1636963-26.8515625,7.444458-.8096924.1011353-1.6289062.1889038-2.4553223.2661743.826416-.0772705,1.6456299-.1650391,2.4553223-.2661743l-64.1120605-85.3912964ZM259.1557997,283.8524932c8.001709,60.5396118.480957,122.119873-21.8569336,178.9539185-26.3256836,65.5548706-57.0405273,76.2286987-124.6809082,97.3025513-62.2304688-39.2251587-88.0163574-57.5049438-95.9111328-130.3796997-6.02771-59.2982178,2.7209473-119.1663208,25.4655762-174.2597656,65.7351074,28.2446899,112.6248779-17.3222046,112.6248779-17.3222046,0,0,33.6033936,56.0097656,104.3585205,45.7052002ZM208.1665419,270.9616851c-.7646484-.2907715-1.5198975-.5894775-2.2646484-.8967896-10.513916-4.3384399-19.1342773-10.1419067-25.8898926-15.8282471-1.1337891-.9546509-2.2255859-1.9061279-3.2546387-2.8462524-9.9750977-9.1174316-14.9919434-17.1989746-15.0905762-17.3615112l-.0007324-.0014648c-2.6561279-4.4286499-8.746582-5.2237549-12.4499512-1.6251221-.1536865.149231-8.0775146,7.6890259-21.723877,14.3286743-.6262207.3045654-1.2650146.6066895-1.9155273.9061279.6505127-.2994385,1.2893066-.6015625,1.9155273-.9061279l-14.4101562-50.7401123c3.1086426.2162476,6.2905273.2642212,9.5231934.1101074,8.9650879,7.1973267,19.7282715,11.7885742,31.1430664,13.2817993.8631592.112854,1.7293701.2080688,2.5428467.2775269.8609619.1494751,1.7225342.2803955,2.5858154.3933105,11.4161377,1.4933472,22.998291-.1749878,33.5131836-4.8242188,3.2576904,1.0355835,6.5214844,1.8477783,9.7502441,2.447876l-25.3830566,43.7131348c1.0290527.9401245,2.1208496,1.8916016,3.2546387,2.8462524l26.6346436-45.8690186c22.8868408,2.7982788,38.53479-6.3561401,44.5845947-10.7923584,5.6959229,3.5222778,12.1854248,5.8374634,18.8017578,6.7028198,6.2976074.8239136,12.5631104.3944702,18.5112305-1.2085571l-82.642334,66.9953613c.744751.307312,1.5.6060181,2.2646484.8967896ZM311.6672744,158.3583526c-2.2431641,11.0749512-5.4129639,21.9416504-9.4772949,32.4852905-5.9581299-16.852356-21.5625-28.2304077-39.222168-28.9606323,24.1865234-62.9428711-11.8795166-114.1845093-27.333252-132.2078247,51.1108398,25.6638794,82.9458008,75.8362427,76.0327148,128.6831665Z"/>
  <path class="cls-1" d="M158.076454,254.5818023c-1.7049561-1.9053955-4.1208496-2.8522949-6.527832-2.7466431h0c-.7224121.0317383-1.4436035.1583252-2.1447754.382019-.2338867.074585-.465332.1599121-.6938477.2562256-.456543.1925659-.9022217.4287109-1.3295898.7092896-1.7103271,1.1072388-3.4473877,2.1715088-5.2097168,3.1918335-2.6425781,1.5303955-5.3409424,2.9620361-8.0891113,4.2918701-2.748291,1.329895-5.5466309,2.5579834-8.3891602,3.6815796-3.2333984,1.2751465-6.5141602,2.3921509-9.8305664,3.350647s-6.6687012,1.7583618-10.0452881,2.399292c-1.1256104.213623-2.2537842.4096069-3.3843994.5878296-1.1304932.1782837-2.2631836.3388062-3.3979492.4816895-2.269165.2857666-4.5460205.5007324-6.8269043.6446533-2.2810059.1439209-4.56604.2168579-6.8516846.21875-.0306396.000061-.0604248-.0018311-.0909424-.0018311-2.923584-.000061-5.848877-.1200562-8.7678223-.3530273-1.8364258-.1466064-3.6699219-.3457642-5.5002441-.5847778-.2104492-.0274658-.4199219-.0650024-.630249-.09375-1.0516357-.1437378-2.1029053-.2938232-3.1513672-.4685669-1.2581787-.2097168-2.5140381-.4414673-3.7667236-.694519-3.2913818-.6650391-6.5644531-1.4677124-9.8029785-2.4379272-.5268555-.1549072-1.0582275-.2554932-1.5864258-.3046875-.0085449-.0007935-.0170898.0002441-.0256348-.0005493-.3876953-.0348511-.7741699-.0440063-1.1567383-.0249634-.7818604.0389404-1.5477295.1880493-2.2768555.4365845-.364502.1243286-.7197266.2734985-1.0632324.4462891-1.3730469.6911621-2.5566406,1.7595215-3.3830566,3.1207886-.2751465.4537354-.5107422.9400024-.7003174,1.4558105-.9632568,2.6610718-1.8945312,5.3322144-2.7928467,8.0127563-1.7967529,5.3609619-3.4633789,10.7594604-5.0002441,16.1907349-.7683105,2.7156372-1.5039062,5.4394531-2.2072754,8.1708984-2.1086426,8.1943359-3.923584,16.4570923-5.4404297,24.7721558-.5061035,2.7716675-.9786377,5.5491943-1.4189453,8.3319092-.4396973,2.7827148-.8461914,5.5707397-1.2196045,8.3633423-1.1201172,8.3779297-1.9417725,16.7974854-2.4625244,25.2427979-.347168,5.630249-.5604248,11.2718506-.6391602,16.9202271-.0780029,5.6482544-.0222168,11.3032837.1689453,16.9602661.5222168,18.0693359,2.7355957,36.0500488,6.611084,53.7068481,10.7174072,47.1782837,43.7749023,66.0216064,81.3088379,90.6636353,1.0559082.6801758,2.2370605,1.1009521,3.4511719,1.2568359.0153809.0021973.0299072.0059204.045166.0080566.0153809.0021973.0313721.0018311.0473633.0039062,1.2133789.1616211,2.4626465.0587769,3.6577148-.3268433,42.5876465-14.1615601,79.4006348-23.8651733,101.8713379-66.7022705,8.2862549-16.065918,15.050293-32.8724365,20.2025146-50.199585,1.6414795-5.4171143,3.1514893-10.8671875,4.5291748-16.3455811,9.6455078-38.3482666,12.8244629-78.0792847,9.3664551-117.5502319-.1015625-1.0943604-.4105225-2.1223145-.8859863-3.0467529-.7126465-1.3866577-1.7998047-2.5407715-3.1209717-3.3375244-1.3204346-.796875-2.8746338-1.2363892-4.5230713-1.1941528-9.2647705.2865601-18.4645996-.5981445-27.3937988-2.5899048-2.9770508-.6640015-5.9237061-1.4508057-8.8320312-2.3583984-1.4549561-.4537964-2.8999023-.9377441-4.3342285-1.4515381-10.0423584-3.5964966-19.5777588-8.656311-28.2783203-15.0774536-6.5551758-4.8451538-12.6135254-10.3278809-18.0869141-16.368042ZM32.6743544,359.1290435c.0310059.0292358.0646973.0583496.0959473.0875854-.0576172-.0510864-.0961914-.0859375-.0959473-.0875854ZM38.6225966,364.2614288c0,.0010986-.0424805-.0344238-.104248-.0865479.034668.0287476.0695801.0578003.104248.0865479ZM182.7859267,369.1309356c-1.411377-2.4783325-1.8670654-5.4979248-1.0214844-8.4558716,1.6682129-5.8349609,7.7524414-9.2137451,13.5875244-7.5456543,5.835083,1.6682739,9.213501,7.7526245,7.5452881,13.5877075-1.295166,4.5325928-5.2592773,7.5703125-9.6975098,7.9241333-11.0881348,17.0291748-31.1744385,26.2668457-51.9885254,22.9935913l-1.4143066-.2232666c-11.9599609-1.8879395-23.6796875.7858887-33.317627,6.758728-10.7670898,6.6722412-18.9355469,17.4624023-21.9256592,30.6307983-.0932617.4491577-.4327393,2.4708252-.8441162,4.9729004,2.7172852,2.4041138,4.1950684,6.0944824,3.5881348,9.9436035-.9450684,5.9945679-6.572876,10.0890503-12.5668945,9.1439209-5.994873-.9453125-10.0898438-6.5728149-9.144043-12.5673828.6101074-3.8692627,3.1759033-6.9367676,6.526123-8.3786011l7.3352051-46.5112915v-.000061l5.5413818-35.1425171c-.9793701-.857605-1.7974854-1.8800659-2.4190674-3.0196533v-.0001221c-.5600586-1.0266724-.9616699-2.1448364-1.1740723-3.3174438-.1594238-.8794556-.2124023-1.7896118-.1463623-2.7145386.0220947-.3083496.057251-.6182861.1063232-.9293823.1773682-1.1240234.5192871-2.1812134.9973145-3.1509399.6374512-1.2929688,1.5168457-2.4303589,2.5709229-3.3631592.5269775-.4663696,1.0977783-.8816528,1.7036133-1.239563.3029785-.1790161.6147461-.3436279.9342041-.4932251.9586182-.4486694,1.9870605-.7616577,3.0567627-.9180908.3565674-.052124.7177734-.086853,1.0823975-.1034546.7294922-.0332031,1.4731445.0061646,2.2224121.1243286.4702148.0741577.9243164.1868286,1.3701172.3165894,5.2318115,1.5239868,8.6447754,6.7268066,7.7739258,12.2509766-.6101074,3.8692627-3.1759033,6.9368286-6.5268555,8.3786011l-6.1340332,38.8956299-.9182129,5.8217163c1.4519043-1.4390869,2.9748535-2.8009033,4.55896-4.0844116,12.927002-10.4695435,30.0482178-15.6120605,47.5687256-12.8547363l1.4158936.2232666c15.7987061,2.4990845,31.0284424-4.3115845,39.75354-16.953125Z"/>
</svg>