<?xml version="1.0" encoding="UTF-8"?>
<svg id="Layer_10" data-name="Layer 10" xmlns="http://www.w3.org/2000/svg" viewBox="0 0 575 1000">
  <defs>
    <style>
      .cls-1 {
        fill: #020202;
        stroke-width: 0px;
      }
    </style>
  </defs>
  <path class="cls-1" d="M408.749194,31.5290722c-27.1036055-12.0662061-55.7611814-20.1353959-85.1780838-23.9834972-29.4194866-3.8482089-59.191287-3.4218146-88.4854395,1.2682001C123.4592936,26.7279366,39.7970632,105.0051079,26.9001419,203.5963086l-.041778.3374545-.0175511.2631585c-1.1383437,18.6534603-.7876451,37.5116113.9306379,56.1379374.828131,6.6767324,3.35301,10.7640882,4.5899843,12.3700659l.0012921.0004307c2.1324024,2.545768,4.4009064,4.938314,6.7831156,7.1879749l124.1186546,165.3145929c-10.37215.7357456-21.348574.5506517-32.8857711-.9585259-16.298816-2.1320794-32.80523-6.7553354-49.0579609-13.7393732l-.0015075-.0004307c-7.2413819-3.1124633-15.6295061.3027831-18.637309,7.5885271l-.0012921.0015075c-40.8761426,99.0094117-56.7567476,207.6753631-45.913841,314.3369381,14.5006378,133.8535819,61.4505309,168.4157503,175.7149539,240.4412916l.0015075.0005384c3.4985871,2.2047602,7.7877265,2.7658564,11.7357505,1.535235l.0012921-.000323c115.4378688-35.9629169,179.0248938-55.772595,228.9052789-179.976313,40.1788371-102.229335,53.8096736-213.8283626,39.4169264-322.7245239v-.0015075c-1.0332525-7.8086155-8.2518072-13.2652787-16.0451329-12.1288731-17.4530956,2.541784-34.551724,2.7506742-50.8206062.6263474-.0109829-.0013998-.0066759-.0008614-.0189509-.0023689-11.8961867-1.5562317-22.8779945-4.3263951-32.9828943-7.8842036h0l153.8848558-124.748663c8.9883065-8.2836791,17.8026097-20.0331044,18.0763204-20.3987698,6.3569366-17.3081646,11.4361977-35.1957302,15.0982359-53.2714045l.0635284-.3368085.0335947-.2586362c12.8956292-98.5913084-47.818187-195.754088-151.0822821-241.7785116ZM236.4682221,17.4380314c28.438995-4.6342389,57.4081834-5.049435,85.9684208-1.2336364,28.5822032,3.6589157,56.4694698,11.5111397,82.7599111,23.3046042,19.4237696,20.1725439,102.8215494,116.7088685,54.7509714,238.8164707,0,0-7.3143857-82.3342704-90.8120882-66.1303165,2.6869304-14.0591689,4.4592665-27.2049279,5.4653848-39.4846542,9.726098-118.7051692-52.164179-156.5061042-52.164179-156.5061042,0,0-69.5294115,20.6100288-90.6634962,137.8231409-2.1864554,12.1255352-3.8547771,25.2847536-4.8746779,39.5618574-10.7604273-5.2221462-20.5672817-8.1737426-29.4733243-9.3900432-.9901824-.1352402-1.9678745-.2488377-2.9363065-.3418692-25.1561893-2.4189265-42.8614605,9.1475584-54.4598172,21.7927347-3.5687914,3.8908483-6.5591509,7.8837729-9.0098416,11.6028791-.612242.9297765-1.1921813,1.8424327-1.738526,2.732154-.8185479,1.3344205-1.5632306,2.6172644-2.2349093,3.8285043-.4477141.807565-.864633,1.5832582-1.2490339,2.3212649-2.4978525,4.797044-3.6633304,8.0021081-3.6633304,8.0021081C107.086397,103.7730867,212.5085211,31.9358697,236.4682221,17.4380314ZM242.5281901,179.1505612c-1.9502157,1.3219301-3.8371184,2.7420602-5.6525246,4.2566215-.7769852.6478825-1.5376038,1.3165464-2.2848707,2.0021152-.7468361.6855689-1.4803206,1.3879351-2.2026067,2.1035454,11.184022-127.7554968,76.6241396-160.538761,89.3309063-165.7234362,11.0087266,8.2387785,65.7099519,56.4058336,43.6317699,183.0509823-8.2356559-14.0222363-21.0651725-24.8921694-36.4547779-30.640848-16.9056742-6.7926987-35.2557053-9.1929974-53.338917-6.9771466-9.5561863.9332222-18.7210804,3.7769278-26.9970069,8.2612827-2.0690893,1.1212233-4.0815414,2.3447382-6.0319725,3.6668836ZM36.9768307,264.4101553l-.0120596.0888322c-.0486693-.0063528-.0835561-.0513611-.0768802-.1004611-2.0985923-19.8186151-2.5424301-39.7775311-1.3272062-59.6696885C47.7551321,111.4984692,124.793391,40.4099188,223.5725929,19.8507127c-34.5220056,23.7132321-119.2605586,94.7042287-106.5886788,212.9851571-30.4368032-6.7686871-62.2031815,5.5478641-80.0070834,31.5742855ZM58.9012524,293.7356413c8.2841098,4.1527148,17.2913672,6.9426905,26.7558141,8.1805262,11.6857891,1.5286668,23.8180002.5240559,35.1411388-2.905296,8.3663738,10.3888397,31.1526289,33.3904454,72.0343706,38.777658l26.5424016,93.4572406h0c-13.3569104,5.8264202-29.2980288,10.8737017-47.3702576,13.133161-1.428421.178418-2.8736394.3332552-4.3315635.4695722,1.4579241-.136317,2.9031425-.2911541,4.3315635-.4695722l-113.1034674-150.6432897ZM458.5326713,493.5652409c14.1162368,106.8011222.8484817,215.438109-38.5589693,315.702046-46.4425269,115.6488048-100.6282027,134.4790679-219.9561661,171.6565627-109.7840521-69.1991713-155.2742983-101.4475044-169.201888-230.0097048-10.6338011-104.6111135,4.8001666-210.2275917,44.925166-307.4208434,115.96677,49.8279472,198.6874873-30.5590147,198.6874873-30.5590147,0,0,59.2815189,98.8097816,184.1043702,80.6309543ZM368.5798323,470.8238865c-1.3489566-.5129653-2.6813313-1.0399284-3.9951858-1.5820737-18.5481538-7.6536707-33.7557879-17.8918726-45.673725-27.9234455-2.0001771-1.68415-3.9262735-3.3627008-5.7416797-5.0212241-17.5975959-16.084542-26.448078-30.3416182-26.6220813-30.6283577l-.0012921-.0025842c-4.6858154-7.8128149-15.4303067-9.2155015-21.9636155-2.8669636-.2711265.2632662-14.2499696,13.5646161-38.3242371,25.2779701-1.104749.5372999-2.2316791,1.0702929-3.3792828,1.5985481,1.1476038-.5282552,2.2745338-1.0612481,3.3792828-1.5985481l-25.4217167-89.5133083c5.4841203.3814937,11.0974511.4661265,16.8003677.1942463,15.8157844,12.6971836,34.8036842,20.7968455,54.941126,23.4311227,1.5227446.1990917,3.050873.3670652,4.4859699.4895998,1.5188683.2636969,3.0388134.4946605,4.5617734.6938599,20.1398106,2.6344925,40.5724982-.3087052,59.1223747-8.5106587,5.7470635,1.8269275,11.5048945,3.2597632,17.2009199,4.3184271l-44.779589,77.1166466c1.8154062,1.6585232,3.7415027,3.3370741,5.7416797,5.0212241l46.9875795-80.9199549c40.375883,4.9365912,67.9812555-11.2132021,78.6540351-19.0393687,10.0484779,6.2138361,21.4969506,10.298177,33.1691726,11.824798,11.1099414,1.4535094,22.1632456.6959057,32.656638-2.1320794l-145.7937001,118.1900504c1.3138545.5421453,2.6462291,1.0691084,3.9951858,1.5820737ZM551.1709333,272.1744086c-3.957284,19.5379055-9.5492951,38.7084227-16.7193958,57.3090144-10.5110512-29.73013-38.0395435-49.8027512-69.1938952-51.0909789,42.6687217-111.0408387-20.9572818-201.4389152-48.2200314-233.2347965,90.1673283,45.2750032,146.3290619,133.7867155,134.1333224,227.0167611Z"/>
  <path class="cls-1" d="M280.2132664,441.9272713c-3.0078029-3.3614087-7.2698081-5.0318839-11.5160928-4.8454979h0c-1.2744453.0559912-2.5467371.2793098-3.7837114.6739399-.4126119.1315793-.8209168.2821094-1.2240532.4520211-.8054115.3397157-1.5916569.7563116-2.3455996,1.2512951-3.0172783,1.9533383-6.0817185,3.8308732-9.1907362,5.6308818-4.6619114,2.6998514-9.4222382,5.2254842-14.2704279,7.5715144-4.8484051,2.3461379-9.785104,4.5126734-14.7997599,6.4948687-5.7042087,2.2495532-11.4919735,4.2201195-17.3426207,5.911053-5.8506472,1.6909335-11.7646075,3.1020188-17.7214225,4.2327175-1.9857486.3768637-3.9760195.7226092-5.9705975,1.0370212-1.9943626.3145197-3.9926015.5977058-5.9945014.8497738-4.0031537.5041359-8.0198745.8833685-12.0437019,1.1372669-4.0240427.2538984-8.0551921.3825705-12.0874181.3859084-.054053.0001077-.1065986-.0032303-.1604363-.0032303-5.1576487-.0001077-10.3183123-.2117974-15.4677777-.6227942-3.2397356-.2586362-6.4743027-.6099808-9.7032708-1.0316374-.3712646-.0484539-.7408063-.1146742-1.1118555-.1653893-1.8552461-.2535754-3.7098461-.5183491-5.5594931-.8266236-2.2196194-.3699725-4.4351472-.7788157-6.6450758-1.2252377-5.8065003-1.1732305-11.580698-2.5892689-17.2939514-4.300876-.9294535-.27328-1.866875-.450729-2.7986974-.5375153-.0150745-.0013998-.0301491.0004307-.0452236-.0009691-.6839537-.0614826-1.365754-.0776339-2.040663-.0440392-1.3793211.0686969-2.7304312.3317477-4.0167208.7702017-.6430371.2193347-1.2697076.4824932-1.8757044.7873221-2.4222644,1.2193155-4.5103046,3.1040647-5.9682287,5.5055477-.4854004.8004585-.9010272,1.6583079-1.2354668,2.5682722-1.6993322,4.6945371-3.3422425,9.4068406-4.9270081,14.1357261-3.1697466,9.4575557-6.1099294,18.9813317-8.8211944,28.5629293-1.3554172,4.7907988-2.6531203,9.5960261-3.8939709,14.4147129-3.7199676,14.4560602-6.9218014,29.0328245-9.597749,43.7018665-.8928439,4.8896448-1.7264664,9.7896264-2.5032363,14.6987604-.7756931,4.909134-1.4928109,9.8276358-2.1515686,14.7542132-1.9760578,14.7799476-3.4255832,29.6333299-4.3442692,44.5321511-.6124573,9.9326193-.988675,19.8852661-1.1275761,29.849865-.1376091,9.9643835-.0391938,19.9407189.2980453,29.9205.9212702,31.8770685,4.8260087,63.5977925,11.6629619,94.7470834,18.9071434,83.2296986,77.225614,116.4721981,143.4412094,159.9445008,1.8627834,1.199934,3.9465165,1.9422478,6.0883943,2.2172506.0271342.0038763.0527609.0104445.0796798.0142131.0271342.0038763.0553451.0032303.0835561.0068912,2.1405857.2851243,4.3444845.1036914,6.4527677-.5766014,75.1311133-24.983155,140.0748476-42.101811,179.7166001-117.6729934,14.6182193-28.3427332,26.5510156-57.991999,35.6403216-88.5597355,2.8958205-9.556617,5.5597084-19.1713786,7.9901562-28.8361016,17.0161491-67.6521997,22.6243114-137.7437842,16.5238574-207.3765641-.1791718-1.9306188-.7242243-3.7440869-1.5630152-5.3749375-1.2572172-2.446276-3.1751304-4.482309-5.5058707-5.8879028-2.3294483-1.4058092-5.0712931-2.1811793-7.9793886-2.106668-16.3444703.5055357-32.574374-1.0552183-48.3268453-4.5689876-5.2519723-1.1714-10.4503223-2.5594428-15.5810522-4.1605751-2.5667647-.8005661-5.1158707-1.6543239-7.6462411-2.5607349-17.7162541-6.3447693-34.5381569-15.2710549-49.8872763-26.5989311-11.5643313-8.5475914-22.2521854-18.2199593-31.908079-28.8757262ZM58.9848085,626.3645736c.0546991.0515765.1141359.1029376.1692656.1545141-.1016455-.0901243-.1696963-.1516069-.1692656-.1545141ZM69.4784162,635.4188851c0,.0019382-.074942-.0607289-.1839095-.1526836.0611596.0507151.1227499.1019685.1839095.1526836ZM323.8045504,644.0094389c-2.4898845-4.3721571-3.2937886-9.6991791-1.8020545-14.917449,2.9429823-10.2937623,13.6764908-16.2544537,23.9704685-13.3116867,10.2939777,2.94309,16.254023,13.6768138,13.3110407,23.9707915-2.2848707,7.996186-9.2781685,13.3551876-17.1078884,13.9793815-19.5611634,30.0420654-54.9964711,46.3387279-91.7156996,40.5642072l-2.4950529-.3938764c-21.0991979-3.3306136-41.7745856,1.3864277-58.777383,11.9234286-18.9947911,11.7708526-33.405197,30.806345-38.6802118,54.0374069-.1645279.7923828-.7634181,4.358913-1.4891499,8.7729559,4.7937061,4.2412239,7.4007414,10.7515979,6.3300178,17.5420354-1.6672449,10.5753334-11.5955572,17.7986257-22.1699215,16.1312731-10.5758717-1.6676756-17.8000255-11.5954495-16.1314885-22.1707829,1.0763227-6.8259704,5.6027786-12.2375175,11.5130779-14.7811321l12.9404222-82.0530225v-.0001077l9.775844-61.9967679c-1.7277585-1.5129462-3.1710387-3.3167234-4.2676044-5.3271297v-.0002154c-.9880289-1.8112069-1.6965326-3.7838191-2.0712428-5.8524777-.281248-1.5514939-.3747102-3.1571486-.2582055-4.7888607.0389785-.5439758.1009995-1.0907512.1875704-1.6395724.3129045-1.982949.9161018-3.8479936,1.759415-5.5587393,1.1245612-2.2809944,2.6759475-4.2875243,4.5355006-5.9331265.9296689-.8227473,1.9366486-1.5553703,3.005434-2.1867784.5345004-.3158118,1.084506-.6062122,1.6480787-.8701244,1.6911489-.7915214,3.5054783-1.3436805,5.3925963-1.6196524.6290393-.0919547,1.266262-.153222,1.9095144-.1825097,1.2869356-.0585754,2.598852.0108752,3.9206744.2193347.8295308.1308255,1.6306353.3295942,2.417096.558512,9.2297146,2.6885455,15.2507042,11.8671144,13.7143925,21.6125939-1.0763227,6.8259704-5.6027786,12.2376252-11.51437,14.7811321l-10.8213715,68.6178321-1.6198678,10.2703968c2.5613809-2.5387691,5.248096-4.9412213,8.0427017-7.205526,22.8052059-18.4698738,53.0096458-27.5420594,83.9184977-22.6777183l2.4978525.3938764c27.8713306,4.4087667,54.7389117-7.6062936,70.1313167-29.907902Z"/>
</svg>